<?xml version="1.0" encoding="UTF-8"?>
<svg width="286px" height="277px" viewBox="0 0 286 277" version="1.1" xmlns="http://www.w3.org/2000/svg" xmlns:xlink="http://www.w3.org/1999/xlink">
    <!-- Generator: Sketch 55 (78076) - https://sketchapp.com -->
    <title>EH</title>
    <desc>Created with Sketch.</desc>
    <defs>
        <rect id="path-1" x="0" y="0" width="278" height="269" rx="19"></rect>
        <filter x="-2.5%" y="-1.9%" width="105.0%" height="105.2%" filterUnits="objectBoundingBox" id="filter-2">
            <feOffset dx="0" dy="2" in="SourceAlpha" result="shadowOffsetOuter1"></feOffset>
            <feGaussianBlur stdDeviation="2" in="shadowOffsetOuter1" result="shadowBlurOuter1"></feGaussianBlur>
            <feComposite in="shadowBlurOuter1" in2="SourceAlpha" operator="out" result="shadowBlurOuter1"></feComposite>
            <feColorMatrix values="0 0 0 0 0   0 0 0 0 0   0 0 0 0 0  0 0 0 0.5 0" type="matrix" in="shadowBlurOuter1"></feColorMatrix>
        </filter>
    </defs>
    <g id="Page-1" stroke="none" stroke-width="1" fill="none" fill-rule="evenodd">
        <g id="Custom-Preset-4" transform="translate(-621.000000, -4411.000000)">
            <g id="EH" transform="translate(625.000000, 4413.000000)">
                <g id="Rectangle">
                    <use fill="black" fill-opacity="1" filter="url(#filter-2)" xlink:href="#path-1"></use>
                    <use fill-opacity="0.3" fill="#5AC7D8" fill-rule="evenodd" xlink:href="#path-1"></use>
                </g>
                <g id="25KR7jRU_400x400" transform="translate(28.000000, 91.000000)" fill-rule="nonzero">
                    <g id="#d3272cff" transform="translate(0.000000, 1.000000)" fill="#D3272C">
                        <path d="M11.1591667,3.46740741 C12.0866667,2.29055556 13.1833333,1.25148148 14.1575,0.109074074 C14.4083333,1.02759259 14.5541667,2.04944444 15.2833333,2.74407407 C19.2616667,6.78555556 24.3425,9.71907407 27.8016667,14.2542593 C27.0433333,16.2635185 25.5616667,17.8537037 24.1033333,19.397963 C23.7708333,18.445 23.6016667,17.36 22.8025,16.6481481 C19.1566667,12.9166667 14.6358333,10.1151852 11.0891667,6.27462963 C10.2841667,5.54555556 10.465,4.20796296 11.1591667,3.46740741 Z" id="Path"></path>
                        <path d="M5.65833333,11.6135185 C4.69,9.22537037 7.46083333,7.53759259 8.7675,5.90722222 C9.30416667,7.0037037 9.78833333,8.15759259 10.6516667,9.04740741 C14.0291667,12.4401852 18.3633333,14.7766667 21.56,18.3588889 C22.0033333,18.9214815 22.6041667,19.5816667 22.3825,20.3566667 C21.6475,22.2166667 20.1366667,23.6231481 18.8183333,25.087037 C18.4625,24.1627778 18.2991667,23.1122222 17.57,22.3774074 C13.9591667,18.4105556 9.08833333,15.7296296 5.65833333,11.6135185 Z" id="Path"></path>
                        <path d="M0.0758333333,16.1027778 C0.659166667,14.2427778 2.35083333,13.0142593 3.5525,11.5446296 C3.98416667,14.105 6.39916667,15.5057407 8.17833333,17.1418519 C11.34,19.9662963 15.0616667,22.2798148 17.4183333,25.862037 C16.3858333,27.722037 14.9158333,29.272037 13.4575,30.8048148 C13.2066667,29.8518519 13.125,28.7783333 12.3666667,28.055 C9.23416667,24.7827778 5.45416667,22.2051852 2.05333333,19.2257407 C1.17833333,18.3646296 -0.035,17.4748148 0.0758333333,16.1027778 Z" id="Path"></path>
                    </g>
                    <g id="#605d5dff" transform="translate(41.000000, 0.000000)" fill="#605D5D">
                        <path d="M15.7284615,0.886956522 C17.9294118,0.892753623 20.1246154,0.915942029 22.3255656,0.892753623 C23.3427149,4.51014493 24.0610407,8.21449275 25.181629,11.8028986 C26.0263801,8.13333333 26.8653846,4.46376812 27.8538009,0.828985507 C29.6754751,0.886956522 31.4971493,0.892753623 33.3188235,0.910144928 C31.7959729,6.19130435 30.2961086,11.4724638 28.7387783,16.742029 C28.3595023,18 28.0664253,19.3449275 28.5261538,20.6318841 C30.3823077,26.9449275 32.2959276,33.2405797 34.1808145,39.542029 C31.9971041,39.5304348 29.8133937,39.5188406 27.6354299,39.6115942 C26.3252036,35.0782609 25.1758824,30.4985507 24.0725339,25.9130435 C22.6933484,30.4289855 21.7336652,35.0608696 20.4176923,39.6 C18.6017647,39.542029 16.7858371,39.5362319 14.9699095,39.5188406 C16.8777828,32.5333333 19.0902262,25.6173913 20.9004072,18.6144928 C19.3085973,12.6724638 17.400724,6.8115942 15.7284615,0.886956522 Z" id="Path"></path>
                        <path d="M74.901267,0.898550725 C79.498552,0.933333333 84.1015837,0.910144928 88.6988688,0.898550725 C88.6471493,2.86376812 88.6471493,4.83478261 88.6528959,6.8 C86.331267,6.8057971 84.0038914,6.8 81.6822624,6.77101449 C81.4811312,9.96521739 81.4466516,13.1710145 81.7799548,16.3594203 C83.3660181,16.3188406 84.9520814,16.3072464 86.5438914,16.2956522 C86.5151584,18.1217391 86.5094118,19.9478261 86.520905,21.773913 C84.900362,21.7623188 83.279819,21.7623188 81.659276,21.7623188 C81.440905,25.7797101 81.5673303,29.8028986 81.5615837,33.8202899 C84.0038914,33.826087 86.4519457,33.8202899 88.8942534,33.8318841 C88.928733,35.7391304 88.9114932,37.6521739 88.8540271,39.5652174 C84.199276,39.4956522 79.5445249,39.5710145 74.8897738,39.5246377 C74.9472398,26.6492754 74.9185068,13.773913 74.901267,0.898550725 Z" id="Path"></path>
                        <path d="M92.7904525,2.57391304 C94.8362443,0.527536232 97.9623982,0.35942029 100.657557,0.75942029 C102.680362,1.04347826 104.536516,2.31304348 105.524932,4.12173913 C106.817919,6.52173913 107.133982,9.29275362 107.277647,11.9710145 C105.203122,12.2144928 103.122851,12.3942029 101.042579,12.5391304 C100.898914,10.4927536 100.623077,8.44057971 99.789819,6.55072464 C98.9910407,6.56231884 98.1865158,6.57391304 97.3877376,6.59710145 C96.2958824,9.15362319 96.8130769,12.1391304 98.3819005,14.3710145 C101.174751,18.2666667 105.39276,21.2231884 106.978824,25.9130435 C107.972986,29.4608696 108.059186,33.6405797 105.909955,36.7884058 C104.329638,39.0666667 101.456335,39.8608696 98.8301357,39.884058 C96.2958824,40.0173913 93.5030317,39.2115942 91.9686878,37.0434783 C90.009095,34.3536232 89.8884163,30.8869565 89.4861538,27.7043478 C91.5376923,27.5362319 93.5949774,27.3797101 95.6407692,27.1246377 C95.9166063,29.5710145 96.2499095,32.0811594 97.6233484,34.1855072 C98.4853394,34.1333333 99.3530769,34.0695652 100.215068,33.9942029 C101.174751,31.9942029 101.433348,29.542029 100.226561,27.5768116 C97.3072851,22.6028986 91.7962896,19.2115942 90.520543,13.2869565 C89.9746154,9.66956522 89.8941629,5.25797101 92.7904525,2.57391304 Z" id="Path"></path>
                        <path d="M113.087466,1.6115942 C116.575656,-0.110144928 121.661403,0.052173913 124.13819,3.44927536 C125.873665,5.90724638 126.132262,9.02608696 126.333394,11.9478261 C124.276109,12.1855072 122.213077,12.4057971 120.150045,12.5623188 C119.868462,10.6666667 119.908688,8.63188406 118.977738,6.90434783 C118.242172,6.3826087 117.265249,6.64927536 116.426244,6.56231884 C115.426335,9.13623188 115.828597,12.0695652 117.408914,14.3130435 C119.776516,17.6869565 123.167014,20.2550725 125.195566,23.8898551 C127.074706,27.6347826 127.35629,32.3362319 125.413937,36.1101449 C123.960045,38.8289855 120.718959,39.9536232 117.80543,39.8550725 C115.276923,39.9710145 112.40362,39.2057971 110.961222,36.9449275 C109.076335,34.2550725 108.886697,30.8347826 108.645339,27.6695652 C110.679638,27.5072464 112.713937,27.3565217 114.753982,27.257971 C115.029819,29.3797101 115.386109,31.4956522 116.018235,33.5478261 C116.656109,33.8434783 117.299729,34.1507246 117.943348,34.4521739 C120.897104,33.3275362 120.506335,29.4202899 119.086923,27.1826087 C116.081448,22.5507246 111.035928,19.1884058 109.616516,13.5826087 C108.743032,9.44927536 109.133801,4.03478261 113.087466,1.6115942 Z" id="Path"></path>
                        <path d="M0.298823529,0.863768116 C4.87886878,0.962318841 9.46466063,0.898550725 14.0447059,0.88115942 C14.0676923,2.85797101 14.0561991,4.83478261 14.0619457,6.8115942 C11.7345701,6.8057971 9.41294118,6.8 7.08556561,6.8115942 C7.03384615,9.93043478 7.03384615,13.0492754 7.079819,16.1681159 C8.66588235,16.1565217 10.2576923,16.1333333 11.8495023,16.0927536 C11.9184615,17.9884058 11.9184615,19.884058 11.8897285,21.7855072 C10.2691855,21.773913 8.64864253,21.773913 7.02809955,21.7913043 C7.06257919,25.8086957 7.03384615,29.826087 7.04533937,33.8434783 C9.45316742,33.8202899 11.8609955,33.8202899 14.2688235,33.8028986 C14.2745701,35.7217391 14.2630769,37.6405797 14.2171041,39.5594203 C9.57959276,39.5072464 4.94782805,39.5246377 0.310316742,39.5768116 C0.270090498,26.6724638 0.298823529,13.7681159 0.298823529,0.863768116 Z" id="Path"></path>
                        <path d="M35.7438914,39.5652174 C35.7381448,26.6608696 35.6749321,13.7565217 35.7726244,0.852173913 C39.3929864,1.10144928 43.0765611,0.539130435 46.6509502,1.29855072 C50.041448,2.04637681 52.1044796,5.42028986 52.5929412,8.69565217 C53.3629864,13.3101449 53.2193213,18.3188406 51.2195023,22.6144928 C49.5932127,25.9362319 45.5648416,26.5043478 42.2777828,26.4 C42.3122624,30.7710145 42.2433032,35.142029 42.318009,39.5130435 C40.1228054,39.5362319 37.9333484,39.542029 35.7438914,39.5652174 L35.7438914,39.5652174 Z M42.3409955,6.60289855 C42.2490498,11.3507246 42.260543,16.1043478 42.3295023,20.857971 C43.3753846,20.5681159 44.8809955,20.8173913 45.4154299,19.6115942 C46.5130317,17.5188406 46.4095928,15.0608696 46.3980995,12.7652174 C46.288914,10.9101449 46.3406335,8.84057971 45.1223529,7.31594203 C44.2201357,6.99130435 43.2719457,6.8115942 42.3409955,6.60289855 Z" id="Shape"></path>
                        <path d="M55.2363801,39.5826087 C55.1731674,26.6724638 55.1616742,13.7623188 55.2708597,0.857971014 C59.8106787,1.32173913 65.1262896,-0.301449275 68.9535294,2.95652174 C72.0911765,5.84347826 72.4474661,10.4811594 72.3095475,14.4985507 C72.2578281,17.8318841 71.2981448,21.2753623 68.7811312,23.5768116 C70.200543,28.8869565 71.5624887,34.2202899 72.8095023,39.5710145 C70.6430317,39.5188406 68.4708145,39.5130435 66.2985973,39.5594203 C64.9653846,34.8463768 64.1378733,29.9942029 62.7127149,25.315942 C61.4771946,24.9565217 61.8047511,26.5275362 61.6668326,27.1942029 C61.6380995,31.3217391 61.6783258,35.4434783 61.7013122,39.5710145 C59.5463348,39.5246377 57.3913575,39.5246377 55.2363801,39.5826087 L55.2363801,39.5826087 Z M61.689819,6.69565217 C61.6323529,11.3855072 61.7013122,16.0695652 61.6955656,20.7594203 C62.9942986,20.5565217 64.6838009,20.2956522 65.0573303,18.7594203 C65.9940271,15.0086957 66.0974661,10.8637681 64.6493213,7.22898551 C63.660905,7.03768116 62.6782353,6.85797101 61.689819,6.69565217 Z" id="Shape"></path>
                    </g>
                    <g id="#161312ff" transform="translate(5.000000, 35.000000)" fill="#161312">
                        <path d="M8.38125,0.44 C9.984375,4.61714286 12.560625,8.78857143 16.588125,10.9142857 C15.2775,16.1485714 13.4325,21.3028571 12.988125,26.7142857 C10.22625,26.7142857 7.45875,26.6742857 4.696875,26.7485714 C3.915,21.4571429 2.025,16.4342857 0.6525,11.2914286 C4.03875,8.42285714 7.695,5.12 8.38125,0.44 L8.38125,0.44 Z M8.82,3.62285714 C8.848125,6.10285714 8.904375,8.58285714 8.8425,11.0628571 C9.073125,11.2114286 9.54,11.5085714 9.77625,11.6571429 C9.916875,12.0228571 10.1925,12.7542857 10.3275,13.1257143 C9.6525,13.8914286 9.028125,15.0571429 7.81875,14.5542857 C6.418125,13.6971429 6.64875,11.64 8.071875,10.9428571 C8.128125,8.54285714 8.11125,6.13714286 8.128125,3.73142857 C6.631875,6.85142857 4.51125,9.69714286 1.603125,11.5885714 C3.234375,15.76 3.34125,20.5771429 6.0075,24.2857143 C7.75125,25.2228571 9.793125,25.1657143 11.55375,24.3142857 C14.349375,20.5542857 13.57875,15.52 15.586875,11.4171429 C12.6,9.59428571 10.44,6.70285714 8.82,3.62285714 Z" id="Shape"></path>
                        <path d="M3.706875,29.8342857 C3.718125,29.3542857 3.729375,28.8742857 3.740625,28.4 C7.104375,28.4628571 10.468125,28.3371429 13.82625,28.4685714 C13.905,28.8057143 14.056875,29.4857143 14.13,29.8228571 C10.65375,29.8514286 7.183125,29.8228571 3.706875,29.8342857 Z" id="Path"></path>
                        <path d="M0.41625,33.0857143 C0.815625,32.3542857 1.35,31.7142857 1.985625,31.1771429 C4.19625,31.6628571 6.710625,31.8342857 8.308125,33.6857143 C7.25625,35.8857143 4.820625,34.9371429 3.020625,34.4971429 C2.07,34.2 1.254375,33.6057143 0.41625,33.0857143 Z" id="Path"></path>
                        <path d="M9.106875,31.2971429 C11.188125,31.3028571 13.26375,31.3314286 15.339375,31.2914286 C16.2225,32.3314286 17.08875,33.3885714 17.96625,34.4285714 C18.16875,39.1371429 16.2225,43.4971429 14.90625,47.9028571 C14.175,47.8971429 13.449375,47.8971429 12.72375,47.9085714 C12.69,46.2057143 12.605625,44.5028571 12.67875,42.8057143 C12.819375,41.2571429 11.829375,39.8742857 11.9925,38.3257143 C11.953125,36.84 12.729375,35.5371429 13.269375,34.2171429 C11.514375,33.8914286 9.30375,33.5371429 9.106875,31.2971429 Z" id="Path"></path>
                        <path d="M0.3375,35.7657143 C2.34,35.24 4.32,35.9542857 6.26625,36.4 C7.0425,36.9142857 8.3025,37.1371429 8.195625,38.36 C7.7175,39.0285714 7.0425,39.5314286 6.1875,39.2857143 C4.156875,39.2114286 2.21625,38.56 0.36,37.7657143 C0.343125,37.0971429 0.3375,36.4285714 0.3375,35.7657143 Z" id="Path"></path>
                        <path d="M0.826875,42.2914286 C1.035,41.6228571 0.6525,40.1542857 1.715625,40.1885714 C3.9825,39.9657143 6.226875,40.6628571 8.229375,41.6971429 C8.2125,42.08 8.17875,42.8514286 8.161875,43.2342857 C5.698125,44.1714286 3.15,43.16 0.826875,42.2914286 Z" id="Path"></path>
                        <path d="M1.951875,45.7714286 C2.390625,45.3028571 2.82375,44.8342857 3.268125,44.3714286 C4.995,44.6228571 6.7275,44.9771429 8.263125,45.8685714 C8.206875,46.4685714 8.150625,47.0742857 8.08875,47.6742857 C5.92875,48.0171429 3.105,48.0571429 1.951875,45.7714286 Z" id="Path"></path>
                        <path d="M4.235625,49.4457143 C7.835625,49.4857143 11.435625,49.4857143 15.035625,49.4514286 C15.586875,50.2285714 16.12125,51.0114286 16.65,51.8114286 C12.054375,51.8914286 7.45875,51.8514286 2.863125,51.8342857 C3.313125,51.0342857 3.78,50.24 4.235625,49.4457143 Z" id="Path"></path>
                    </g>
                    <g id="#f0ad05ff" transform="translate(41.000000, 47.000000)" fill="#F0AD05">
                        <path d="M42.7792063,0.342028986 C44.9224762,0.382608696 47.065746,0.376811594 49.2147619,0.342028986 C49.1745397,0.597101449 49.0998413,1.10724638 49.059619,1.36231884 L49.6284762,1.42028986 C50.0421905,4.44057971 50.5823175,7.44347826 51.2431111,10.4231884 C51.593619,14.9217391 52.8347619,19.2811594 53.3174286,23.7623188 C53.9609841,28.9275362 55.3457778,33.9884058 55.6043492,39.2115942 C53.2886984,39.1942029 50.9730476,39.1942029 48.6573968,39.1246377 C48.6746349,36.4753623 48.1172698,33.884058 47.962127,31.2521739 C47.7610159,31.0318841 47.3645397,30.5913043 47.1634286,30.3768116 C45.9452698,30.5913043 44.7328571,30.8289855 43.5146984,31.0434783 C43.5204444,33.773913 42.9400952,36.4463768 42.6470476,39.1478261 C40.549746,39.2173913 38.4466984,39.2289855 36.3436508,39.2347826 C36.4930476,38.1217391 36.6309524,37.0086957 36.7803492,35.8956522 C36.9814603,34.9043478 37.1710794,33.9130435 37.4239048,32.9391304 C38.2685714,25.7217391 39.7395556,18.6086957 40.733619,11.4086957 C41.5265714,7.73913043 41.7564127,3.96521739 42.7792063,0.342028986 L42.7792063,0.342028986 Z M45.9222857,12.3304348 C45.784381,13.2811594 45.6522222,14.2376812 45.5258095,15.1942029 C44.704127,18.626087 44.6236825,22.173913 44.0031111,25.6405797 C44.336381,25.773913 45.0029206,26.0463768 45.3304444,26.1797101 C46.0199683,26.0173913 46.7152381,25.8608696 47.4105079,25.715942 C46.9910476,21.2405797 46.4394286,16.7942029 45.9222857,12.3304348 Z" id="Shape"></path>
                        <path d="M0.275809524,0.823188406 C2.55698413,0.794202899 4.83815873,0.788405797 7.11933333,0.852173913 C7.42387302,6.04637681 6.28615873,11.2463768 7.22850794,16.4057971 C8.46965079,15.9768116 9.77974603,15.9072464 11.0783492,15.8956522 C11.3311746,15.0608696 11.4690794,14.2028986 11.4403492,13.3333333 C11.0611111,9.16521739 11.400127,4.96231884 11.227746,0.776811594 C13.5146667,0.730434783 15.8073333,0.782608696 18.094254,0.811594203 C18.0195556,7.49565217 18.1,14.1855072 17.9965714,20.8753623 C17.9620952,26.9855072 18.4160317,33.1362319 17.6115873,39.2115942 C15.4970476,39.2115942 13.3767619,39.2 11.2622222,39.2115942 C11.3024444,33.4202899 11.2507302,27.6289855 11.2679683,21.8376812 C9.8831746,21.7623188 8.48688889,21.7333333 7.09634921,21.7217391 C7.06761905,27.542029 7.17679365,33.3681159 7.09060317,39.1884058 C4.83815873,39.2 2.57996825,39.2173913 0.321777778,39.2057971 C0.201111111,26.4115942 0.32752381,13.6173913 0.275809524,0.823188406 Z" id="Path"></path>
                        <path d="M21.4384444,0.776811594 C25.9203492,0.730434783 30.402254,0.753623188 34.8841587,0.84057971 C34.8841587,2.76521739 34.8899048,4.68985507 34.8841587,6.61449275 C32.574254,6.62608696 30.2643492,6.64347826 27.9601905,6.68405797 C27.9314603,9.75072464 27.9027302,12.8231884 27.9486984,15.8898551 C29.500127,15.9188406 31.0458095,15.9478261 32.5914921,15.9768116 C32.6202222,17.8724638 32.6317143,19.773913 32.58,21.6695652 C31.0285714,21.6695652 29.4771429,21.6927536 27.9257143,21.7623188 C27.9372063,25.6231884 27.9774286,29.484058 27.8567619,33.3391304 C30.3103175,33.7449275 32.7926032,33.8376812 35.2748889,33.7507246 C35.297873,35.5710145 35.3495873,37.3855072 35.3955556,39.2057971 C30.7527619,39.2753623 26.1042222,39.1942029 21.4556825,39.1710145 C21.3120317,26.3768116 21.4729206,13.5768116 21.4384444,0.776811594 Z" id="Path"></path>
                        <path d="M69.8430159,0.8 C75.2270476,0.771014493 80.6110794,0.736231884 86.0008571,0.788405797 C85.983619,2.74202899 85.977873,4.68985507 85.9376508,6.64347826 C84.5758413,6.64927536 83.2140317,6.66086957 81.8522222,6.68405797 L81.5591746,5.62318841 C81.2373968,7.6057971 80.8639048,9.5942029 80.8753968,11.6115942 C80.909873,20.8057971 80.8639048,30 80.904127,39.2 C78.7551111,39.2115942 76.6003492,39.2057971 74.4513333,39.1942029 C74.3536508,28.3594203 74.4226032,17.5188406 74.4398413,6.68405797 C72.7160317,6.67246377 70.9979683,6.65507246 69.2741587,6.63768116 C69.2626667,5.14782609 69.2626667,3.66376812 69.2569206,2.17971014 C69.4005714,1.83768116 69.693619,1.14782609 69.8430159,0.8 Z" id="Path"></path>
                        <path d="M88.0924127,0.782608696 C90.2414286,0.713043478 92.3904444,0.747826087 94.5452063,0.857971014 C94.5566984,5.87826087 94.4992381,10.8985507 94.5509524,15.9246377 C95.9414921,15.9246377 97.3320317,15.9362319 98.7283175,15.9536232 C99.2914286,10.9275362 98.6880952,5.84347826 99.0328571,0.794202899 C101.170381,0.771014493 103.307905,0.788405797 105.445429,0.857971014 C105.61781,13.6347826 105.422444,26.4231884 105.537365,39.2 C103.359619,39.1826087 101.187619,39.1942029 99.015619,39.2057971 C98.9006984,33.4028986 98.9409206,27.5942029 98.9581587,21.7913043 C97.4756825,21.7565217 95.9989524,21.7333333 94.5222222,21.7101449 C94.5796825,27.5246377 94.4475238,33.3449275 94.5279683,39.1652174 C92.3732063,39.2173913 90.2126984,39.2115942 88.0579365,39.2289855 C88.0521905,26.4115942 87.9774921,13.5942029 88.0924127,0.782608696 Z" id="Path"></path>
                        <path d="M111.921206,2.16231884 C114.323048,0.353623188 117.293746,0.052173913 120.201238,0.342028986 C121.994,1.28695652 123.74654,2.57971014 124.539492,4.53333333 C126.027714,7.92463768 125.67146,11.7101449 125.70019,15.315942 C123.723556,15.2869565 121.741175,15.3101449 119.770286,15.4144928 C119.730063,13.7797101 119.689841,12.1391304 119.638127,10.5043478 C119.437016,9.78550725 119.241651,9.06666667 119.057778,8.34782609 C118.609587,7.65217391 118.167143,6.95652174 117.73619,6.26086957 C117.356952,6.24347826 116.977714,6.23188406 116.604222,6.22608696 C115.960667,7.75652174 115.236667,9.31014493 115.184952,11.0028986 C114.978095,16.5971014 114.512667,22.2028986 115.052794,27.7913043 C115.236667,29.657971 115.133238,31.8086957 116.443333,33.2985507 C117.006444,33.3507246 118.132667,33.4608696 118.690032,33.5130435 C119.76454,30.857971 119.885206,27.9826087 119.87946,25.1536232 C122.016984,25.0898551 124.154508,25.0956522 126.286286,25.1594203 C126.177111,26.6376812 126.06219,28.115942 125.941524,29.5942029 C125.631238,32.515942 124.884254,35.3855072 123.062762,37.7391304 C121.24127,38.684058 119.368063,39.8724638 117.23054,39.6753623 C114.294317,39.7333333 111.789048,37.7507246 110.226127,35.3913043 C108.416127,30.573913 108.008159,25.3913043 108.169048,20.284058 C108.077111,14.7246377 108.249492,8.95072464 110.703048,3.85507246 C111.116762,3.29855072 111.52473,2.73623188 111.921206,2.16231884 Z" id="Path"></path>
                        <path d="M132.457524,0.742028986 C134.905333,0.695652174 137.358889,0.660869565 139.806698,0.811594203 C139.933111,5.24057971 141.116794,9.52463768 141.737365,13.8956522 C142.938286,22.3594203 144.443746,30.7710145 145.759587,39.2173913 C143.530127,39.2347826 141.300667,39.2405797 139.071206,39.2289855 C138.462127,36.3304348 138.278254,33.3623188 137.611714,30.4753623 C136.307365,30.5043478 134.99727,30.5333333 133.692921,30.5449275 C133.468825,33.4492754 133.049365,36.3362319 132.526476,39.2 C130.354476,39.1942029 128.188222,39.2173913 126.021968,39.2115942 C126.734476,36.8 127.245873,34.3304348 127.429746,31.8202899 C128.389333,25.6463768 129.710921,19.5188406 130.308508,13.2869565 C131.164667,9.13623188 132.049556,4.96811594 132.457524,0.742028986 L132.457524,0.742028986 Z M134.043429,25.7217391 C134.422667,25.8318841 135.186889,26.057971 135.571873,26.1681159 C136.226921,26 136.881968,25.8318841 137.542762,25.6753623 C136.77854,22.1971014 136.74981,18.6086957 136.060286,15.1188406 C135.928127,14.2492754 135.795968,13.3855072 135.66381,12.515942 C135.353524,16.9449275 134.434159,21.2985507 134.043429,25.7217391 Z" id="Shape"></path>
                        <path d="M147.379968,0.817391304 C151.103397,0.857971014 154.872794,0.44057971 158.567492,1.09565217 C159.406413,1.51884058 160.256825,1.91884058 161.112984,2.30724638 C161.112984,2.48695652 161.107238,2.85217391 161.107238,3.03768116 C161.607143,3.32173913 162.112794,3.6173913 162.62419,3.90724638 C163.267746,5.55362319 164.060698,7.14782609 164.457175,8.88115942 C164.664032,10.9391304 164.618063,13.0202899 164.62381,15.0956522 C164.692762,17.4376812 163.520571,19.5478261 162.756349,21.6927536 C162.239206,21.9652174 161.72781,22.2376812 161.216413,22.5217391 C161.245143,22.9623188 161.302603,23.8434783 161.331333,24.284058 C162.796571,29.3333333 163.876825,34.4811594 165.175429,39.5710145 C162.945968,39.4898551 160.722254,39.4782609 158.49854,39.5594203 C158.383619,38.7362319 158.268698,37.9072464 158.148032,37.0898551 C157.55619,35.6289855 157.263143,34.0695652 156.981587,32.5275362 C156.142667,30.3362319 155.861111,27.9942029 155.343968,25.7217391 C155.068159,25.6927536 154.51654,25.6347826 154.246476,25.6057971 C153.602921,30.2608696 154.062603,34.9681159 153.79254,39.6405797 C151.660762,39.4782609 149.523238,39.4898551 147.397206,39.5710145 C147.36273,26.6550725 147.443175,13.7333333 147.379968,0.817391304 L147.379968,0.817391304 Z M154.280952,20.6144928 C155.223302,20.3130435 156.171397,20.0289855 157.125238,19.7565217 C157.929683,15.6521739 158.688159,11.3217391 157.130984,7.29275362 C156.257587,6.67246377 155.131365,6.70144928 154.137302,6.45797101 C153.568444,11.142029 153.769556,15.9304348 154.280952,20.6144928 Z" id="Shape"></path>
                        <path d="M167.353175,0.776811594 C171.817841,0.684057971 176.282508,0.794202899 180.747175,0.817391304 C180.787397,2.75942029 180.787397,4.70724638 180.752921,6.64927536 C178.454508,6.68985507 176.156095,6.67826087 173.857683,6.65507246 C173.805968,9.75072464 173.851937,12.8521739 173.851937,15.9536232 C175.501048,15.9710145 177.155905,15.8898551 178.793524,16.1101449 C178.994635,17.7797101 178.919937,19.4666667 178.919937,21.142029 C177.902889,21.3623188 176.885841,21.5594203 175.857302,21.7101449 C175.17927,21.715942 174.506984,21.7275362 173.834698,21.7449275 C173.886413,25.6231884 173.897905,29.4956522 173.828952,33.373913 C176.156095,33.7217391 178.511968,33.8318841 180.862095,33.7913043 C180.879333,35.5942029 180.879333,37.3971014 180.885079,39.2 C176.391683,39.2869565 171.898286,39.1536232 167.404889,39.2289855 C167.335937,26.4115942 167.422127,13.5942029 167.353175,0.776811594 Z" id="Path"></path>
                        <path d="M57.5867302,39.2115942 C57.5809841,26.3826087 57.5465079,13.5536232 57.6212063,0.730434783 C59.7817143,0.753623188 61.9422222,0.776811594 64.1027302,0.788405797 C64.1429524,11.6463768 64.1889206,22.5101449 64.079746,33.3681159 C66.4988254,33.6927536 68.9293968,33.7971014 71.3657143,33.9014493 C71.3484762,35.6347826 71.3599683,37.3623188 71.4059365,39.0956522 C66.8033651,39.4086957 62.1950476,39.0956522 57.5867302,39.2115942 Z" id="Path"></path>
                    </g>
                </g>
            </g>
        </g>
    </g>
</svg>