<?xml version="1.0" encoding="UTF-8"?>
<svg width="286px" height="277px" viewBox="0 0 286 277" version="1.1" xmlns="http://www.w3.org/2000/svg" xmlns:xlink="http://www.w3.org/1999/xlink">
    <!-- Generator: Sketch 55 (78076) - https://sketchapp.com -->
    <title>NASSCOM</title>
    <desc>Created with Sketch.</desc>
    <defs>
        <rect id="path-1" x="0" y="0" width="278" height="269" rx="19"></rect>
        <filter x="-2.5%" y="-1.9%" width="105.0%" height="105.2%" filterUnits="objectBoundingBox" id="filter-2">
            <feOffset dx="0" dy="2" in="SourceAlpha" result="shadowOffsetOuter1"></feOffset>
            <feGaussianBlur stdDeviation="2" in="shadowOffsetOuter1" result="shadowBlurOuter1"></feGaussianBlur>
            <feComposite in="shadowBlurOuter1" in2="SourceAlpha" operator="out" result="shadowBlurOuter1"></feComposite>
            <feColorMatrix values="0 0 0 0 0   0 0 0 0 0   0 0 0 0 0  0 0 0 0.5 0" type="matrix" in="shadowBlurOuter1"></feColorMatrix>
        </filter>
    </defs>
    <g id="Page-1" stroke="none" stroke-width="1" fill="none" fill-rule="evenodd">
        <g id="Custom-Preset-4" transform="translate(-286.000000, -3736.000000)">
            <g id="NASSCOM" transform="translate(290.000000, 3738.000000)">
                <g id="Rectangle">
                    <use fill="black" fill-opacity="1" filter="url(#filter-2)" xlink:href="#path-1"></use>
                    <use fill-opacity="0.3" fill="#EC4D62" fill-rule="evenodd" xlink:href="#path-1"></use>
                </g>
                <g id="1280px-NASSCOM_logo" transform="translate(20.000000, 117.000000)" fill="#B11F2A" fill-rule="nonzero">
                    <path d="M76.9800196,3.16034757 C79.2878794,0.790634915 82.6942728,-0.135983496 85.911005,0.0159211612 C89.2516742,0.040605668 92.4815512,1.24445008 95.2926708,3.01413934 C94.3687758,5.28701278 93.3829122,7.5333029 92.4214604,9.78908707 C90.8553457,8.39726064 88.9099082,7.42127322 86.8499227,7.07758893 C85.2838079,6.80985697 83.5017421,7.29595188 82.5816027,8.67828426 C81.7046536,10.0036524 82.4726883,11.9689189 83.9092324,12.5081804 C87.2010779,13.928489 90.9229478,14.353822 93.9274845,16.4292194 C95.7208173,17.8799089 96.648468,20.1774668 96.9057315,22.4408462 C97.230597,25.3631121 96.7423598,28.4961456 95.0260182,30.928519 C93.3096766,33.3551959 90.6487838,35.0584269 87.7531615,35.6280693 C84.2622654,36.3154379 80.5385178,36.0837833 77.2523057,34.6501831 C75.2956012,33.7615408 73.5548477,32.4475656 72,30.9626975 C73.3933539,28.670836 74.7923413,26.3808733 76.1856952,24.0890118 C77.374365,25.5055227 78.7639633,26.7872183 80.4164585,27.6264915 C81.9525278,28.5436159 83.8097071,28.9556572 85.5711167,28.5872884 C86.8311443,28.3214553 87.9709904,27.3454679 88.2582993,26.0485819 C88.4385715,25.1637372 88.3897477,24.1991426 88.0179363,23.3693635 C87.7287497,22.7332627 87.1165753,22.3516023 86.5344463,22.026906 C84.5176511,20.9540794 82.2229362,20.6388772 80.1291496,19.7635266 C78.1029652,18.9850153 76.0993148,17.8210458 74.8975001,15.9355293 C73.6449838,13.9132985 73.5398251,11.3973776 73.8477901,9.09412326 C74.1407324,6.8174522 75.2580445,4.66230487 76.9800196,3.16034757 Z" id="Path"></path>
                    <path d="M105.92163,2.2856099 C108.180455,0.551887383 111.09598,-0.116535755 113.900169,0.0163893006 C117.283688,0.0524689586 120.589837,1.20511909 123.422331,3.03758593 C122.448603,5.2859183 121.497518,7.54374532 120.525677,9.79207769 C119.18963,8.55587467 117.506362,7.81719115 115.802337,7.25510805 C114.522902,6.94178471 113.064196,6.84493931 111.877228,7.50766566 C111.158254,7.98429693 110.443054,8.64132649 110.293975,9.53762116 C110.209057,10.2801025 110.31662,11.1061368 110.824242,11.6872092 C111.337526,12.3024623 112.111225,12.5835039 112.832086,12.8683433 C115.736289,13.9089566 118.849957,14.4843322 121.501293,16.1420975 C123.365719,17.3156359 124.345109,19.4538303 124.813103,21.5407537 C125.239581,24.4214296 124.984827,27.5185834 123.541217,30.0916326 C121.886255,32.9704096 118.916005,35.0003651 115.683451,35.6327085 C112.226336,36.2992328 108.54466,36.0979462 105.2838,34.7041321 C103.319359,33.7869492 101.526641,32.5089697 100,30.9670391 C101.358691,28.6731324 102.715496,26.3792257 104.077962,24.087218 C105.385702,25.4772343 106.751942,26.8900377 108.503144,27.7065774 C110.124139,28.576287 112.054613,28.9959504 113.858653,28.5174202 C114.936171,28.226884 115.902351,27.4312326 116.253347,26.3469439 C116.660954,25.0898527 116.434506,23.5327306 115.407939,22.6364359 C114.46629,21.8047049 113.228371,21.4572008 112.079145,21.0261438 C109.125878,20.1792213 105.987678,19.3171074 103.725079,17.1029558 C101.613446,14.866017 101.237919,11.5030131 101.828572,8.5900554 C102.315437,6.05118684 103.866609,3.80665232 105.92163,2.2856099 Z" id="Path"></path>
                    <path d="M138.549214,1.14951079 C141.535203,0.034758747 144.80503,-0.227312431 147.95186,0.182885935 C150.05227,0.509525374 152.063744,1.25016131 153.999527,2.11423657 C153.999527,5.55154696 154.001419,8.98695827 153.997635,12.4242687 C152.413812,10.5308993 150.358816,8.89200495 147.895092,8.38685326 C145.747376,7.96905862 143.412326,8.30139526 141.531418,9.44843143 C139.406409,10.8328509 137.898277,13.1307214 137.464949,15.6374892 C137.042974,18.0758906 137.164079,20.7079968 138.301328,22.9450971 C139.571035,25.4195808 142.004483,27.3585277 144.799353,27.6927634 C146.877056,28.0288982 149.049372,27.5484343 150.818636,26.4146916 C152.027791,25.653166 153.077996,24.6618532 153.997635,23.5679909 C153.999527,27.0090994 153.999527,30.450208 153.997635,33.8894174 C152.058067,34.734502 150.057947,35.4998258 147.957537,35.820768 C146.040676,36.0942336 144.085971,36.0410598 142.176679,35.7543007 C135.49132,34.8807301 129.899688,29.2708877 128.512661,22.7286035 C127.70845,18.9342686 127.820093,14.8968532 129.063309,11.2088661 C130.766344,6.80113272 134.18566,3.0086969 138.549214,1.14951079 Z" id="Path"></path>
                    <path d="M174.181666,0.0988048326 C177.798115,-0.309432432 181.480046,0.571600549 184.673671,2.29379217 C186.928106,3.55078319 189.029126,5.19132737 190.505266,7.35593426 C192.696089,10.5363874 194.080555,14.3719189 193.996365,18.2853003 C193.970172,21.3689157 193.042206,24.3879727 191.605355,27.0861362 C190.067475,29.9096191 187.650273,32.1691649 184.870116,33.7033775 C181.487529,35.6819041 177.448257,36.3255898 173.597945,35.8508953 C169.738279,35.4027837 166.058219,33.5723618 163.306126,30.7925508 C161.141495,28.7228828 159.438976,26.0816827 158.714938,23.1347792 C157.757037,19.7967276 157.760779,16.1947457 158.731776,12.8604916 C159.693419,9.18065989 162.136814,6.06096768 165.068513,3.75964877 C167.715837,1.74884289 170.90385,0.49564943 174.181666,0.0988048326 L174.181666,0.0988048326 Z M174.048832,8.15342101 C171.745755,8.64710328 169.852404,10.3275218 168.651286,12.326935 C167.225661,14.7915488 167.017991,17.8011119 167.47262,20.571429 C167.876734,23.0151562 169.186364,25.3449568 171.249966,26.7177733 C173.526851,28.327937 176.606352,28.6146525 179.163872,27.5570331 C180.872003,26.8430926 182.273307,25.5025554 183.255529,23.932266 C184.600706,21.6898092 184.918759,18.9498726 184.638124,16.3770284 C184.308846,13.3598702 182.602585,10.4471448 179.945908,8.97749065 C178.179779,7.93696032 176.022631,7.71860085 174.048832,8.15342101 Z" id="Shape"></path>
                    <path d="M0,1.01106783 C2.98626311,0.990361676 5.97439966,1.0054207 8.96253622,1.00353832 C13.1965103,6.87844016 17.4211171,12.7571068 21.658838,18.6301262 C22.8110035,20.486151 23.7514704,22.4739422 24.6338605,24.47491 C24.3472242,22.0014653 24.1092974,19.520491 24.1149177,17.0301049 C24.1186646,11.687916 24.1130442,6.34572718 24.1167911,1.00353832 C27.0768261,1.00165594 30.036861,1.00165594 32.996896,1.00353832 C33.0006429,12.3335717 33.0006429,23.6654875 32.9987694,34.9955208 C30.0387345,34.9992856 27.0786995,34.9955208 24.120538,34.9992856 C19.9502609,29.2655621 15.789351,23.5243091 11.6209474,17.792468 C10.9034199,16.8249257 10.4912631,15.6842046 9.89550926,14.6470143 C9.34659138,13.6361773 8.92506742,12.5613394 8.44171994,11.518502 C8.67402648,13.9204164 8.9475487,16.318566 8.96066278,18.733657 C8.9569159,24.1549057 8.96066278,29.5761545 8.95878934,34.9955208 C5.97252622,34.9898737 2.98626311,35.016227 0,34.9823442 L0,1.01106783 Z" id="Path"></path>
                    <path d="M36,34.996235 C39.9058709,23.6637103 43.8023074,12.3293032 47.7157259,1.00054342 C51.5744245,1.0024259 55.4312362,0.998660946 59.2899348,1.00054342 C63.1939188,12.3330681 67.1016766,23.6637103 71,34.9981175 C67.9300232,34.996235 64.8581595,35 61.7881827,34.996235 C61.2240013,32.9857473 60.6466117,30.9790245 60.0843172,28.9685367 C55.6954014,28.9553593 51.3064855,28.9628893 46.9175697,28.9647717 C46.3458407,30.9752595 45.7816594,32.9895122 45.2061567,35 C42.1380667,34.9943526 39.0680899,35.0018825 36,34.996235 L36,34.996235 Z M52.2386112,11.3711213 C51.119683,15.0457206 50.0083023,18.7222025 48.8950348,22.3986843 C51.9650116,22.3968019 55.0349884,22.4005668 58.1049652,22.3968019 C56.5671465,17.1108003 54.7538412,11.8982154 53.508491,6.53314975 C53.2009273,8.1746716 52.7650547,9.78795626 52.2386112,11.3711213 Z" id="Shape"></path>
                    <path d="M203.238638,1.00564714 C206.294667,1.00188238 209.350696,1.00376476 212.406725,1.00564714 C213.69901,5.44429681 214.985661,9.88671123 216.276067,14.3272433 C216.740013,15.9856192 217.275334,17.6251713 217.667904,19.3042533 C218.073621,20.5447411 218.413597,21.8191117 218.526296,23.1254827 C218.652144,22.1541751 218.787383,21.1791028 219.136751,20.2586195 C220.996289,13.8378247 222.850192,7.41514761 224.730392,1 C227.782664,1.00752952 230.834937,1.00188238 233.887209,1.00376476 C235.59836,12.3338039 237.298241,23.6676079 239,34.9995294 C236.161856,34.9995294 233.323713,35.0014118 230.485569,34.997647 C229.807495,29.8851057 229.110638,24.7725643 228.440077,19.6581406 C228.130154,17.3597558 227.996793,15.0444297 227.711288,12.7441625 C227.615494,13.8171186 227.356286,14.8637213 227.098955,15.9065593 C226.800302,17.0491633 226.576782,18.2162383 226.116593,19.3080181 C224.589518,24.5335022 223.092496,29.7702806 221.574812,34.9995294 C219.523685,34.9995294 217.472558,34.9995294 215.421431,34.9995294 C213.997664,30.0771083 212.577653,25.1528049 211.153885,20.2285014 C210.532161,17.7908206 209.686916,15.3983169 209.395776,12.885341 C209.108393,15.467965 208.866089,18.0562361 208.56368,20.6388601 C207.923172,25.4257498 207.286421,30.2126396 206.644035,34.9995294 C203.76269,34.9995294 200.881345,34.9995294 198,34.9995294 C199.743082,23.6676079 201.4918,12.3375687 203.238638,1.00564714 Z" id="Path"></path>
                </g>
            </g>
        </g>
    </g>
</svg>