<?xml version="1.0" encoding="UTF-8"?>
<svg width="286px" height="277px" viewBox="0 0 286 277" version="1.1" xmlns="http://www.w3.org/2000/svg" xmlns:xlink="http://www.w3.org/1999/xlink">
    <!-- Generator: Sketch 55 (78076) - https://sketchapp.com -->
    <title>BS</title>
    <desc>Created with Sketch.</desc>
    <defs>
        <rect id="path-1" x="0" y="0" width="278" height="269" rx="19"></rect>
        <filter x="-2.5%" y="-1.9%" width="105.0%" height="105.2%" filterUnits="objectBoundingBox" id="filter-2">
            <feOffset dx="0" dy="2" in="SourceAlpha" result="shadowOffsetOuter1"></feOffset>
            <feGaussianBlur stdDeviation="2" in="shadowOffsetOuter1" result="shadowBlurOuter1"></feGaussianBlur>
            <feComposite in="shadowBlurOuter1" in2="SourceAlpha" operator="out" result="shadowBlurOuter1"></feComposite>
            <feColorMatrix values="0 0 0 0 0   0 0 0 0 0   0 0 0 0 0  0 0 0 0.5 0" type="matrix" in="shadowBlurOuter1"></feColorMatrix>
        </filter>
    </defs>
    <g id="Page-1" stroke="none" stroke-width="1" fill="none" fill-rule="evenodd">
        <g id="Custom-Preset-4" transform="translate(-1291.000000, -4411.000000)">
            <g id="BS" transform="translate(1295.000000, 4413.000000)">
                <g id="Rectangle">
                    <use fill="black" fill-opacity="1" filter="url(#filter-2)" xlink:href="#path-1"></use>
                    <use fill-opacity="0.3" fill="#5AC7D8" fill-rule="evenodd" xlink:href="#path-1"></use>
                </g>
                <g id="unnamed" transform="translate(33.000000, 28.000000)" fill-rule="nonzero">
                    <g id="#b11016ff" fill="#B11016">
                        <path d="M0,0 L213,0 L213,213 L0,213 L0,0 L0,0 Z M133.3167,21.8041 C127.7432,27.3918 124.1364,34.8042 122.972,42.6 C120.416,57.3325 125.7552,72.7111 135.5035,83.8084 C147.3605,97.483 161.525,108.9992 172.8424,123.1637 C176.6196,127.6012 179.7791,132.6706 181.3056,138.3435 C182.6333,143.7466 182.6191,149.881 179.5874,154.7374 C176.648,159.8494 170.4639,162.4693 164.7129,161.9936 C158.0176,161.5605 152.0323,157.6697 147.8007,152.6287 C139.3162,142.71 135.1627,130.0152 131.8612,117.6115 C128.8082,117.6399 125.7623,117.6257 122.7093,117.6399 C122.7022,135.184 122.7235,152.7281 122.7022,170.2722 C125.2156,170.2793 127.7361,170.2793 130.2495,170.2722 C132.8339,167.1482 135.4041,163.0373 139.9055,162.8101 C145.8553,163.8751 151.0525,167.3328 156.9029,168.7954 C165.856,171.2946 176.1013,170.2083 183.6557,164.5212 C193.5602,157.3005 198.7432,144.8968 198.7574,132.8268 C199.226,121.8005 196.3718,110.6748 190.635,101.246 C180.5388,85.1503 164.8194,73.8968 152.4725,59.7181 C147.609,53.9742 142.7171,48.0244 139.9552,40.9386 C137.8181,35.4929 138.7624,28.6627 143.0934,24.5376 C147.5522,20.1285 154.7942,19.525 160.3748,22.01 C165.3164,24.3814 169.0013,28.7337 171.749,33.3771 C177.1024,42.529 180.1057,52.8595 182.2499,63.1758 C185.2248,63.19 188.1997,63.19 191.1746,63.1758 C191.1107,46.5263 191.1675,29.8768 191.1462,13.2273 C188.8316,13.2202 186.517,13.2131 184.2095,13.206 C182.4132,16.1099 179.7365,19.0564 176.0871,19.1984 C169.7042,17.892 164.2301,13.7172 157.691,12.922 C148.7379,11.6156 139.4227,15.2011 133.3167,21.8041 L133.3167,21.8041 Z M13.9302,14.5124 C13.9231,16.9122 13.9373,19.3049 13.9373,21.6976 C16.2164,22.2017 18.6375,22.7342 20.4764,24.282 C22.4289,26.3055 22.7626,29.2946 22.8549,31.9713 C22.8549,71.4828 22.8478,110.9872 22.8549,150.4987 C22.7626,152.9979 22.5425,155.8024 20.7959,157.762 C19.0209,159.6932 16.3158,160.0127 13.9018,160.6233 C13.9373,162.9876 13.9302,165.359 13.9373,167.7233 C29.6567,167.7304 45.369,167.7304 61.0884,167.7233 C72.8105,167.3825 85.1716,165.1886 94.6359,157.7975 C102.311,152.0891 106.7627,142.8875 107.8632,133.5155 C109.4678,123.0927 107.2881,111.6688 100.1029,103.66 C91.5971,94.0821 78.8597,89.6943 66.527,87.7134 C77.5107,85.7538 88.4518,81.0181 95.921,72.4981 C102.7086,64.8443 105.2149,54.0026 103.5961,44.02 C102.524,35.4148 97.2913,27.6048 90.0706,22.9046 C80.5282,16.4933 68.7564,14.7751 57.5029,14.5053 C42.9763,14.5195 28.4568,14.5053 13.9302,14.5124 L13.9302,14.5124 Z M52.9802,180.1057 C50.7366,181.3482 52.9021,184.9408 55.0321,183.464 C57.0698,182.1718 55.0037,178.6928 52.9802,180.1057 L52.9802,180.1057 Z M111.6475,179.8217 C108.5306,181.3695 108.0762,185.7573 109.837,188.505 C111.9102,191.5722 115.3679,193.5673 116.9583,196.9966 C117.6399,198.1326 116.8021,199.3325 116.5465,200.4614 C112.6628,201.3134 111.0298,197.2096 110.2559,194.2063 C109.9151,194.2276 109.2335,194.2631 108.8927,194.2844 C108.8643,196.8972 108.8501,199.5029 108.9424,202.1157 C109.7589,201.7181 110.547,201.2637 111.3919,200.93 C113.1882,201.2353 115.1478,202.5488 116.9015,201.4057 C119.9261,199.8011 120.3876,195.6334 118.9889,192.7863 C117.1997,188.9736 112.8332,187.0566 111.3422,183.0735 C110.8026,181.1707 113.4367,179.9708 114.7289,181.2772 C116.8092,182.6404 116.0708,186.0555 118.4493,187.0069 C118.5842,184.458 118.5487,181.9091 118.5203,179.3602 C117.8387,179.6513 117.1571,179.9495 116.4755,180.2548 C114.9135,179.8217 113.2237,178.9413 111.6475,179.8217 L111.6475,179.8217 Z M158.8909,179.985 C159.4589,180.6524 160.0411,181.3056 160.6375,181.9659 C160.6659,183.9255 160.673,185.8922 160.744,187.8589 C159.5015,186.801 157.5632,186.2046 156.1787,187.3477 C153.857,189.5061 153.5091,192.9354 153.7647,195.9245 C153.9209,198.1965 154.8297,200.7099 157.0307,201.7465 C158.5075,202.3642 159.7429,201.0933 160.9215,200.433 C160.9144,200.7667 160.9073,201.427 160.9002,201.7607 C162.4906,201.5832 164.0952,201.4412 165.6927,201.2708 C165.2241,200.6673 164.7484,200.0709 164.2727,199.4887 C164.1662,192.8644 164.2656,186.2472 164.2301,179.63 C162.448,179.7081 160.6659,179.8075 158.8909,179.985 L158.8909,179.985 Z M192.8644,180.3826 C193.1981,180.7589 193.8797,181.5186 194.2205,181.902 C194.2631,183.89 194.2631,185.878 194.3838,187.8731 C192.3461,185.6863 188.8884,186.943 188.1642,189.6978 C187.1063,193.3046 186.7655,198.0119 189.4706,200.9939 C191.0539,202.6269 193.0916,201.5548 194.6252,200.4685 L194.6323,201.6471 C196.1588,201.5051 197.7563,201.6258 199.2189,201.0862 C198.7858,200.4756 198.3456,199.8863 197.8841,199.3183 C197.8131,192.7508 197.8912,186.1762 197.8415,179.6087 C196.244,179.9211 194.0501,179.2608 192.8644,180.3826 L192.8644,180.3826 Z M13.5113,179.8998 C14.058,180.9364 15.1159,181.8523 15.0023,183.1303 C15.0236,188.1287 15.0307,193.1271 15.0023,198.1255 C15.0733,199.3822 14.0864,200.3407 13.6036,201.427 C17.3453,201.2708 21.4207,202.1299 24.8642,200.2626 C27.2143,198.8781 27.4699,195.7754 26.767,193.404 C25.9931,191.3095 23.6785,190.5427 21.6763,190.1877 C23.4513,189.4777 25.5742,188.6683 26.2345,186.6874 C27.2001,184.6639 26.4262,181.8594 24.3246,180.8938 C21.0373,179.0691 17.0897,180.0844 13.5113,179.8998 L13.5113,179.8998 Z M124.1222,180.695 C124.0654,183.7622 122.0632,185.9916 120.3308,188.292 C120.7426,188.3488 121.5662,188.4553 121.978,188.505 C122.0206,192.1757 121.7508,195.8606 122.0845,199.5171 C122.2194,201.7394 125.2014,202.6411 126.8131,201.3063 C128.2615,200.3762 128.1479,198.4237 128.51,196.9469 L127.4592,196.8546 C127.1894,198.161 126.7847,199.4674 125.7268,200.3549 C125.2795,196.4002 125.5777,192.4171 125.4712,188.4553 C126.3232,188.4695 127.1823,188.4837 128.0414,188.505 C128.0627,188.15 128.1053,187.4329 128.1266,187.0779 C127.2462,187.0708 126.3658,187.0708 125.4854,187.0779 C125.4925,184.955 125.4854,182.8392 125.4996,180.7163 C125.1517,180.7163 124.4701,180.7021 124.1222,180.695 L124.1222,180.695 Z M28.4355,187.1489 C28.2651,188.0009 29.0603,188.6541 29.3514,189.3996 C29.4721,192.5591 29.2733,195.7186 29.4508,198.8781 C29.4721,200.2768 30.5229,201.7252 31.9713,201.8672 C33.5404,202.1654 34.7403,200.8945 35.9189,200.0851 C35.8976,200.504 35.855,201.3418 35.8337,201.7607 C37.4738,201.5903 39.1139,201.4554 40.754,201.2921 C40.2854,200.6673 39.8026,200.0638 39.3127,199.4674 C39.263,195.2997 39.2914,191.132 39.2985,186.9714 C37.6371,187.0211 35.9757,187.0637 34.3143,187.1134 C36.707,190.2587 35.5071,194.4264 35.6065,198.0758 C35.7272,199.3609 33.1215,200.7312 33.1002,198.7361 C32.8162,194.824 33.0789,190.8977 32.9866,186.9785 C31.4672,187.014 29.9478,187.0069 28.4355,187.1489 L28.4355,187.1489 Z M41.5421,191.5651 C42.3231,195.0867 46.5547,195.8393 48.2942,198.7219 C48.0954,199.1692 47.7049,200.0567 47.5061,200.4969 C44.5454,201.0152 43.1822,198.0261 42.7207,195.6405 C42.4154,195.6263 41.8048,195.605 41.5066,195.5908 C41.5066,197.735 41.5066,199.8721 41.535,202.0163 C42.6284,201.5406 43.7431,200.7454 44.9288,201.5051 C47.8185,202.9322 50.8786,199.4674 50.1828,196.6416 C49.5864,193.1271 45.2341,192.4313 43.6721,189.5913 C43.4662,188.079 44.8365,187.653 46.0151,188.1642 C47.499,189.4067 47.9676,191.4231 49.3095,192.7934 C49.5154,190.7273 49.4941,188.6541 49.4728,186.5809 C49.0539,186.7513 48.2019,187.085 47.7759,187.2554 C46.4837,186.9856 45.1773,186.7726 43.8709,186.6235 C42.5077,187.9015 41.0309,189.5203 41.5421,191.5651 L41.5421,191.5651 Z M51.3472,187.0992 C51.3685,187.3477 51.404,187.8305 51.4182,188.0719 C51.6241,188.3133 52.0288,188.8032 52.2347,189.0446 C52.6536,192.5023 52.2915,196.0239 52.4051,199.51 C51.8726,200.0567 51.3543,200.6105 50.836,201.1714 C53.0299,201.5335 55.2664,201.5051 57.4745,201.3134 C56.9775,200.6318 56.4663,199.9502 55.9551,199.2828 C55.8983,195.1364 55.948,190.99 55.9196,186.8436 C54.3931,186.9359 52.8737,187.0211 51.3472,187.0992 L51.3472,187.0992 Z M62.7356,188.3914 C62.7782,187.9796 62.8563,187.156 62.8989,186.7371 C61.2375,186.872 59.5832,187.0282 57.936,187.227 C58.4117,187.8447 58.8945,188.4553 59.3915,189.0588 C58.9797,193.1484 60.5701,197.7776 58.1064,201.4128 C60.208,201.4483 62.3309,201.5619 64.4183,201.2211 C63.9923,200.5537 63.4882,199.9289 63.0125,199.297 C62.9983,196.315 62.7995,193.3117 63.0906,190.3368 C63.0764,189.1511 64.3828,188.6257 65.391,188.7606 C66.0797,192.9425 65.5543,197.2167 65.7034,201.4412 C67.2654,201.4412 68.8203,201.4483 70.3823,201.4341 C68.1387,197.3374 70.148,192.5236 68.8771,188.2139 C67.6985,185.6792 64.2337,186.7229 62.7356,188.3914 L62.7356,188.3914 Z M73.3146,188.2494 C71.0852,191.0539 70.8296,195.1506 72.136,198.4024 C73.0377,200.9016 76.0765,202.7973 78.6254,201.4554 C80.8051,200.5324 81.3802,197.9835 81.6145,195.8677 C79.7685,196.5848 80.0383,199.2473 78.1213,199.8934 C75.3239,200.1632 75.2387,196.6345 75.0399,194.6536 C77.2196,194.6678 79.3993,194.682 81.579,194.6749 C81.3731,192.3887 81.3447,189.7972 79.6407,188.0435 C78.1142,186.0981 74.7488,186.2969 73.3146,188.2494 L73.3146,188.2494 Z M83.9362,187.5962 C81.8559,189.3925 82.3103,192.9496 84.4829,194.4832 C86.3502,196.2156 89.9428,197.2522 89.0127,200.4756 C85.8816,201.214 84.3338,198.2675 83.8439,195.6973 C83.5386,195.6618 82.928,195.5766 82.6227,195.534 C82.6298,197.7066 82.644,199.8792 82.6724,202.0518 C83.7942,201.498 84.9444,200.7383 86.1798,201.5548 C88.9914,202.8683 91.8598,199.5242 91.306,196.8049 C90.8658,193.7093 87.5146,192.5804 85.5266,190.6421 C84.7101,189.925 84.6036,189.0801 85.1929,188.1074 C88.1962,187.2199 88.7997,190.9758 90.1061,192.7721 C90.8871,190.7983 90.5179,188.6328 90.5818,186.5667 C90.17,186.7371 89.3464,187.0779 88.9346,187.2483 C87.2945,186.9643 85.2568,186.1407 83.9362,187.5962 L83.9362,187.5962 Z M93.9685,187.6246 C92.1296,189.1298 92.1651,192.1473 93.7839,193.7945 C95.2607,195.321 97.1351,196.386 98.903,197.5433 C98.9527,198.5444 98.9598,199.5384 98.9456,200.5395 C95.921,201.072 94.2525,198.2604 93.8691,195.6973 C93.5638,195.6405 92.9674,195.5411 92.6692,195.4914 C92.6195,197.6711 92.6266,199.8508 92.6692,202.0305 C93.7484,201.5335 94.856,200.7454 96.0417,201.498 C98.9527,202.9393 101.9986,199.4674 101.2957,196.6132 C100.7135,193.6383 97.4404,192.5378 95.4879,190.6137 C94.714,189.9037 94.6075,189.0659 95.1613,188.1003 C98.264,187.1631 98.7184,191.2101 100.4153,192.7792 C100.5999,190.777 100.5928,188.7677 100.6425,186.7584 C98.4983,187.8873 95.7506,185.6863 93.9685,187.6246 L93.9685,187.6246 Z M132.1523,186.8578 C130.4128,187.0779 128.2828,188.9878 129.3407,190.8196 C129.7738,192.1047 132.1594,192.2112 132.6919,190.9261 C133.0966,189.8256 132.3298,188.9026 131.8399,188.0009 C132.4505,188.0293 133.6717,188.079 134.2894,188.1074 C134.3959,189.4493 134.4669,190.7983 134.5237,192.1473 C132.7274,193.049 130.7465,193.8797 129.575,195.605 C128.2402,197.3374 128.155,200.3265 130.2921,201.4838 C131.8044,202.6624 133.4729,201.2211 134.7225,200.362 C135.9437,201.5477 137.8678,202.7689 139.1671,200.9229 C141.4675,201.8672 144.0306,201.3631 146.4446,201.3489 C145.9334,200.6318 145.4009,199.9289 144.8684,199.2402 C144.8329,196.6274 144.7335,194.0146 144.8755,191.4089 C145.0033,190.0457 145.8269,188.1429 147.5238,188.9452 C148.1202,193.0845 147.6587,197.2948 147.7865,201.4696 C149.4266,201.4554 151.0667,201.427 152.7068,201.3276 C152.2666,200.6886 151.8193,200.0567 151.372,199.4319 C151.1874,195.7612 151.4856,192.0408 150.9034,188.4056 C149.9662,185.6579 146.2813,186.6732 144.8187,188.4198 C144.7832,188.0009 144.7193,187.156 144.6838,186.7371 C143.1076,186.872 141.5314,187.0211 139.9623,187.1986 C140.438,187.8447 140.9208,188.4766 141.4178,189.1156 C141.1693,193.0561 142.2982,197.3161 140.4735,200.9797 C139.9694,199.936 139.7067,198.7787 139.4724,197.6498 C138.9683,198.4024 138.4855,199.1763 137.9956,199.936 C137.8678,196.2653 138.3577,192.5378 137.7045,188.9097 C137.172,186.4957 134.0764,186.5525 132.1523,186.8578 L132.1523,186.8578 Z M167.1766,191.4941 C168.3197,192.5023 169.5409,191.203 170.4781,190.5995 C170.0521,189.6836 169.6048,188.7677 169.1717,187.866 C171.9975,187.4613 172.0756,190.1948 171.8626,192.2041 C169.5977,193.1271 167.1837,194.398 166.2252,196.7978 C165.2738,198.6367 166.1613,201.2069 168.199,201.8317 C169.7468,202.2861 170.9538,201.0862 172.104,200.2626 C172.8708,200.9016 173.5453,201.8033 174.6032,201.9595 C176.6267,201.9098 178.068,199.0343 176.4847,197.6001 C176.2646,198.2107 175.8173,199.439 175.5972,200.0496 C174.7807,196.4002 175.6256,192.6372 175.0789,188.9665 C174.3121,186.4176 171.1313,186.4815 169.0297,186.943 C167.1766,187.3619 165.1389,190.0244 167.1766,191.4941 L167.1766,191.4941 Z M176.9462,187.2483 C177.5497,187.9157 178.1674,188.5618 178.8135,189.1937 C178.8561,192.3958 178.9697,195.605 178.8064,198.8 C178.3733,199.7159 177.7698,200.5253 177.2728,201.3986 C179.4383,201.4483 181.6109,201.4412 183.7835,201.4625 C183.8119,201.0933 183.8616,200.362 183.89,199.9928 C183.4924,199.9147 182.6972,199.7585 182.3067,199.6804 C182.2357,196.3008 182.0156,192.8502 183.109,189.5984 C184.0178,189.8256 185.0473,191.2882 185.9561,190.4007 C187.6388,189.6765 187.2128,186.588 185.2674,186.7371 C183.5066,186.4034 182.7469,188.2707 181.9943,189.4635 C182.044,188.7819 182.1505,187.4187 182.2002,186.7371 C180.4394,186.8578 178.6857,186.9998 176.9462,187.2483 Z" id="Shape"></path>
                        <path d="M52.7956,22.2656 C57.4319,21.1935 62.5013,21.9603 66.7045,24.1755 C70.1977,26.0002 72.136,29.7632 73.1087,33.4339 C75.0257,40.825 75.1748,48.5285 75.0399,56.1184 C74.6494,63.5592 73.9465,71.6603 69.2179,77.7663 C64.6384,83.5528 56.6793,84.7882 49.7284,84.4971 C49.9201,65.7886 49.7213,47.0659 49.8278,28.3574 C49.8846,26.0641 50.126,22.9756 52.7956,22.2656 Z" id="Path"></path>
                        <path d="M49.6787,91.2776 C57.723,91.2279 66.5909,93.5354 71.6035,100.2946 C76.467,106.9899 77.5888,115.5241 78.1781,123.5613 C78.3769,131.776 78.526,140.2534 75.6718,148.0847 C73.8968,153.3813 69.8072,158.0744 64.3331,159.6435 C60.9322,160.4742 57.2544,161.028 53.8748,159.8281 C51.8016,159.0116 50.5023,156.8887 50.2112,154.7374 C49.5083,150.2928 49.8988,145.7772 49.8065,141.2971 C49.7213,124.6192 49.9627,107.9413 49.6787,91.2776 Z" id="Path"></path>
                        <path d="M19.0919,180.8015 C20.0717,181.2701 21.4988,181.3198 21.9674,182.4771 C22.3224,184.2592 22.3579,186.1478 21.9177,187.9299 C21.4065,189.073 20.022,189.2434 19.028,189.7972 C18.9783,186.7939 18.9499,183.7977 19.0919,180.8015 Z" id="Path"></path>
                        <path d="M75.047,193.3117 C75.4588,191.5793 74.6849,187.7524 77.3474,188.0151 C77.8586,189.7191 78.0006,191.5012 78.2207,193.262 C77.1628,193.2762 76.1049,193.2904 75.047,193.3117 Z" id="Path"></path>
                        <path d="M157.5348,191.6929 C157.4993,190.4504 157.904,188.0719 159.6932,188.6541 C161.1629,189.9321 160.5168,192.0834 160.7014,193.8016 C160.5594,196.0807 161.312,198.8994 159.0471,200.3833 C156.7609,198.0616 157.6271,194.611 157.5348,191.6929 Z" id="Path"></path>
                        <path d="M191.6574,188.7606 C192.2325,188.7535 193.3898,188.7393 193.9649,188.7322 C194.3909,191.9769 194.3767,195.2713 194.1495,198.5231 C194.1282,199.8437 192.7295,200.2697 191.7568,199.5384 C190.8409,196.0168 191.1107,192.3106 191.6574,188.7606 Z" id="Path"></path>
                        <path d="M19.0067,190.5427 C20.0149,190.8977 21.0231,191.274 22.0242,191.6645 C22.8194,194.1921 23.4371,197.1102 21.939,199.51 C21.0728,199.9573 20.0717,199.9999 19.1345,200.1987 C18.9215,196.9824 18.9854,193.759 19.0067,190.5427 Z" id="Path"></path>
                        <path d="M133.3451,200.1419 C131.279,198.2391 132.1807,194.6465 134.4101,193.2478 C134.4811,195.5837 134.8716,198.1397 133.3451,200.1419 Z" id="Path"></path>
                        <path d="M169.5906,199.9502 C169.1859,197.451 169.3705,194.7104 171.7703,193.2833 C171.6709,195.5624 172.8282,199.3822 169.5906,199.9502 Z" id="Path"></path>
                    </g>
                    <g id="#ffffffff" transform="translate(14.000000, 12.000000)" fill="#FFFFFF">
                        <path d="M119.813817,9.71977612 C125.91916,3.12649254 135.233359,-0.453731343 144.185496,0.850746269 C150.723893,1.64477612 156.197405,5.81343284 162.579618,7.11791045 C166.228626,6.9761194 168.905038,4.03395522 170.701145,1.13432836 C173.008397,1.14141791 175.322748,1.14850746 177.637099,1.15559701 C177.658397,17.780597 177.601603,34.405597 177.665496,51.030597 C174.690916,51.0447761 171.716336,51.0447761 168.741756,51.030597 C166.597786,40.7294776 163.594809,30.4141791 158.241985,21.2757463 C155.49458,16.6391791 151.810076,12.2932836 146.869008,9.92537313 C141.289008,7.44402985 134.047786,8.04664179 129.589466,12.4492537 C125.258931,16.5682836 124.314733,23.3884328 126.451603,28.8261194 C129.213206,35.9014925 134.10458,41.8425373 138.967557,47.5779851 C151.31313,61.7358209 167.03084,72.9727612 177.125954,89.0447761 C182.862137,98.4597015 185.716031,109.56903 185.247481,120.579104 C185.233282,132.631343 180.05084,145.016791 170.147405,152.226866 C162.593817,157.905597 152.349618,158.990299 143.397481,156.494776 C137.54771,155.034328 132.351069,151.581716 126.401908,150.518284 C121.900992,150.745149 119.331069,154.85 116.746947,157.969403 C114.233817,157.976493 111.713588,157.976493 109.200458,157.969403 C109.221756,140.451119 109.200458,122.932836 109.207557,105.414552 C112.260229,105.400373 115.305802,105.414552 118.358473,105.386194 C121.659618,117.771642 125.812672,130.447761 134.29626,140.351866 C138.527405,145.385448 144.512061,149.270522 151.206641,149.702985 C156.957023,150.177985 163.140458,147.56194 166.079542,142.457463 C169.110916,137.608209 169.125115,131.482836 167.797557,126.087687 C166.271221,120.423134 163.112061,115.361194 159.335267,110.930224 C148.019084,96.7865672 133.856107,85.2873134 122.000382,71.6328358 C112.25313,60.5518657 106.914504,45.1958955 109.470229,30.4850746 C110.634504,22.7007463 114.240916,15.2992537 119.813817,9.71977612 Z" id="Path"></path>
                        <path d="M0.440152672,2.43880597 C14.9651908,2.43171642 29.4831298,2.44589552 44.0081679,2.43171642 C55.260458,2.7011194 67.0309924,4.41679104 76.5723664,10.8186567 C83.7922901,15.5119403 89.0244275,23.3104478 90.0964122,31.9029851 C91.7150382,41.8708955 89.2090076,52.6966418 82.4221374,60.3391791 C74.9537405,68.8466418 64.0138168,73.5753731 53.0312977,75.5320896 C65.3626718,77.5100746 78.0987023,81.8914179 86.6035878,91.4552239 C93.7880153,99.4522388 95.9674809,110.859328 94.3630534,121.266791 C93.2626718,130.625 88.8114504,139.81306 81.1371756,145.51306 C71.6738931,152.893284 59.3141221,155.083955 47.5932824,155.424254 C31.8755725,155.431343 16.1649618,155.431343 0.447251908,155.424254 C0.440152672,153.063433 0.447251908,150.695522 0.411755725,148.334701 C2.82549618,147.725 5.53030534,147.40597 7.3051145,145.477612 C9.05152672,143.520896 9.27160305,140.720522 9.36389313,138.225 C9.35679389,98.7716418 9.36389313,59.3253731 9.36389313,19.8720149 C9.27160305,17.1992537 8.93793893,14.2145522 6.98564885,12.1940299 C5.14694656,10.6485075 2.72610687,10.116791 0.447251908,9.61343284 C0.447251908,7.22425373 0.433053435,4.83507463 0.440152672,2.43880597 L0.440152672,2.43880597 Z M39.301374,10.180597 C36.6320611,10.8895522 36.390687,13.9735075 36.3338931,16.2634328 C36.2274046,34.944403 36.4261832,53.6395522 36.2345038,72.3205224 C43.1846565,72.611194 51.1429008,71.3776119 55.7219084,65.5996269 C60.45,59.5026119 61.1528244,51.4134328 61.5432824,43.9835821 C61.6781679,36.4048507 61.529084,28.7126866 59.6122901,21.3324627 C58.6396947,17.6671642 56.7016031,13.9097015 53.2087786,12.0876866 C49.0060305,9.87574627 43.9371756,9.11007463 39.301374,10.180597 L39.301374,10.180597 Z M36.1848092,79.0910448 C36.4687786,95.7302239 36.2274046,112.383582 36.3125954,129.03694 C36.4048855,133.510448 36.0144275,138.019403 36.7172519,142.457463 C37.0083206,144.605597 38.3074809,146.725373 40.380458,147.540672 C43.7596947,148.738806 47.4370992,148.185821 50.8376336,147.356343 C56.311145,145.789552 60.4003053,141.103358 62.1751145,135.814552 C65.0290076,127.994776 64.8799237,119.529851 64.681145,111.327239 C64.0919084,103.301866 62.970229,94.7802239 58.1072519,88.0947761 C53.0951908,81.3455224 44.2282443,79.0414179 36.1848092,79.0910448 Z" id="Shape"></path>
                        <path d="M39.4859542,167.788433 C41.5092366,166.377612 43.5751145,169.851493 41.5376336,171.141791 C39.4078626,172.616418 37.2425954,169.029104 39.4859542,167.788433 Z" id="Path"></path>
                        <path d="M98.1469466,167.504851 C99.7229771,166.625746 101.412595,167.504851 102.974427,167.937313 C103.655954,167.632463 104.337481,167.334701 105.019008,167.04403 C105.047405,169.589179 105.082901,172.134328 104.948015,174.679478 C102.569771,173.729478 103.308092,170.319403 101.228015,168.958209 C99.9359542,167.653731 97.3021374,168.851866 97.8416794,170.751866 C99.3325191,174.729104 103.69855,176.643284 105.487557,180.450373 C106.886107,183.293284 106.424656,187.454851 103.400382,189.05709 C101.64687,190.198507 99.6874809,188.88694 97.891374,188.58209 C97.0465649,188.915299 96.2585496,189.36903 95.4421374,189.766045 C95.3498473,187.15709 95.3640458,184.555224 95.3924427,181.946269 C95.7332061,181.925 96.4147328,181.889552 96.7554962,181.868284 C97.529313,184.867164 99.1621374,188.964925 103.04542,188.114179 C103.300992,186.98694 104.138702,185.788806 103.457176,184.654478 C101.866947,181.230224 98.4096183,179.23806 96.3366412,176.175373 C94.5760305,173.431716 95.0303817,169.050373 98.1469466,167.504851 Z" id="Path"></path>
                        <path d="M145.385267,167.66791 C147.160076,167.490672 148.941985,167.391418 150.723893,167.313433 C150.759389,173.920896 150.66,180.528358 150.766489,187.14291 C151.242137,187.724254 151.717786,188.319776 152.186336,188.922388 C150.589008,189.092537 148.98458,189.234328 147.394351,189.411567 C147.40145,189.078358 147.40855,188.41903 147.415649,188.085821 C146.237176,188.745149 145.001908,190.014179 143.525267,189.397388 C141.324504,188.362313 140.415802,185.852612 140.259618,183.583955 C140.004046,180.599254 140.351908,177.175 142.673359,175.019776 C144.05771,173.878358 145.995802,174.473881 147.238168,175.530224 C147.167176,173.566418 147.160076,171.602612 147.131679,169.645896 C146.535344,168.986567 145.953206,168.334328 145.385267,167.66791 L145.385267,167.66791 Z M144.029313,179.358582 C144.121603,182.272388 143.255496,185.71791 145.54145,188.036194 C147.806107,186.554478 147.053588,183.739925 147.195573,181.464179 C147.010992,179.748507 147.657023,177.600373 146.187481,176.324254 C144.398473,175.74291 143.993817,178.11791 144.029313,179.358582 Z" id="Shape"></path>
                        <path d="M179.355115,168.064925 C180.540687,166.944776 182.734351,167.604104 184.331679,167.292164 C184.381374,173.85 184.303282,180.414925 184.374275,186.972761 C184.835725,187.539925 185.275878,188.128358 185.708931,188.73806 C184.246489,189.276866 182.64916,189.156343 181.122824,189.298134 L181.115725,188.121269 C179.58229,189.20597 177.544809,190.276493 175.961679,188.645896 C173.25687,185.668284 173.597634,180.96791 174.65542,177.366418 C175.379542,174.615672 178.83687,173.360821 180.874351,175.544403 C180.753664,173.552239 180.753664,171.567164 180.711069,169.58209 C180.370305,169.199254 179.688779,168.440672 179.355115,168.064925 L179.355115,168.064925 Z M178.148244,176.430597 C177.601603,179.975373 177.331832,183.676119 178.247634,187.192537 C179.220229,187.922761 180.618779,187.497388 180.640076,186.178731 C180.867252,182.931716 180.88145,179.642164 180.455496,176.402239 C179.880458,176.409328 178.723282,176.423507 178.148244,176.430597 Z" id="Shape"></path>
                        <path d="M0.0212977099,167.582836 C3.59931298,167.767164 7.54648855,166.753358 10.8334351,168.575373 C12.9348092,169.539552 13.708626,172.339925 12.7431298,174.360448 C12.0829008,176.338433 9.96022901,177.146642 8.18541985,177.855597 C10.1874046,178.210075 12.5017557,178.975746 13.2755725,181.067164 C13.9783969,183.435075 13.7228244,186.533209 11.3729771,187.915672 C7.92984733,189.780224 3.8548855,188.922388 0.113587786,189.078358 C0.596335878,187.993657 1.58312977,187.036567 1.5121374,185.781716 C1.54053435,180.790672 1.53343511,175.799627 1.5121374,170.808582 C1.62572519,169.532463 0.567938931,168.61791 0.0212977099,167.582836 L0.0212977099,167.582836 Z M5.60129771,168.483209 C5.45931298,171.475 5.48770992,174.466791 5.53740458,177.465672 C6.53129771,176.912687 7.91564885,176.742537 8.42679389,175.601119 C8.86694656,173.821642 8.83145038,171.935821 8.47648855,170.156343 C8.00793893,169.000746 6.58099237,168.951119 5.60129771,168.483209 L5.60129771,168.483209 Z M5.51610687,178.210075 C5.49480916,181.421642 5.43091603,184.640299 5.64389313,187.851866 C6.58099237,187.653358 7.58198473,187.610821 8.4480916,187.164179 C9.94603053,184.76791 9.32839695,181.854104 8.53328244,179.330224 C7.53229008,178.940299 6.52419847,178.564552 5.51610687,178.210075 Z" id="Shape"></path>
                        <path d="M110.620305,168.376866 C110.968168,168.383955 111.649695,168.398134 111.997557,168.398134 C111.983359,170.51791 111.990458,172.630597 111.983359,174.750373 C112.863664,174.743284 113.743969,174.743284 114.624275,174.750373 C114.602977,175.104851 114.560382,175.820896 114.539084,176.175373 C113.680076,176.154104 112.821069,176.139925 111.96916,176.125746 C112.075649,180.081716 111.777481,184.058955 112.224733,188.007836 C113.282519,187.121642 113.687176,185.817164 113.956947,184.512687 L115.007634,184.604851 C114.645573,186.079478 114.75916,188.029104 113.310916,188.957836 C111.699389,190.290672 108.71771,189.390299 108.582824,187.171269 C108.24916,183.520149 108.518931,179.840672 108.476336,176.175373 C108.06458,176.125746 107.241069,176.019403 106.829313,175.962687 C108.561527,173.665672 110.563511,171.439552 110.620305,168.376866 Z" id="Path"></path>
                        <path d="M14.9438931,174.821269 C16.4560305,174.679478 17.9752672,174.686567 19.4945038,174.651119 C19.5867939,178.564552 19.3241221,182.485075 19.6080916,186.391418 C19.6293893,188.383582 22.2348092,187.015299 22.1141221,185.73209 C22.0147328,182.08806 23.2145038,177.926493 20.8220611,174.785821 C22.4832824,174.736194 24.1445038,174.693657 25.8057252,174.64403 C25.798626,178.798507 25.770229,182.960075 25.8199237,187.121642 C26.309771,187.717164 26.7925191,188.319776 27.2610687,188.943657 C25.621145,189.106716 23.9812214,189.241418 22.3412977,189.411567 C22.3625954,188.993284 22.4051908,188.156716 22.4264885,187.738433 C21.2480153,188.546642 20.0482443,189.815672 18.479313,189.51791 C17.0310687,189.376119 15.9803817,187.929851 15.959084,186.533209 C15.7816031,183.378358 15.9803817,180.223507 15.8596947,177.068657 C15.568626,176.324254 14.7735115,175.672015 14.9438931,174.821269 Z" id="Path"></path>
                        <path d="M28.049084,179.23097 C27.5379389,177.189179 29.0145802,175.572761 30.3776336,174.296642 C31.6838931,174.445522 32.9901527,174.658209 34.2822137,174.927612 C34.7081679,174.757463 35.5600763,174.424254 35.9789313,174.254104 C36.000229,176.324254 36.0215267,178.394403 35.8156489,180.457463 C34.4738931,179.089179 34.0053435,177.075746 32.5216031,175.835075 C31.3431298,175.324627 29.9729771,175.75 30.178855,177.260075 C31.740687,180.095896 36.0925191,180.790672 36.688855,184.3 C37.3845802,187.121642 34.3248092,190.581343 31.4354198,189.156343 C30.2498473,188.397761 29.1352672,189.191791 28.0419847,189.666791 C28.0135878,187.525746 28.0135878,185.391791 28.0135878,183.250746 C28.3117557,183.264925 28.9222901,183.286194 29.2275573,183.300373 C29.6890076,185.682463 31.0520611,188.667164 34.0124427,188.149627 C34.2112214,187.710075 34.6016794,186.823881 34.800458,186.377239 C33.061145,183.498881 28.83,182.747388 28.049084,179.23097 Z" id="Path"></path>
                        <path d="M37.8531298,174.771642 C39.3794656,174.693657 40.8987023,174.608582 42.4250382,174.516418 C42.4534351,178.656716 42.4037405,182.797015 42.4605344,186.937313 C42.9716794,187.603731 43.4828244,188.284328 43.979771,188.964925 C41.7719084,189.156343 39.5356489,189.184701 37.3419847,188.823134 C37.860229,188.26306 38.3784733,187.710075 38.910916,187.164179 C38.7973282,183.683209 39.1593893,180.166791 38.7405344,176.714179 C38.5346565,176.473134 38.13,175.983955 37.9241221,175.74291 C37.9099237,175.501866 37.8744275,175.019776 37.8531298,174.771642 Z" id="Path"></path>
                        <path d="M49.2403053,176.06194 C50.7382443,174.395896 54.2026718,173.353731 55.381145,175.884701 C56.6519084,180.18806 54.6428244,184.994776 56.8861832,189.085448 C55.3243511,189.099627 53.7696183,189.092537 52.2077863,189.092537 C52.0587023,184.874254 52.5840458,180.606343 51.8954198,176.430597 C50.8873282,176.295896 49.5810687,176.820522 49.5952672,178.004478 C49.3041985,180.975 49.5029771,183.973881 49.5171756,186.951493 C49.9928244,187.582463 50.4968702,188.206343 50.9228244,188.872761 C48.8356489,189.21306 46.7129771,189.099627 44.6116031,189.064179 C47.0750382,185.434328 45.4848092,180.81194 45.8965649,176.728358 C45.3996183,176.125746 44.9168702,175.516045 44.4412214,174.899254 C46.0882443,174.700746 47.7423664,174.544776 49.4035878,174.410075 C49.3609924,174.828358 49.2829008,175.650746 49.2403053,176.06194 Z" id="Path"></path>
                        <path d="M59.8181679,175.920149 C61.2522137,173.970522 64.6172519,173.772015 66.1435878,175.714552 C67.8474046,177.465672 67.8758015,180.053358 68.0816794,182.336194 C65.9022137,182.343284 63.7227481,182.329104 61.5432824,182.314925 C61.7420611,184.29291 61.8272519,187.816418 64.6243511,187.547015 C66.541145,186.901866 66.271374,184.243284 68.1171756,183.527239 C67.8829008,185.639925 67.3078626,188.185075 65.1283969,189.106716 C62.579771,190.446642 59.5412977,188.553731 58.6396947,186.058209 C57.3334351,182.811194 57.5890076,178.720522 59.8181679,175.920149 L59.8181679,175.920149 Z M61.5503817,180.975 C62.6081679,180.953731 63.6659542,180.939552 64.7237405,180.925373 C64.5036641,179.167164 64.3616794,177.387687 63.8505344,175.686194 C61.1883206,175.423881 61.9621374,179.245149 61.5503817,180.975 Z" id="Shape"></path>
                        <path d="M70.438626,175.26791 C71.759084,173.814552 73.7965649,174.63694 75.4364885,174.920522 C75.8482443,174.750373 76.6717557,174.410075 77.0835115,174.239925 C77.0196183,176.302985 77.3887786,178.465299 76.6078626,180.436194 C75.3016031,178.642537 74.6981679,174.892164 71.6951908,175.778358 C71.1059542,176.749627 71.2124427,177.593284 72.028855,178.309328 C74.0166412,180.244776 77.3674809,181.372015 77.8076336,184.46306 C78.361374,187.178358 75.4932824,190.517537 72.6819847,189.20597 C71.4467176,188.390672 70.2966412,189.149254 69.1749618,189.702239 C69.1465649,187.532836 69.1323664,185.363433 69.1252672,183.19403 C69.4305344,183.236567 70.0410687,183.321642 70.3463359,183.35709 C70.8361832,185.923507 72.3838168,188.865672 75.5145802,188.128358 C76.4445802,184.909701 72.8523664,183.874627 70.9852672,182.144776 C68.8129008,180.613433 68.3585496,177.061567 70.438626,175.26791 Z" id="Path"></path>
                        <path d="M80.4698473,175.296269 C82.2517557,173.360821 84.9991603,175.558582 87.1431298,174.431343 C87.0934351,176.437687 87.1005344,178.44403 86.9159542,180.443284 C85.2192366,178.876493 84.7648855,174.835448 81.6625191,175.771269 C81.1087786,176.735448 81.2152672,177.572015 81.989084,178.28097 C83.941374,180.202239 87.2141221,181.301119 87.7962595,184.271642 C88.499084,187.121642 85.4535115,190.588433 82.5428244,189.149254 C81.3572519,188.397761 80.249771,189.184701 79.170687,189.68097 C79.1280916,187.504478 79.1209924,185.327985 79.170687,183.151493 C79.468855,183.201119 80.0651908,183.300373 80.370458,183.35709 C80.7538168,185.916418 82.4221374,188.723881 85.4464122,188.192164 C85.4606107,187.192537 85.4535115,186.2 85.4038168,185.200373 C83.6361069,184.044776 81.7619084,182.981343 80.2852672,181.45709 C78.6666412,179.812313 78.631145,176.799254 80.4698473,175.296269 Z" id="Path"></path>
                        <path d="M118.649542,174.530597 C120.573435,174.225746 123.668702,174.16903 124.201145,176.579478 C124.854275,180.202239 124.364427,183.924254 124.492214,187.589552 C124.982061,186.83097 125.464809,186.058209 125.968855,185.306716 C126.20313,186.433955 126.465802,187.589552 126.969847,188.631716 C128.794351,184.973507 127.665573,180.719776 127.914046,176.785075 C127.417099,176.147015 126.934351,175.516045 126.458702,174.870896 C128.027634,174.693657 129.603664,174.544776 131.179695,174.410075 C131.215191,174.828358 131.279084,175.672015 131.31458,176.090299 C132.777023,174.346269 136.461527,173.332463 137.398626,176.076119 C137.980763,179.70597 137.682595,183.420896 137.867176,187.086194 C138.314427,187.710075 138.761679,188.341045 139.201832,188.979104 C137.561908,189.078358 135.921985,189.106716 134.282061,189.120896 C134.154275,184.952239 134.615725,180.748134 134.019389,176.614925 C132.322672,175.813806 131.49916,177.713806 131.371374,179.075 C131.229389,181.676866 131.328779,184.285821 131.364275,186.894776 C131.896718,187.582463 132.42916,188.284328 132.940305,189.000373 C130.526565,189.014552 127.96374,189.51791 125.663588,188.575 C124.364427,190.418284 122.440534,189.198881 121.219466,188.014925 C119.97,188.872761 118.301679,190.31194 116.789542,189.135075 C114.652672,187.979478 114.737863,184.994776 116.072519,183.264925 C117.243893,181.542164 119.22458,180.712687 121.020687,179.812313 C120.963893,178.465299 120.892901,177.118284 120.786412,175.778358 C120.168779,175.75 118.94771,175.700373 118.337176,175.672015 C118.827023,176.572388 119.59374,177.49403 119.189084,178.59291 C118.656641,179.876119 116.271298,179.769776 115.838244,178.486567 C114.780458,176.657463 116.910229,174.750373 118.649542,174.530597 L118.649542,174.530597 Z M119.842214,187.795149 C121.36855,185.795896 120.978092,183.243657 120.907099,180.911194 C118.677939,182.307836 117.776336,185.895149 119.842214,187.795149 Z" id="Shape"></path>
                        <path d="M153.670076,179.160075 C151.632595,177.692537 153.670076,175.033955 155.522977,174.615672 C157.624351,174.154851 160.804809,174.091045 161.571527,176.636194 C162.118168,180.301493 161.273359,184.058955 162.089771,187.702985 C162.309847,187.093284 162.757099,185.866791 162.977176,185.25709 C164.560305,186.689179 163.11916,189.560448 161.095878,189.610075 C160.038092,189.454104 159.363664,188.553731 158.596947,187.915672 C157.44687,188.73806 156.24,189.936194 154.692366,189.482463 C152.654885,188.858582 151.767481,186.292164 152.718779,184.45597 C153.677176,182.059701 156.090916,180.790672 158.355573,179.86903 C158.56855,177.862687 158.490458,175.133209 155.664962,175.537313 C156.098015,176.437687 156.545267,177.352239 156.971221,178.266791 C156.034122,178.869403 154.813053,180.166791 153.670076,179.160075 L153.670076,179.160075 Z M156.083817,187.603731 C159.321069,187.036567 158.163893,183.222388 158.263282,180.946642 C155.86374,182.371642 155.67916,185.108209 156.083817,187.603731 Z" id="Shape"></path>
                        <path d="M163.438626,174.920522 C165.177939,174.672388 166.93145,174.530597 168.692061,174.410075 C168.642366,175.090672 168.535878,176.451866 168.486183,177.132463 C169.238702,175.941418 169.998321,174.076866 171.758931,174.410075 C173.704122,174.261194 174.130076,177.345149 172.447557,178.068284 C171.538855,178.954478 170.509466,177.49403 169.600763,177.267164 C168.507481,180.514179 168.727557,183.959701 168.79855,187.334328 C169.189008,187.412313 169.984122,187.568284 170.381679,187.646269 C170.353282,188.014925 170.303588,188.745149 170.275191,189.113806 C168.102824,189.092537 165.930458,189.099627 163.765191,189.05 C164.262137,188.177985 164.865573,187.369776 165.298626,186.455224 C165.461908,183.264925 165.348321,180.060448 165.305725,176.86306 C164.659695,176.23209 164.042061,175.58694 163.438626,174.920522 Z" id="Path"></path>
                    </g>
                </g>
            </g>
        </g>
    </g>
</svg>