<?xml version="1.0" encoding="UTF-8"?>
<svg width="286px" height="277px" viewBox="0 0 286 277" version="1.1" xmlns="http://www.w3.org/2000/svg" xmlns:xlink="http://www.w3.org/1999/xlink">
    <!-- Generator: Sketch 55 (78076) - https://sketchapp.com -->
    <title>Inc42</title>
    <desc>Created with Sketch.</desc>
    <defs>
        <rect id="path-1" x="0" y="0" width="278" height="269" rx="19"></rect>
        <filter x="-2.5%" y="-1.9%" width="105.0%" height="105.2%" filterUnits="objectBoundingBox" id="filter-2">
            <feOffset dx="0" dy="2" in="SourceAlpha" result="shadowOffsetOuter1"></feOffset>
            <feGaussianBlur stdDeviation="2" in="shadowOffsetOuter1" result="shadowBlurOuter1"></feGaussianBlur>
            <feComposite in="shadowBlurOuter1" in2="SourceAlpha" operator="out" result="shadowBlurOuter1"></feComposite>
            <feColorMatrix values="0 0 0 0 0   0 0 0 0 0   0 0 0 0 0  0 0 0 0.5 0" type="matrix" in="shadowBlurOuter1"></feColorMatrix>
        </filter>
    </defs>
    <g id="Page-1" stroke="none" stroke-width="1" fill="none" fill-rule="evenodd">
        <g id="Custom-Preset-4" transform="translate(-956.000000, -4107.000000)">
            <g id="Inc42" transform="translate(960.000000, 4109.000000)">
                <g id="Rectangle">
                    <use fill="black" fill-opacity="1" filter="url(#filter-2)" xlink:href="#path-1"></use>
                    <use fill-opacity="0.3" fill="#EC4D62" fill-rule="evenodd" xlink:href="#path-1"></use>
                </g>
                <g id="osbt0wkcrzgly1sjchyo" transform="translate(30.000000, 104.000000)" fill-rule="nonzero">
                    <g id="#030706ff" fill="#030706">
                        <path d="M0.975042735,0.105902778 C8.45764786,0.105902778 15.940253,0.09721875 23.4228581,0.105902778 C23.4228581,3.31030903 23.4228581,6.51471528 23.4228581,9.71912153 C21.6325949,9.71912153 19.8510222,9.71912153 18.060759,9.71912153 C18.0868308,23.5701458 18.0868308,37.4298542 18.060759,51.2808785 C20.2160274,51.2808785 22.3712957,51.2808785 24.5265641,51.2895625 C24.5178735,54.4852847 24.5178735,57.689691 24.5265641,60.8940972 C16.3574017,60.9201493 8.17954872,60.833309 0.0103863248,60.9375174 C0.0016957265,57.7244271 0.0016957265,54.5026528 0.0103863248,51.2895625 C2.12220171,51.2808785 4.23401709,51.2808785 6.34583248,51.2808785 C6.32845128,37.4298542 6.32845128,23.5701458 6.34583248,9.71912153 C4.55556923,9.71912153 2.76530598,9.71912153 0.975042735,9.71912153 C0.975042735,6.51471528 0.975042735,3.31030903 0.975042735,0.105902778 Z" id="Path"></path>
                        <path d="M46.4529436,19.2455 C52.7014838,15.8934653 60.6012376,14.7819097 67.1452581,17.9602639 C71.5253197,20.3223194 73.4111795,25.4632639 73.5328479,30.2047431 C73.6718974,37.2214375 73.6110632,44.2555 73.6632068,51.2808785 C75.7924034,51.2808785 77.9216,51.2808785 80.0594872,51.2808785 C80.0594872,54.4852847 80.0594872,57.689691 80.0594872,60.8940972 C73.9760684,60.8940972 67.8926496,60.8940972 61.8092308,60.8940972 C61.8005402,51.6369236 61.8179214,42.37975 61.8092308,33.1312604 C61.8179214,31.0384097 61.5398222,28.6676701 59.9928957,27.1219132 C56.4905846,24.6903854 51.8411145,25.810625 47.9998701,26.7745521 C47.9998701,34.9462222 48.0346325,43.1265764 47.9824889,51.2982465 C49.7814427,51.2808785 51.5803966,51.2808785 53.388041,51.2895625 C53.388041,54.4852847 53.388041,57.689691 53.388041,60.8940972 C45.8967453,60.8940972 38.4054496,60.9027812 30.9141538,60.8854132 C30.9141538,57.6810069 30.9141538,54.4766007 30.9141538,51.2721944 C32.6957265,51.2808785 34.4772991,51.2808785 36.2588718,51.2895625 C36.1980376,43.1092083 36.2675624,34.9288542 36.2241094,26.7485 C34.0862222,26.7485 31.948335,26.739816 29.8104479,26.739816 C29.7930667,23.5527778 29.8017573,20.3570556 29.7930667,17.1700174 C34.9465915,17.1439653 40.0914256,17.2221215 45.2449504,17.1265972 C45.5491214,17.6563229 46.1487726,18.7157743 46.4529436,19.2455 Z" id="Path"></path>
                        <path d="M90.5924923,20.2354792 C93.973135,17.378434 98.5009368,16.5795035 102.776711,16.1974063 C109.459781,15.806625 116.142851,16.6663438 122.712944,17.8386875 C122.695562,22.7625313 122.686872,27.686375 122.721634,32.6102188 C118.819556,32.6102188 114.926168,32.6189028 111.024089,32.6015347 C110.963255,30.3697396 110.963255,28.1379444 110.971945,25.8974653 C107.313203,25.6716806 103.002667,25.2374792 100.030482,27.8513715 C97.3363966,30.2655313 97.0409162,34.1299236 97.1017504,37.5166944 C97.2234188,40.6603125 96.6498393,44.1165556 98.4140308,46.9214965 C100.186913,49.8045938 103.663152,51.0203576 106.896055,51.2287743 C112.536253,51.437191 118.202523,51.1853542 123.781887,50.2822153 C123.781887,53.2868889 123.781887,56.3002465 123.781887,59.3136042 C115.551891,60.8506771 107.035104,61.5540833 98.7268923,60.2601632 C93.9470632,59.4872847 88.7674667,57.1947014 86.8294632,52.4271701 C84.4134769,46.5915035 85.6562325,40.1132188 85.4042051,33.9822951 C85.1956308,29.0063472 86.4210051,23.4051493 90.5924923,20.2354792 Z" id="Path"></path>
                    </g>
                    <g id="#ee2738ff" transform="translate(135.000000, 0.000000)" fill="#EE2738">
                        <path d="M0.699475806,33.3373592 C7.94165611,22.1679155 15.463053,11.1724507 22.8535671,0.0986954225 C35.4968433,0.203082746 48.1401195,-0.066584507 60.7833957,0.246577465 C54.2218059,0.82940669 48.2186492,4.88311444 45.0600115,10.6070194 C42.6430429,15.2348574 42.2852967,20.6803961 43.2538292,25.7431813 C46.7614876,25.7344824 50.2778715,25.7257835 53.7942555,25.7431813 C53.0002333,22.1070229 52.6948401,18.1055088 54.527199,14.7042218 C57.1535801,8.83243486 66.6033165,7.83205634 70.3378384,13.1036162 C72.3359821,16.7745704 72.990396,21.5067958 71.0184289,25.325632 C68.8108727,29.0748768 64.5353687,30.7015792 60.7397681,32.3543785 C54.5621011,34.9205669 48.5763954,38.7741989 45.0861881,44.628588 C42.0671587,49.5173944 41.2033324,55.3543856 41.046273,61 C37.6607719,61 34.2665452,61 30.8810441,60.9913011 C30.8199654,43.8021884 30.9944758,26.6043768 30.7937889,9.40656514 C24.1187673,18.9058116 18.1330616,28.8661021 11.6412759,38.4871338 C15.91678,38.5480264 20.192284,38.5132306 24.467788,38.5045317 C24.5463177,41.7231408 24.5201411,44.9330511 24.5201411,48.1516602 C16.4577621,48.3169401 8.39538306,48.1429613 0.333004032,48.2734454 C0.586044067,43.3150475 -0.155625,38.1913697 0.699475806,33.3373592 Z" id="Path"></path>
                        <path d="M82.920036,21.7242694 C82.7455256,31.6149683 82.8764084,41.5143662 82.8415063,51.4137641 C73.8454968,51.3789683 64.8407618,51.3702694 55.8447523,51.4137641 C56.1675965,48.9171673 57.5375029,46.638044 59.8497653,45.5071813 C66.6033165,42.0710986 74.0287327,39.0264683 78.8277679,32.8763151 C81.4105213,29.7272975 82.3179752,25.647493 82.920036,21.7242694 Z" id="Path"></path>
                    </g>
                </g>
            </g>
        </g>
    </g>
</svg>