<?xml version="1.0" encoding="UTF-8"?>
<svg width="286px" height="277px" viewBox="0 0 286 277" version="1.1" xmlns="http://www.w3.org/2000/svg" xmlns:xlink="http://www.w3.org/1999/xlink">
    <!-- Generator: Sketch 55 (78076) - https://sketchapp.com -->
    <title>PB</title>
    <desc>Created with Sketch.</desc>
    <defs>
        <rect id="path-1" x="0" y="0" width="278" height="269" rx="19"></rect>
        <filter x="-2.5%" y="-1.9%" width="105.0%" height="105.2%" filterUnits="objectBoundingBox" id="filter-2">
            <feOffset dx="0" dy="2" in="SourceAlpha" result="shadowOffsetOuter1"></feOffset>
            <feGaussianBlur stdDeviation="2" in="shadowOffsetOuter1" result="shadowBlurOuter1"></feGaussianBlur>
            <feComposite in="shadowBlurOuter1" in2="SourceAlpha" operator="out" result="shadowBlurOuter1"></feComposite>
            <feColorMatrix values="0 0 0 0 0   0 0 0 0 0   0 0 0 0 0  0 0 0 0.5 0" type="matrix" in="shadowBlurOuter1"></feColorMatrix>
        </filter>
    </defs>
    <g id="Page-1" stroke="none" stroke-width="1" fill="none" fill-rule="evenodd">
        <g id="Custom-Preset-4" transform="translate(-956.000000, -4411.000000)">
            <g id="PB" transform="translate(960.000000, 4413.000000)">
                <g id="Rectangle">
                    <use fill="black" fill-opacity="1" filter="url(#filter-2)" xlink:href="#path-1"></use>
                    <use fill-opacity="0.3" fill="#EC4D62" fill-rule="evenodd" xlink:href="#path-1"></use>
                </g>
                <g id="p47522th_S" transform="translate(21.000000, 121.000000)" fill-rule="nonzero">
                    <g id="#ed1c25ff" fill="#ED1C25">
                        <path d="M48.550757,3.3487013 C49.4132271,2.40194805 50.1144223,1.32545455 50.8471713,0.277012987 C53.1365737,7.65116883 55.3313147,15.0533766 57.5400797,22.4520779 C57.8275697,23.4338961 58.1851793,24.3911688 58.5568127,25.3449351 C59.0721912,25.5167532 59.5735458,25.7201299 60.0924303,25.8849351 C60.0749004,26.1864935 60.0538645,26.4880519 60.0363347,26.7931169 C57.5330677,26.8141558 55.0298008,26.8036364 52.5265339,26.8071429 C52.505498,26.481039 52.4809562,26.1584416 52.4599203,25.8358442 C53.1891633,25.664026 53.9113944,25.4746753 54.6406375,25.3063636 C54.8790438,22.4976623 53.389004,19.9379221 52.8736255,17.2344156 C50.6227888,17.1502597 48.3719522,17.1327273 46.1246215,17.2133766 C45.5671713,19.5627273 44.6030279,21.8209091 44.3050199,24.2228571 C44.150757,25.4080519 45.7109163,25.5202597 46.5137849,25.9024675 C46.499761,26.204026 46.489243,26.5055844 46.4787251,26.8071429 C44.7117131,26.8071429 42.9447012,26.7966234 41.1776892,26.8211688 C41.1601594,26.5196104 41.1426295,26.2215584 41.1250996,25.9235065 C42.9622311,25.5307792 43.3864542,23.5846753 43.8071713,22.0383117 C45.3778486,16.4138961 47.1483665,10.8490909 48.7856574,5.24571429 C49.0205578,4.60402597 48.7085259,3.96584416 48.550757,3.3487013 L48.550757,3.3487013 Z M49.3711554,5.74363636 C48.4175299,9.16246753 47.4393625,12.5777922 46.4541833,15.9861039 C48.4631076,16.0176623 50.4755378,15.9931169 52.4844622,15.9896104 C51.4572112,12.5707792 50.3773705,9.16948052 49.3711554,5.74363636 Z" id="Shape"></path>
                        <path d="M117.018964,0.806493506 C117.155697,0.774935065 117.425657,0.711818182 117.56239,0.68025974 C119.455618,6.94636364 121.331315,13.215974 123.238566,19.4750649 C123.852112,21.4071429 124.307888,23.3988312 125.124781,25.2642857 C125.303586,25.3764935 125.657689,25.6009091 125.836494,25.7131169 C126.067888,25.7411688 126.530677,25.7937662 126.758566,25.8218182 C126.677928,26.0707792 126.513147,26.5722078 126.43251,26.8211688 C123.999363,26.7790909 121.566215,26.8281818 119.136574,26.8106494 C119.126056,26.5441558 119.10502,26.0111688 119.094502,25.7446753 C119.532749,25.7376623 119.96749,25.7341558 120.409243,25.7376623 C120.858008,25.3274026 121.496096,24.9311688 121.289243,24.2158442 C120.938645,21.8279221 119.988526,19.5662338 119.431076,17.2238961 C117.190757,17.1502597 114.950438,17.1362338 112.71012,17.2274026 C112.219283,18.9701299 111.693386,20.7023377 111.192032,22.4380519 C110.981673,23.2550649 110.746773,24.1211688 110.974661,24.9592208 C111.598725,25.4290909 112.366534,25.635974 113.092271,25.9024675 C113.067729,26.2005195 113.043187,26.5020779 113.018645,26.8036364 C111.255139,26.8106494 109.491633,26.8106494 107.728127,26.7966234 C107.763187,26.3933766 107.801753,25.9901299 107.843825,25.5903896 C108.25753,25.5202597 108.674741,25.4536364 109.095458,25.3835065 C109.565259,24.4367532 109.996494,23.4619481 110.283984,22.4380519 C111.865179,16.6803896 113.684781,10.9858442 115.339602,5.24571429 C115.581514,4.60402597 115.26247,3.96233766 115.125737,3.33818182 C115.823426,2.54571429 116.461514,1.70415584 117.018964,0.806493506 L117.018964,0.806493506 Z M116.009243,5.72961039 C114.932908,9.1238961 114.056414,12.5777922 113.029163,15.9896104 C115.041594,15.9896104 117.05753,16.0036364 119.06996,15.9931169 C118.060239,12.5707792 116.875219,9.19402597 116.009243,5.72961039 Z" id="Shape"></path>
                        <path d="M0.14374502,1.21675325 C3.25705179,1.22727273 6.37035857,1.12909091 9.48015936,1.28688312 C11.289243,1.86896104 13.350757,2.52467532 14.2868526,4.34103896 C15.5139442,6.89376623 15.4929084,10.0180519 14.2973705,12.5777922 C13.6978486,13.8892208 12.3971315,14.6045455 11.2086056,15.2918182 C11.0858964,15.2637662 10.8369721,15.2076623 10.7142629,15.1796104 L10.7142629,15.5162338 C8.91569721,15.7757143 7.10661355,16.0141558 5.28350598,15.9194805 C5.44478088,19.0402597 4.9574502,22.1961039 5.50087649,25.2923377 C5.70071713,25.3975325 6.09689243,25.6079221 6.29322709,25.7131169 C6.75952191,25.7376623 7.22581673,25.7622078 7.69561753,25.7902597 C7.66756972,26.1338961 7.63952191,26.481039 7.6114741,26.8281818 C5.14677291,26.7861039 2.68207171,26.8211688 0.220876494,26.7966234 C0.192828685,26.4845455 0.164780876,26.168961 0.136733068,25.8568831 C0.767808765,25.7131169 1.39187251,25.5483117 2.01944223,25.3835065 C2.17721116,24.4087013 2.26486056,23.4268831 2.26135458,22.4415584 C2.26836653,17.294026 2.26135458,12.1464935 2.26486056,6.99896104 C2.25784861,5.44207792 2.39458167,3.85012987 1.907251,2.34584416 C1.34278884,2.28974026 0.781832669,2.24064935 0.220876494,2.19155844 C0.192828685,1.86545455 0.168286853,1.54285714 0.14374502,1.21675325 L0.14374502,1.21675325 Z M5.81641434,2.30727273 C5.52541833,3.01207792 5.25896414,3.74493506 5.29051793,4.51987013 C5.28701195,7.97376623 5.28350598,11.4276623 5.30454183,14.8815584 C6.24414343,14.8920779 7.18374502,14.8675325 8.12685259,14.8535065 C9.20669323,14.3590909 10.5319522,14.018961 11.1384861,12.8968831 C12.0991235,11.2137662 12.1622311,9.20454545 12.0605578,7.32155844 C11.9413546,5.68402597 11.4575299,3.91324675 10.0796813,2.88935065 C8.89115538,1.89 7.23633466,2.18103896 5.81641434,2.30727273 Z" id="Shape"></path>
                        <path d="M18.7113944,1.22025974 C21.2181673,1.19571429 23.7249402,1.1887013 26.2282072,1.22025974 C26.1861355,1.53935065 26.1440637,1.85844156 26.101992,2.18103896 C25.4744223,2.2161039 24.8468526,2.25818182 24.2192829,2.30376623 C23.9317928,3.26103896 23.8371315,4.26038961 23.8511554,5.25974026 C23.8721912,7.8825974 23.8371315,10.5054545 23.8897211,13.1283117 C27.2975299,13.1037662 30.7053386,13.1248052 34.1096414,13.1142857 C34.1096414,10.26 34.1306773,7.40220779 34.1166534,4.54792208 C34.1622311,3.75194805 33.7695618,3.04363636 33.4189641,2.35987013 C32.8755378,2.29675325 32.3321116,2.23363636 31.7921912,2.17402597 C31.7571315,1.85493506 31.7255777,1.53935065 31.6975299,1.22376623 C34.1902789,1.18168831 36.6865339,1.20272727 39.1792829,1.21324675 C39.1512351,1.53584416 39.1231873,1.85493506 39.0951394,2.17753247 C38.5166534,2.29675325 37.8154582,2.18103896 37.3596813,2.63337662 C37.1142629,3.35922078 37.0686853,4.13415584 37.0616733,4.89857143 C37.0756972,10.0461039 37.0686853,15.1971429 37.0686853,20.3446753 C37.0862151,21.9892208 36.952988,23.6512987 37.2860558,25.2748052 C37.4999203,25.3905195 37.9241434,25.6254545 38.138008,25.7446753 C38.3974502,25.7481818 38.9128287,25.7551948 39.1722709,25.7587013 C39.1512351,26.1128571 39.1301992,26.467013 39.1126693,26.8211688 C36.6514741,26.7931169 34.1937849,26.7966234 31.7360956,26.8176623 C31.7431076,26.4775325 31.7466135,26.1374026 31.7536255,25.8007792 C32.3671713,25.7762338 32.9842231,25.7516883 33.6012749,25.7376623 C33.8957769,25.0223377 34.1587251,24.278961 34.1201594,23.4935065 C34.1236653,20.3867532 34.1131474,17.28 34.1166534,14.1732468 C30.7053386,14.1451948 27.2940239,14.1837662 23.8792032,14.1487013 C23.8371315,16.5646753 23.8897211,18.9806494 23.8266135,21.3966234 C23.8301195,22.4590909 23.7880478,23.5461039 24.04749,24.5875325 C24.3069323,25.5167532 25.4007968,25.6184416 26.1721116,25.898961 C26.1580876,26.2005195 26.1440637,26.5020779 26.1300398,26.8036364 C23.6828685,26.8036364 21.2392032,26.8141558 18.7955378,26.8036364 C18.7815139,26.4950649 18.76749,26.1864935 18.7534661,25.8779221 C19.3915538,25.7376623 20.0261355,25.5728571 20.6572112,25.3975325 C20.972749,23.8476623 20.8605578,22.2627273 20.8710757,20.6953247 C20.8745817,15.9054545 20.8675697,11.1190909 20.8745817,6.32922078 C20.8535458,4.99675325 21.0218327,3.6187013 20.5450199,2.34233766 C19.9665339,2.29324675 19.3880478,2.24766234 18.8095618,2.20207792 C18.778008,1.87597403 18.7429482,1.54636364 18.7113944,1.22025974 Z" id="Path"></path>
                        <path d="M61.6490837,1.21324675 C64.7062948,1.25181818 67.7705179,1.07649351 70.8207171,1.32545455 C72.8752191,1.86545455 75.3644622,2.58779221 76.1533068,4.81792208 C77.0368127,7.3461039 77.0473307,10.4283117 75.4591235,12.682987 C74.7614343,13.7209091 73.5623904,14.2083117 72.4860558,14.7412987 C73.478247,16.3577922 74.5160159,17.9532468 75.2803187,19.695974 C76.2479681,21.5719481 76.8650199,23.6267532 78.1201594,25.3449351 C78.7231873,25.5097403 79.3227092,25.6850649 79.929243,25.8428571 C79.9047012,26.0848052 79.8556175,26.5757143 79.8275697,26.8176623 C78.2709163,26.8001299 76.7142629,26.7966234 75.1611155,26.8351948 C73.5203187,23.234026 72.3668526,19.2366234 69.5690837,16.3157143 C68.8889243,15.4916883 67.8511554,15.1515584 66.8133865,15.0919481 C66.9220717,18.4827273 66.4627888,21.9366234 67.1078884,25.2853247 C67.3042231,25.394026 67.6933865,25.6114286 67.8897211,25.7201299 C68.35251,25.7411688 68.8188048,25.7587013 69.2850996,25.7762338 C69.2780876,26.1198701 69.2745817,26.467013 69.2710757,26.8141558 C66.7958566,26.8176623 64.3171315,26.7790909 61.8384064,26.8316883 C61.7858167,26.5687013 61.6806375,26.0427273 61.6315538,25.7832468 C62.0242231,25.7551948 62.4203984,25.7341558 62.8165737,25.7131169 C63.0129084,25.6009091 63.4125896,25.38 63.6124303,25.2677922 C63.7105976,24.4437662 63.794741,23.6162338 63.794741,22.7816883 C63.7877291,17.7638961 63.7842231,12.7496104 63.7912351,7.73181818 C63.7842231,6.05922078 63.9840637,4.35155844 63.5703586,2.71402597 C63.1741833,2.12493506 62.4168924,2.30025974 61.8173705,2.19506494 C61.7612749,1.86545455 61.7051793,1.53935065 61.6490837,1.21324675 L61.6490837,1.21324675 Z M66.8133865,4.18324675 C66.7607968,7.54948052 66.8063745,10.9122078 66.8028685,14.2784416 C68.2894024,14.2644156 69.8776096,14.4187013 71.2379283,13.6788312 C72.6999203,12.967013 73.3485259,11.2979221 73.5273307,9.7725974 C73.6886056,7.93168831 73.7376892,5.95051948 72.8401594,4.27441558 C71.9776892,2.68246753 70.0564143,1.93207792 68.3139442,2.01272727 C67.2831873,2.20558442 66.7467729,3.19792208 66.8133865,4.18324675 Z" id="Shape"></path>
                        <path d="M81.9521912,1.21324675 C83.603506,1.20272727 85.2513147,1.19922078 86.9026295,1.21675325 C89.3533068,8.03688312 91.9161753,14.8184416 94.3352988,21.6490909 C96.6983267,14.8605195 98.9316335,8.02285714 101.214024,1.20974026 C102.767171,1.21324675 104.316813,1.19571429 105.86996,1.20974026 C105.8349,1.52883117 105.799841,1.85142857 105.768287,2.17051948 C105.179283,2.30376623 104.436016,2.16 104.022311,2.69298701 C103.685737,4.09909091 103.80494,5.56480519 103.755857,6.99896104 C103.836494,12.2657143 103.783904,17.5324675 103.797928,22.7992208 C103.790916,23.6442857 103.878566,24.4893506 103.997769,25.3274026 C104.604303,25.5132468 105.214343,25.6885714 105.827888,25.8568831 C105.813865,26.1794805 105.799841,26.5020779 105.789323,26.8246753 C103.391235,26.7931169 100.993147,26.7966234 98.5985657,26.8281818 C98.5950598,26.5897403 98.5880478,26.1128571 98.5845418,25.8744156 C99.2331474,25.7516883 99.878247,25.5974026 100.519841,25.4150649 C100.775777,24.4402597 100.821355,23.4338961 100.800319,22.4275325 C100.758247,16.5787013 100.849402,10.7298701 100.751235,4.87753247 C98.4758566,12.2166234 95.912988,19.461039 93.5990438,26.7861039 C93.3781673,26.7896104 93.1607968,26.7966234 92.9434263,26.8036364 C90.3805578,19.6012987 87.6984861,12.4445455 85.0900398,5.25974026 C85.0865339,10.9823377 85.0760159,16.7049351 85.0900398,22.431039 C85.07251,23.6162338 85.4266135,24.7768831 86.092749,25.7551948 C86.6466932,25.7727273 87.2041434,25.7937662 87.7580876,25.8077922 C87.7440637,26.1409091 87.7300398,26.4705195 87.7160159,26.8036364 C85.7351394,26.8141558 83.7542629,26.8001299 81.7733865,26.8211688 C81.7698805,26.5687013 81.7663745,26.0602597 81.7628685,25.8077922 C82.2431873,25.7937662 82.723506,25.7832468 83.2038247,25.7692208 C84.0031873,24.7102597 84.2976892,23.3988312 84.2626295,22.0874026 C84.3432669,16.2420779 84.2661355,10.3967532 84.3082072,4.55142857 C84.3502789,3.81857143 84.1434263,3.11376623 83.9015139,2.43 C83.2353785,2.25116883 82.576255,2.06181818 81.9136255,1.87597403 C81.9241434,1.71116883 81.9416733,1.37805195 81.9521912,1.21324675 Z" id="Path"></path>
                        <path d="M147.668207,1.22025974 C150.262629,1.19220779 152.860558,1.19571429 155.458486,1.21675325 C155.430438,1.52532468 155.405896,1.8338961 155.384861,2.14246753 C154.708207,2.20207792 154.031554,2.26168831 153.361912,2.32831169 C153.19012,3.05766234 153.025339,3.79753247 153.035857,4.54792208 C153.042869,10.0461039 153.042869,15.5407792 153.039363,21.0354545 C153.060398,22.5923377 152.881594,24.1912987 153.393466,25.6920779 C154.07012,25.7341558 154.750279,25.7762338 155.430438,25.8148052 C155.416414,26.1444156 155.40239,26.4705195 155.391873,26.8001299 C152.839522,26.8141558 150.290677,26.8001299 147.738327,26.8106494 C147.738327,26.4705195 147.741833,26.1338961 147.745339,25.7937662 C148.337849,25.7692208 148.930359,25.7411688 149.52988,25.7166234 C150.027729,24.6997403 150.055777,23.5566234 150.059283,22.4485714 C150.052271,17.8831169 150.055777,13.3176623 150.055777,8.75220779 C150.041753,6.61324675 150.143426,4.46727273 149.8349,2.34233766 C149.151235,2.27571429 148.471076,2.2161039 147.78741,2.16 C147.745339,1.84792208 147.706773,1.53233766 147.668207,1.22025974 Z" id="Path"></path>
                        <path d="M161.201275,1.20272727 C165.937849,1.21675325 170.674422,1.16415584 175.410996,1.23077922 C171.010996,9.43948052 166.5549,17.6166234 162.060239,25.7762338 C164.496892,25.8463636 166.933546,25.7446753 169.373705,25.7166234 C170.302789,25.4220779 171.396653,25.2748052 172.027729,24.4367532 C173.601912,22.4836364 174.495936,20.0992208 175.831713,17.9918182 C175.768606,21.0074026 174.632669,23.8862338 174.026135,26.8211688 C168.711076,26.7861039 163.399522,26.8106494 158.084462,26.8176623 C160.903267,21.2388312 164.086693,15.8493506 167.031713,10.3371429 C168.500717,7.55649351 170.159044,4.87051948 171.480797,2.01623377 C168.938964,2.16701299 166.057052,1.35350649 163.792191,2.84727273 C162.077769,4.45324675 161.113625,6.67285714 159.886534,8.64350649 C159.732271,8.61896104 159.423745,8.57337662 159.269482,8.54883117 C159.826932,6.07675325 160.559681,3.65376623 161.201275,1.20272727 Z" id="Path"></path>
                        <path d="M128.146932,1.27987013 C131.141036,1.12558442 134.142151,1.10805195 137.136255,1.25181818 C138.633307,1.69012987 140.26008,2.20558442 141.234741,3.51350649 C142.419761,5.11246753 142.468845,7.25142857 142.184861,9.14493506 C141.904382,10.8315584 140.628207,12.1079221 139.281912,13.0441558 C140.54757,13.4298701 141.851793,13.9944156 142.584542,15.1620779 C144.197291,17.4448052 144.144701,20.5831169 143.033307,23.0692208 C142.321594,24.7032468 140.708845,25.6254545 139.162709,26.3337662 C135.670757,27.2419481 132.03506,26.7335065 128.472988,26.8001299 C128.448446,26.4845455 128.42741,26.1654545 128.402869,25.8498701 C129.01992,25.7025974 129.633466,25.5307792 130.247012,25.365974 C130.394263,24.3946753 130.523984,23.4198701 130.523984,22.4345455 C130.523984,16.7084416 130.513466,10.9823377 130.52749,5.25623377 C130.513466,4.36909091 130.499442,3.4574026 130.197928,2.61233766 C129.447649,2.23012987 128.430916,2.24415584 128.146932,1.27987013 L128.146932,1.27987013 Z M133.47251,1.93207792 C133.45498,5.69805195 133.45498,9.46051948 133.469004,13.222987 C135.102789,13.1984416 136.911873,13.0651948 138.14247,11.8449351 C140.011155,9.8287013 139.97259,6.59220779 138.741992,4.25688312 C137.714741,2.39142857 135.407809,2.01623377 133.47251,1.93207792 L133.47251,1.93207792 Z M133.458486,14.1031169 C133.486534,17.3571429 133.41992,20.6111688 133.479522,23.8651948 C133.45498,24.6436364 133.991394,25.2432468 134.471713,25.7902597 C135.723347,25.7692208 137.097689,25.9936364 138.209084,25.2607792 C140.067251,24.2403896 140.624701,21.9576623 140.638725,19.9905195 C140.586135,18.2302597 140.389801,16.1754545 138.878725,15.0183117 C137.339602,13.8366234 135.271076,14.1241558 133.458486,14.1031169 Z" id="Shape"></path>
                    </g>
                    <g id="#231f20ff" transform="translate(179.000000, 9.000000)" fill="#231F20">
                        <path d="M9.20341463,1.54734694 C11.3409146,-0.745918367 15.1884146,-0.194285714 17.3571951,1.76938776 C18.2539024,2.70612245 18.4693902,4.12510204 17.9654268,5.30816327 C17.5275,5.4677551 17.0860976,5.62734694 16.6481707,5.78 C15.6889024,4.35408163 15.6437195,2.31755102 14.1179268,1.31489796 C12.9084146,0.874285714 11.4069512,1.36693878 10.7639634,2.49795918 C9.67262195,4.34367347 9.54402439,6.56061224 9.56835366,8.65265306 C9.63091463,10.5365306 10.0723171,12.5730612 11.4868902,13.9226531 C12.7554878,15.1646939 15.0146341,15.0467347 16.2067683,13.7526531 C17.0791463,13.0379592 17.2807317,11.7646939 18.2851829,11.1957143 C17.9306707,13.4612245 16.8080488,15.7787755 14.6670732,16.8369388 C13.3880488,16.9340816 12.0985976,16.9653061 10.8369512,16.705102 C9.03658537,15.4873469 7.69152439,13.6416327 7.27445122,11.4906122 C6.55152439,8.13571429 6.86780488,4.23612245 9.20341463,1.54734694 Z" id="Path"></path>
                        <path d="M21.3367683,2.92816327 C23.4221341,-0.197755102 28.7189634,-0.284489796 30.8668902,2.81714286 C32.1702439,4.46857143 32.6116463,6.62653061 32.5143293,8.68734694 C32.4934756,11.5044898 31.3882317,14.4742857 28.9309756,16.0528571 C28.7537195,16.1430612 28.3992073,16.32 28.2219512,16.4102041 C27.1410366,16.7883673 26.0010366,16.8404082 24.8714634,16.7814286 L24.8471341,16.6218367 C22.2543293,15.9487755 20.4887195,13.5757143 20.0542683,11.0118367 C19.6267683,8.30571429 19.6684756,5.23877551 21.3367683,2.92816327 L21.3367683,2.92816327 Z M25.1495122,1.41897959 C24.5169512,1.71734694 24.0512195,2.26897959 23.7245122,2.86571429 C22.4767683,5.02714286 22.3307927,7.61877551 22.4732927,10.0508163 C22.6575,11.8618367 23.0328659,13.8636735 24.4335366,15.1508163 C25.6743293,16.32 27.8222561,15.7822449 28.705061,14.4222449 C29.6052439,13.044898 29.7790244,11.3414286 29.8902439,9.74204082 C29.9632317,7.26489796 29.9354268,4.58306122 28.5417073,2.42857143 C27.8535366,1.32183673 26.3207927,0.791020408 25.1495122,1.41897959 Z" id="Shape"></path>
                        <path d="M38.7565244,2.96632653 C39.7679268,1.23163265 41.8810976,-0.246326531 43.9421341,0.475306122 C45.3671341,0.88122449 46.1039634,2.27938776 46.5523171,3.57693878 C47.4559756,2.17530612 48.609878,0.568979592 50.4693293,0.565510204 C53.0551829,0.263673469 54.6748171,2.9455102 54.9354878,5.19020408 C55.1335976,8.12877551 54.9111585,11.0812245 55.0397561,14.0232653 C55.0953659,14.4708163 55.0432317,15.0016327 55.4325,15.3242857 C55.8843293,15.4110204 56.3396341,15.4769388 56.8018902,15.5185714 C56.8192683,15.7510204 56.8470732,16.2228571 56.8609756,16.4553061 C54.9354878,16.4587755 53.01,16.4657143 51.0845122,16.4587755 C51.0914634,16.2367347 51.1088415,15.7961224 51.1157927,15.577551 C51.647561,15.3693878 52.5407927,15.2583673 52.5790244,14.5263265 C52.7389024,11.8861224 52.5894512,9.23204082 52.6520122,6.58836735 C52.707622,5.18673469 52.502561,3.57 51.2895732,2.67142857 C50.445,1.85265306 49.2042073,2.27591837 48.3005488,2.74081633 C47.612378,3.66714286 46.9485366,4.69755102 47.0180488,5.90142857 C47.0562805,8.92326531 46.9068293,11.9555102 47.1153659,14.9704082 C47.5845732,15.175102 48.0572561,15.3763265 48.5403659,15.5671429 C48.5507927,15.8620408 48.5646951,16.1569388 48.5820732,16.4518367 C46.660061,16.444898 44.7380488,16.5073469 42.8195122,16.4136735 C42.972439,15.7718367 43.3686585,15.3138776 44.0394512,15.1855102 C44.9083537,13.7422449 44.5990244,12.0006122 44.6511585,10.4046939 C44.5816463,8.37857143 44.8527439,6.31081633 44.3661585,4.32285714 C44.112439,3.28204082 43.3060976,2.53265306 42.4545732,1.94979592 C42.100061,1.97061224 41.7629268,1.99489796 41.4153659,2.04346939 C41.0539024,2.19959184 40.692439,2.34877551 40.3275,2.48755102 C39.6567073,3.13979592 38.6731098,3.78857143 38.7669512,4.85020408 C38.7982317,8.09408163 38.680061,11.344898 38.8295122,14.5853061 C38.8364634,15.3416327 39.7505488,15.3832653 40.2892683,15.5567347 C40.2962195,15.7822449 40.3170732,16.2332653 40.3275,16.4587755 C38.4680488,16.4622449 36.6085976,16.4587755 34.7491463,16.4691837 C34.7491463,16.2193878 34.752622,15.7267347 34.7560976,15.4804082 C35.1766463,15.4353061 35.5971951,15.3902041 36.0212195,15.345102 C36.4487195,14.0891837 36.2853659,12.7534694 36.3096951,11.4559184 C36.2888415,9.02040816 36.3409756,6.58489796 36.2957927,4.14938776 C36.3062195,3.60816327 35.8543902,3.22653061 35.5971951,2.79285714 C35.2253049,2.57081633 34.8603659,2.33142857 34.5058537,2.08163265 C35.9343293,1.48489796 37.3940854,0.964489796 38.7669512,0.246326531 C38.76,1.15183673 38.7669512,2.06081633 38.7565244,2.96632653 Z" id="Path"></path>
                        <path d="M0.170304878,14.2314286 C0.212012195,13.1281633 1.06006098,11.7577551 2.32518293,11.9659184 C3.5625,12.0873469 4.03865854,13.5514286 4.01085366,14.62 C4.00390244,15.5081633 3.3470122,16.1534694 2.76310976,16.7363265 L2.62756098,16.7744898 C2.27652439,16.7779592 1.9254878,16.7814286 1.57792683,16.784898 L1.43195122,16.7502041 C0.747256098,16.0840816 0.0660365854,15.254898 0.170304878,14.2314286 Z" id="Path"></path>
                    </g>
                </g>
            </g>
        </g>
    </g>
</svg>