<?xml version="1.0" encoding="UTF-8"?>
<svg width="286px" height="277px" viewBox="0 0 286 277" version="1.1" xmlns="http://www.w3.org/2000/svg" xmlns:xlink="http://www.w3.org/1999/xlink">
    <!-- Generator: Sketch 55 (78076) - https://sketchapp.com -->
    <title>TEDX</title>
    <desc>Created with Sketch.</desc>
    <defs>
        <rect id="path-1" x="0" y="0" width="278" height="269" rx="19"></rect>
        <filter x="-2.5%" y="-1.9%" width="105.0%" height="105.2%" filterUnits="objectBoundingBox" id="filter-2">
            <feOffset dx="0" dy="2" in="SourceAlpha" result="shadowOffsetOuter1"></feOffset>
            <feGaussianBlur stdDeviation="2" in="shadowOffsetOuter1" result="shadowBlurOuter1"></feGaussianBlur>
            <feComposite in="shadowBlurOuter1" in2="SourceAlpha" operator="out" result="shadowBlurOuter1"></feComposite>
            <feColorMatrix values="0 0 0 0 0   0 0 0 0 0   0 0 0 0 0  0 0 0 0.5 0" type="matrix" in="shadowBlurOuter1"></feColorMatrix>
        </filter>
    </defs>
    <g id="Page-1" stroke="none" stroke-width="1" fill="none" fill-rule="evenodd">
        <g id="Custom-Preset-4" transform="translate(-1291.000000, -4107.000000)">
            <g id="TEDX" transform="translate(1295.000000, 4109.000000)">
                <g id="Rectangle">
                    <use fill="black" fill-opacity="1" filter="url(#filter-2)" xlink:href="#path-1"></use>
                    <use fill-opacity="0.3" fill="#5AC7D8" fill-rule="evenodd" xlink:href="#path-1"></use>
                </g>
                <g id="tedx-logo" transform="translate(19.000000, 100.000000)" fill="#F02806" fill-rule="nonzero">
                    <path d="M196.464457,0.0292020374 C201.693221,-0.0292020374 206.925614,0.0255517827 212.161636,0.00365025467 C214.037605,3.31808149 215.837374,6.6836163 217.753257,9.97614601 C217.843972,9.99439728 218.029029,10.0308998 218.123371,10.0528014 C220.068283,6.71281834 221.951509,3.33268251 223.914564,0 C229.132443,0.021901528 234.350322,-0.021901528 239.568201,0.0255517827 C234.756721,6.99023769 230.017813,14.0096774 225.257133,21.0145161 C229.313871,26.9644312 233.334323,32.9435484 237.376546,38.9044143 C238.254659,40.262309 239.259772,41.5398981 240,42.985399 C235.134092,43.0036503 230.271813,42.9817487 225.405905,43 C225.006762,42.9926995 224.520534,43.0511036 224.306449,42.6240238 C222.056738,39.2146859 220.217054,35.5315789 217.876629,32.1879457 C216.091374,35.3308149 214.204519,38.4116299 212.437407,41.5617997 C212.128979,42.0655348 211.856837,42.6240238 211.363351,42.9744482 C209.527297,42.8065365 207.698499,43.0365025 205.862444,42.9926995 C202.578591,42.7225806 199.269339,43.1642615 196,42.770034 C201.025565,35.5826825 205.833416,28.2420204 210.800924,21.0108659 C206.02573,14.0169779 201.31585,6.97198642 196.464457,0.0292020374 Z" id="Path"></path>
                    <path d="M0,17.9412651 C0.0331022008,11.9629829 0.00367802231,5.98103297 0.0147120892,0.00275074336 C20.3431414,-0.000916914452 40.6715707,-0.000916914452 60.996322,0.00275074336 C61,5.98103297 60.996322,11.9629829 61,17.9412651 C54.4236961,17.9339298 47.8473922,17.9449327 41.2710883,17.9375974 C41.2821224,35.2892865 41.2600543,52.6446433 41.2821224,70 C34.0621646,69.988997 26.8385288,70.0146706 19.614893,69.9853294 C19.5560446,57.706011 19.6075369,45.423025 19.5891468,33.1437067 C19.625927,28.0786713 19.5119084,23.0136358 19.6590292,17.9522681 C13.1084715,17.9229268 6.55423576,17.9449327 0,17.9412651 Z" id="Path"></path>
                    <path d="M64.0036625,1.95569154 C64.0073251,1.30286117 64.0293004,0.653698389 64.0586008,0.000868021837 C83.7008505,0.0118707808 103.346763,-0.0138023235 122.989012,0.0118707808 C122.992675,5.9900365 122.974362,11.9645346 123,17.9427004 C110.540009,17.9390328 98.0800174,17.9427004 85.6236886,17.9390328 C85.6383388,20.8437612 85.6346763,23.7521571 85.6236886,26.6568855 C98.0800174,26.6678883 110.532684,26.6202096 122.989012,26.6825586 C122.992675,32.2169464 122.9707,37.7513341 123,43.2857219 C110.550996,43.3370681 98.0983301,43.2967247 85.6493265,43.3077274 C85.6053759,46.2234586 85.6493265,49.1391897 85.6236886,52.0549208 C98.0763548,52.0549208 110.532684,52.0549208 122.989012,52.0549208 C122.992675,58.0330866 122.974362,64.0112523 122.996337,69.9857504 C103.332112,70.007756 83.6678875,70.0004208 64,69.989418 C64.0073251,47.3127317 64.0036625,24.6360454 64.0036625,1.95569154 Z" id="Path"></path>
                    <path d="M126.007337,0.0161509975 C135.511964,0.00148359736 145.020259,0.0124841474 154.524886,0.00881729741 C159.711896,0.0381520976 164.968604,-0.240528504 170.060238,0.951197754 C175.647095,2.15759141 180.903803,5.03240183 184.682177,9.35561801 C190.265365,15.6479327 192.51038,24.1990269 192.950579,32.4311052 C193.247713,39.8894782 192.249929,47.619198 188.732006,54.2965319 C185.760664,60.0314854 180.610337,64.5343772 174.638306,66.9398308 C168.875369,69.3086159 162.565852,70.0749876 156.373721,69.9943169 C146.249148,69.99065 136.124574,69.9869832 126,69.9943169 C126.029347,46.6694839 126.014673,23.340984 126.007337,0.0161509975 L126.007337,0.0161509975 Z M147.481704,17.9543813 C147.481704,29.3179495 147.489041,40.6778509 147.478036,52.0377523 C150.44571,52.0634203 153.409716,52.0487529 156.373721,52.0524197 C159.766921,51.971749 163.31419,51.2053773 165.977393,48.9832662 C169.176172,46.3834696 170.694858,42.2802644 171.160735,38.2907316 C171.556914,34.2901982 171.424854,30.0879881 169.697074,26.3881364 C168.185724,23.0403023 165.280412,20.334167 161.788167,19.160775 C157.206431,17.5326936 152.254194,18.0313852 147.481704,17.9543813 Z" id="Shape"></path>
                </g>
            </g>
        </g>
    </g>
</svg>