<?xml version="1.0" encoding="UTF-8"?>
<svg width="286px" height="277px" viewBox="0 0 286 277" version="1.1" xmlns="http://www.w3.org/2000/svg" xmlns:xlink="http://www.w3.org/1999/xlink">
    <!-- Generator: Sketch 55 (78076) - https://sketchapp.com -->
    <title>YourStory</title>
    <desc>Created with Sketch.</desc>
    <defs>
        <rect id="path-1" x="0" y="0" width="278" height="269" rx="19"></rect>
        <filter x="-2.5%" y="-1.9%" width="105.0%" height="105.2%" filterUnits="objectBoundingBox" id="filter-2">
            <feOffset dx="0" dy="2" in="SourceAlpha" result="shadowOffsetOuter1"></feOffset>
            <feGaussianBlur stdDeviation="2" in="shadowOffsetOuter1" result="shadowBlurOuter1"></feGaussianBlur>
            <feComposite in="shadowBlurOuter1" in2="SourceAlpha" operator="out" result="shadowBlurOuter1"></feComposite>
            <feColorMatrix values="0 0 0 0 0   0 0 0 0 0   0 0 0 0 0  0 0 0 0.5 0" type="matrix" in="shadowBlurOuter1"></feColorMatrix>
        </filter>
    </defs>
    <g id="Page-1" stroke="none" stroke-width="1" fill="none" fill-rule="evenodd">
        <g id="Custom-Preset-4" transform="translate(-1291.000000, -3734.000000)">
            <g id="YourStory" transform="translate(1295.000000, 3736.000000)">
                <g id="Rectangle">
                    <use fill="black" fill-opacity="1" filter="url(#filter-2)" xlink:href="#path-1"></use>
                    <use fill-opacity="0.3" fill="#5AC7D8" fill-rule="evenodd" xlink:href="#path-1"></use>
                </g>
                <g id="yourstory-logo-e1556169971152" transform="translate(31.000000, 50.000000)" fill="#DE1920" fill-rule="nonzero">
                    <path d="M61.8127222,0.317115875 C66.4998426,-0.492253367 71.5322889,0.225489168 75.5985987,2.72613471 C79.4864254,5.11988242 82.609879,8.81167514 84.0338634,13.1257659 C84.7633159,15.3171713 84.9961199,17.6383812 85,19.9366845 C84.9844797,34.3106241 85.0116402,48.6883815 84.9844797,63.0661389 C84.9728395,67.9910743 82.9746053,72.8892854 79.3583832,76.3214691 C75.7033605,80.0819818 70.4148298,82.2123028 65.126299,81.983236 C59.6049643,82.0863161 54.2194319,79.4825905 50.6924514,75.3479353 C47.5651177,71.9157516 45.9781705,67.303874 46.005331,62.7187209 C45.9936908,48.3218746 46.005331,33.9250283 46.0014509,19.5243643 C46.0130911,16.2907051 46.645542,13.0112325 48.2480095,10.1631691 C51.0300172,5.16569577 56.0585835,1.29446741 61.8127222,0.317115875 L61.8127222,0.317115875 Z M63.2793873,12.3393034 C60.4158982,13.0990415 58.1421792,15.790576 58.1344191,18.7455373 C58.1188988,33.4134459 58.130539,48.0851723 58.1266589,62.7530809 C58.0180171,66.8381049 62.2744501,70.2511998 66.3174795,69.4418305 C69.5495749,68.9684259 72.1647398,65.9561979 72.0948986,62.7301743 C72.0910185,48.0699012 72.1026587,33.4096281 72.0871385,18.749355 C72.1298192,14.4810776 67.4310586,11.0374406 63.2793873,12.3393034 Z" id="Shape"></path>
                    <path d="M0,1.00772265 C4.50655359,1.00772265 9.01310717,1.00772265 13.5196608,1.00772265 C15.9175019,8.78443314 18.3346184,16.5572823 20.7401696,24.3339928 C21.8889746,27.5427547 22.0855821,30.9793348 22.7910563,34.2962138 C22.9838088,31.7129867 23.2922128,29.1374823 23.6622976,26.5812845 C26.0871241,18.3798281 28.6430224,10.2208464 31.0871241,2.02711271 C31.2721665,1.67959337 31.2181958,0.895744199 31.8080185,1.01158398 C36.2027756,0.992277348 40.6013878,1.02316796 45,1 C39.5913647,16.5765889 34.1595991,32.1493165 28.7509638,47.7297668 C28.6083269,48.1931259 28.5466461,48.668069 28.5659214,49.1545961 C28.5851966,60.1014551 28.5659214,71.0483142 28.5774865,81.9951733 C24.4949884,82.002896 20.4163454,81.9990347 16.3338473,81.9990347 C16.3377024,70.9324745 16.3299923,59.8659143 16.3377024,48.7993541 C16.3377024,48.3746082 16.2683115,47.9614463 16.1179645,47.5637298 C10.7478797,32.0450607 5.35080956,16.5341143 0,1.00772265 Z" id="Path"></path>
                    <path d="M93,1.00773679 C97.0392347,1 101.082349,1.00773679 105.121584,1 C105.129344,21.8429146 105.125464,42.6858291 105.121584,63.5248753 C104.993539,67.2424033 108.40419,70.5924337 112.121372,70.4570399 C115.842435,70.6272493 119.191003,67.2462717 119.093999,63.5558224 C119.097879,42.7051711 119.086239,21.8545197 119.097879,1 C123.397084,1.00773679 127.696289,1 131.995493,1.00773679 C131.999373,21.0537619 131.991613,41.099787 131.995493,61.1496805 C132.018774,63.9117148 131.979973,66.7240383 131.180662,69.3932311 C129.853651,74.0082269 126.532244,77.8998327 122.450328,80.3640006 C117.984277,83.0447986 112.427904,83.5979791 107.406992,82.3987766 C102.242514,81.1222061 97.8230247,77.482046 95.2621266,72.874787 C93.679026,70.0199112 93.0116404,66.7356435 93,63.4939281 C93,42.6626187 93,21.8351778 93,1.00773679 Z" id="Path"></path>
                    <path d="M142.001675,81.9951674 C142.001675,54.9980669 141.997906,28.0009665 142.001675,1.00386612 C148.379094,1 154.756512,1.00773224 161.133931,1 C165.815227,1.02706282 170.798057,2.08637909 174.344836,5.43057097 C177.951922,8.85981743 179.384203,14.0442814 179.504816,18.9581171 C179.508585,23.6129229 179.501047,28.2677287 179.508585,32.9225345 C179.459586,38.1572579 177.039786,43.2334706 173.20655,46.6549848 C176.112572,58.4427779 179.093978,70.2112404 182,81.9990335 C177.673004,81.9990335 173.346009,81.9990335 169.019013,81.9990335 C166.625597,71.8466082 164.217104,61.7019152 161.816149,51.553356 C159.200352,51.553356 156.584555,51.553356 153.968758,51.553356 C153.964989,61.7019152 153.968758,71.8504743 153.968758,81.9990335 C149.977218,81.9990335 145.989446,82.0028996 142.001675,81.9951674 L142.001675,81.9951674 Z M153.968758,13.5687489 C153.968758,22.1708609 153.964989,30.772973 153.968758,39.375085 C156.497864,39.3557544 159.02697,39.406014 161.552308,39.3596205 C164.918167,39.2049758 167.884496,36.027027 167.82419,32.5552533 C167.82042,28.4069089 167.816651,24.2585645 167.82419,20.106354 C167.843035,18.4013961 167.341737,16.6345803 166.203451,15.3587614 C164.888014,14.0094863 162.954435,13.5532844 161.152777,13.5648828 C158.755591,13.5648828 156.362174,13.572615 153.968758,13.5687489 Z" id="Shape"></path>
                    <path d="M16.9111861,89.9622134 C20.392173,88.1678182 24.4296572,87.7805662 28.2867596,88.1026372 C32.6197631,88.443879 36.9642804,90.1270831 40.0039074,93.3056165 C43.3812706,96.8253918 45.0200594,101.664124 45.4537435,106.449178 C41.5659379,107.189175 37.6666185,107.856322 33.7788128,108.592484 C33.5139968,106.096434 32.8653896,103.565876 31.4069827,101.483918 C29.3421856,98.2325351 23.8309428,98.0139869 21.6356567,101.238531 C20.0774641,103.404841 19.6629696,106.207625 19.8663789,108.814866 C20.2194669,112.441998 22.0424755,115.754728 24.3221957,118.526838 C27.5422045,122.491378 31.9481284,125.217479 35.486684,128.859948 C40.5297014,133.825208 44.7091885,140.06725 45.8375348,147.164313 C46.5820899,153.467701 44.7667571,160.200518 40.4068882,164.908888 C37.3020168,168.121929 32.8270104,169.716947 28.4249245,169.931661 C23.3205004,170.299742 17.8514747,169.218504 13.9099383,165.771578 C8.55604992,161.231911 6.35692589,154.019823 6,147.217991 C9.85326445,146.984107 13.702691,146.71188 17.5521175,146.385975 C18.0049912,149.786891 18.718843,153.345008 20.8987775,156.105616 C22.2765882,157.907679 24.5601463,159.126948 26.8705698,158.74353 C29.6952736,158.444464 32.0364004,156.285822 33.0687989,153.720757 C34.3698514,150.101293 33.63681,145.964215 31.5144443,142.804853 C29.852628,140.055747 27.2620369,138.092648 25.0091821,135.861157 C20.2693598,131.267811 15.1035292,127.00804 11.3500504,121.517497 C7.35862113,115.842914 6.41449458,108.404609 7.96884926,101.736974 C9.08568189,96.7832159 12.3632594,92.2895594 16.9111861,89.9622134 Z" id="Path"></path>
                    <path d="M105.863513,88.1091318 C110.299972,87.656759 114.961111,88.5960077 118.639754,91.2029019 C123.472257,94.5190247 126.857676,100.093178 126.998576,106.039197 C126.994768,121.404538 127.006192,136.769879 126.994768,152.131387 C126.705351,160.860649 119.462308,168.688999 110.886423,169.781594 C105.673107,170.567496 100.07898,169.23338 96.0271408,165.76391 C91.8534419,162.355779 89.1344447,157.153492 89.0240092,151.713517 C88.9973524,138.418356 89.0202011,125.119362 89.0125848,111.824202 C89.0620904,108.56175 88.7574408,105.23796 89.6371164,102.052182 C91.567833,94.7030407 98.3043962,88.7991921 105.863513,88.1091318 L105.863513,88.1091318 Z M105.509358,100.426707 C102.851291,101.319952 100.802523,103.938347 100.825371,106.798263 C100.810139,121.396871 100.821563,135.999312 100.817755,150.59792 C100.703511,154.03672 103.559601,157.17266 106.941211,157.47552 C110.673168,158.000732 114.469863,154.788119 114.43559,150.962118 C114.427974,136.121989 114.43559,121.281861 114.431782,106.437898 C114.328963,102.128856 109.511692,98.9469112 105.509358,100.426707 Z" id="Shape"></path>
                    <path d="M132.004728,89 C138.441792,89.0076642 144.882638,89 151.319702,89.0038321 C155.385415,89.080474 159.613757,89.8583894 162.991136,92.2879381 C166.417681,94.7289831 168.410826,98.7795083 169.087815,102.891347 C169.912304,108.375076 169.390379,113.950775 169.53788,119.480489 C169.677816,125.017868 167.272426,130.455612 163.176457,134.107599 C166.130245,145.734177 169.049994,157.36842 172,168.998831 C167.669543,168.991166 163.342867,169.010327 159.016192,168.991166 C156.614585,158.966404 154.209195,148.941642 151.81137,138.913047 C149.213095,138.920711 146.611039,138.913047 144.012764,138.920711 C144.0052,148.945474 144.012764,158.970236 144.008982,168.998831 C140.007564,168.998831 136.006146,168.998831 132.000946,168.998831 C132.000946,142.331276 131.997163,115.667554 132.004728,89 L132.004728,89 Z M144.008982,101.458143 C144.008982,109.919411 144.008982,118.380678 144.012764,126.841945 C146.452192,126.841945 148.89162,126.84961 151.33483,126.845778 C154.734901,126.861106 157.794587,123.74178 157.809715,120.308222 C157.821061,116.192551 157.805933,112.076881 157.817279,107.96121 C157.813497,106.309576 157.423945,104.565973 156.300674,103.31671 C155.067722,101.910331 153.11618,101.41599 151.319702,101.454311 C148.884056,101.461975 146.44841,101.458143 144.008982,101.458143 Z" id="Shape"></path>
                    <path d="M47.0017145,89.0017032 C59.6659523,88.997871 72.3301902,89.0017032 84.9982855,89.0017032 C85.0021431,93.0868857 84.9982855,97.1759004 84.9982855,101.264915 C80.7241535,101.268747 76.4461639,101.261083 72.1720319,101.268747 C72.1681743,123.844554 72.1758894,146.420361 72.1681743,169 C68.0869183,169 64.0056622,169 59.9244061,168.996168 C59.9205486,146.420361 59.9282637,123.844554 59.9244061,101.264915 C55.6155564,101.264915 51.3105642,101.264915 47.0017145,101.264915 C46.9978569,97.1759004 47.0017145,93.090718 47.0017145,89.0017032 Z" id="Path"></path>
                    <path d="M171,88.0066808 C175.514264,88.0066808 180.032382,87.9873732 184.550501,88.0144039 C187.12182,96.4711413 189.777949,104.900848 192.372398,113.349862 C192.93909,115.879161 193.228219,118.466382 193.760216,121.003403 C194.265227,117.836953 194.188126,114.550796 195.275251,111.500192 C197.661527,103.669022 200.036237,95.8339898 202.418658,88.0028193 C206.944487,88.0066808 211.470316,87.9950963 216,88.0066808 C210.853508,102.861963 205.672321,117.7018 200.518119,132.553221 C200.159599,133.673063 199.565921,134.762013 199.639167,135.974531 C199.654588,146.983736 199.646877,157.989079 199.646877,168.998284 C195.533539,168.998284 191.424056,169.002145 187.310717,168.998284 C187.310717,158.382954 187.303007,147.771487 187.314572,137.160019 C187.291442,136.248699 187.422513,135.306487 187.098689,134.437645 C181.713184,118.96838 176.370085,103.483669 171,88.0066808 Z" id="Path"></path>
                </g>
            </g>
        </g>
    </g>
</svg>