<?xml version="1.0" encoding="UTF-8"?>
<svg width="286px" height="277px" viewBox="0 0 286 277" version="1.1" xmlns="http://www.w3.org/2000/svg" xmlns:xlink="http://www.w3.org/1999/xlink">
    <!-- Generator: Sketch 55 (78076) - https://sketchapp.com -->
    <title>98.4</title>
    <desc>Created with Sketch.</desc>
    <defs>
        <rect id="path-1" x="0" y="0" width="278" height="269" rx="19"></rect>
        <filter x="-2.5%" y="-1.9%" width="105.0%" height="105.2%" filterUnits="objectBoundingBox" id="filter-2">
            <feOffset dx="0" dy="2" in="SourceAlpha" result="shadowOffsetOuter1"></feOffset>
            <feGaussianBlur stdDeviation="2" in="shadowOffsetOuter1" result="shadowBlurOuter1"></feGaussianBlur>
            <feComposite in="shadowBlurOuter1" in2="SourceAlpha" operator="out" result="shadowBlurOuter1"></feComposite>
            <feColorMatrix values="0 0 0 0 0   0 0 0 0 0   0 0 0 0 0  0 0 0 0.5 0" type="matrix" in="shadowBlurOuter1"></feColorMatrix>
        </filter>
    </defs>
    <g id="Page-1" stroke="none" stroke-width="1" fill="none" fill-rule="evenodd">
        <g id="Custom-Preset-4" transform="translate(-2550.000000, -1752.000000)">
            <g id="Group" transform="translate(2224.000000, 1754.000000)">
                <g id="98.4" transform="translate(330.000000, 0.000000)">
                    <g id="Rectangle">
                        <use fill="black" fill-opacity="1" filter="url(#filter-2)" xlink:href="#path-1"></use>
                        <use fill-opacity="0.3" fill="#EC4D62" fill-rule="evenodd" xlink:href="#path-1"></use>
                    </g>
                    <g id="Screenshot-2019-06-12-at-7" transform="translate(20.000000, 94.000000)" fill-rule="nonzero">
                        <g id="#ffffffff" transform="translate(56.000000, 1.000000)" fill="#FFFFFF">
                            <path d="M0.854117647,0.309375 C2.03529412,-0.32625 3.81411765,0.345 3.84,1.5 C3.84,2.630625 2.23294118,3.30375 0.988235294,2.85375 C1.09647059,2.72625 1.20705882,2.59875 1.32,2.47125 C1.32941176,2.235 1.35058824,1.7625 1.36,1.52625 C2.16705882,1.479375 2.40470588,2.1825 3.00470588,2.394375 C3.08470588,2.0775 2.67058824,1.85625 2.50352941,1.603125 C2.91294118,1.374375 3.06823529,1.0275 3.02117647,0.639375 C2.92941176,0.6075 2.74588235,0.541875 2.65647059,0.51 C2.08470588,0.3225 1.45882353,0.31125 0.854117647,0.309375 Z" id="Path"></path>
                            <path d="M0.548235294,2.555625 C-0.00235294118,1.955625 -0.08,1.108125 0.543529412,0.519375 C1.05647059,1.1325 0.96,1.9275 0.548235294,2.555625 Z" id="Path"></path>
                            <path d="M1.50823529,0.68625 C1.61882353,0.69375 1.84235294,0.70875 1.95294118,0.71625 C2.12,0.740625 2.45411765,0.789375 2.61882353,0.811875 C3.04705882,1.449375 1.72941176,1.27875 1.28235294,1.395 C1.33882353,1.21875 1.45176471,0.8625 1.50823529,0.68625 Z" id="Path"></path>
                        </g>
                        <g id="#5c5590ff" fill="#5C5590">
                            <path d="M26.2683351,4.68182692 C26.0797104,2.29762821 28.2724716,0.114647436 30.6609307,0.159102564 C37.2557187,0.145064103 43.8505067,0.147403846 50.4452947,0.159102564 C52.746515,0.114647436 54.9581386,2.12214744 54.8708997,4.44785256 C54.8638263,11.6425641 54.8614685,18.8372756 54.8708997,26.0319872 C62.1211582,26.0483654 69.3737746,26.0179487 76.6240331,26.0460256 C78.9629783,25.9781731 81.0826474,28.105 81.0189866,30.4143269 C81.0142709,36.8930769 81.0095553,43.3718269 81.0189866,49.8505769 C81.1415926,51.9657051 79.4510445,54.0246795 77.3337332,54.3265064 C76.0793795,54.47625 74.8155946,54.3709615 73.5588831,54.3990385 C72.4342089,54.3662821 71.2623785,54.5511218 70.1872182,54.1299679 C68.6758635,53.5473718 67.1149948,52.9203205 65.9290176,51.7878846 C64.6392968,50.4776282 63.472182,49.010609 62.6941055,47.3376923 C61.6495967,44.9090385 60.9233919,42.3516987 60.3976008,39.7639423 C60.1759669,38.3530769 59.904819,36.9351923 59.3955326,35.5945192 C58.9381179,34.6282051 58.0657291,33.9075641 57.1532575,33.3741026 C53.2746639,31.3712821 49.3772079,29.3988782 45.4938987,27.4007372 C44.8855843,27.0708333 44.2631231,26.7596474 43.6170838,26.5092949 C42.6598139,27.183141 41.8322234,28.1705128 41.7614891,29.3825 C41.6365253,29.3520833 41.3842399,29.2889103 41.2592761,29.2561538 C40.9574767,28.0488462 40.2147673,26.7549679 38.9085419,26.4508013 C34.6126163,27.7867949 30.3709204,29.3216667 26.0914995,30.7255128 C26.072637,32.9108333 26.1032885,35.0984936 26.0749948,37.2838141 C25.7566908,37.056859 25.459607,36.7994872 25.2073216,36.5023397 C22.7363392,33.6572115 20.2370631,30.8401603 17.761365,28.0020513 C17.1082523,27.2369551 16.4292037,26.2916987 15.3186763,26.2355449 C14.0808273,25.9594551 12.8453361,27.1316667 13.0834747,28.3740705 C17.4642813,33.2524359 21.7413444,38.2220513 26.0820683,43.1355128 C26.0891417,43.7578846 26.0891417,44.3825962 26.0702792,45.0073077 C25.2568356,44.338141 24.6603102,43.4654167 23.9435367,42.705 C21.3051499,39.6984295 18.6644054,36.6941987 16.033092,33.6829487 C15.2455843,32.7610897 13.6021923,32.4803205 12.7250879,33.4302564 C12.2865357,33.8677885 11.8809928,34.6866987 12.4067839,35.2014423 C16.9337746,40.3863141 21.4937746,45.5454487 26.0160496,50.7303205 C26.1881696,51.3503526 26.0537746,52.0195192 26.0584902,52.6582692 C22.6679628,48.8047115 19.2750776,44.9558333 15.9081282,41.0835577 C15.4271355,40.5009615 14.6632058,40.1944551 13.9181386,40.1570192 C12.8665564,40.1359615 11.8998552,41.0882372 11.9540848,42.1317628 C12.2110858,42.5809936 12.5812616,42.9530128 12.9113547,43.3484295 C16.1651293,47.0194872 19.3693899,50.7303205 22.6325957,54.394359 C16.6579111,54.4083974 10.6832265,54.3990385 4.70618407,54.3990385 C3.08637022,54.4481731 1.46419855,53.5848077 0.716773526,52.1388462 C0.122605998,51.2544231 0.0872388831,50.1664423 0.132037229,49.1416346 C0.139110651,42.9015385 0.139110651,36.6614423 0.132037229,30.4213462 C0.0919544984,28.1377564 2.12910031,25.9945513 4.46568769,26.0460256 C11.7348087,26.0202885 19.0015719,26.0530449 26.2706929,26.0296474 C26.2754085,18.9144872 26.2777663,11.7969872 26.2683351,4.68182692 L26.2683351,4.68182692 Z M39.6936918,11.3407372 C40.3420889,12.3702244 40.8631644,13.6219872 40.6273837,14.8526923 C39.9483351,16.8391346 38.3120165,18.3529487 37.6919131,20.3674679 C37.3806825,21.2916667 38.1116029,22.0520833 38.625605,22.730609 C39.5475078,23.8302885 40.4340434,24.9697436 41.4974147,25.9430769 C42.5537125,24.0572436 43.6807446,22.2111859 44.7488314,20.3323718 C45.1779524,19.5041026 45.5481282,18.5448077 45.305274,17.6065705 C45.0883557,16.8016987 44.4682523,16.2120833 43.9424612,15.5967308 C42.7517684,14.2747756 41.5964426,12.9200641 40.4104654,11.5957692 C40.2359876,11.3758333 39.9436194,11.3828526 39.6936918,11.3407372 Z" id="Shape"></path>
                            <path d="M137.04757,66.5142308 C138.146308,65.2554487 140.063206,65.0472115 141.558056,65.6695833 C141.550982,66.3270513 141.550982,66.9845192 141.55334,67.6443269 C140.739897,67.2372115 139.711892,66.7926603 138.867797,67.3729167 C137.644095,68.0982372 137.710114,70.1478526 139.002192,70.7678846 C139.848645,71.2217949 140.779979,70.7959615 141.555698,70.3982051 C141.550982,71.074391 141.55334,71.7482372 141.562771,72.4244231 C140.044343,72.9578846 138.146308,72.7894231 137.033423,71.5353205 C135.708335,70.2040064 135.762565,67.8525641 137.04757,66.5142308 Z" id="Path"></path>
                            <path d="M169.101965,65.5596154 C170.217208,65.1057051 171.476277,65.3934936 172.537291,65.8614423 C172.32273,66.2732372 172.112885,66.6873718 171.924261,67.1085256 C171.221634,67.0196154 170.511934,66.7201282 169.821096,67.0266346 C169.823454,67.2629487 169.835243,67.5016026 169.861179,67.7425962 C170.78544,68.3532692 172.193051,68.3205128 172.709411,69.4599679 C172.89332,70.4075641 172.803723,71.5212821 171.983206,72.1647115 C170.648687,73.0701923 168.783661,72.7987821 167.498656,71.9283974 C167.739152,71.5587179 167.95607,71.1726603 168.102254,70.7561859 C168.613899,70.6111218 169.04302,70.9761218 169.512223,71.1188462 C169.941344,71.2896474 170.382254,71.0720513 170.804302,70.9737821 C170.792513,70.7047115 170.92455,70.3982051 170.78544,70.1525321 C169.964922,69.5558974 168.734147,69.6377885 168.114043,68.7697436 C167.74151,68.3017949 167.798097,67.6887821 167.781593,67.1342628 C168.092823,66.52125 168.425274,65.8380449 169.101965,65.5596154 Z" id="Path"></path>
                            <path d="M180.252037,65.4636859 C181.315408,65.1712179 182.45423,65.4005128 183.425646,65.8778205 C183.196939,66.3036538 182.972947,66.7341667 182.751313,67.1646795 C182.091127,66.9611218 181.386143,66.713109 180.721241,67.0476923 C180.707094,67.2769872 180.695305,67.5086218 180.683516,67.7402564 C181.511107,68.2035256 182.555615,68.2854167 183.251169,68.9639423 C184.298035,70.0659615 183.609555,72.0524038 182.22788,72.5109936 C180.9806,72.9578846 179.601282,72.6420192 178.467177,72.0336859 C178.655801,71.5049038 178.905729,71.001859 179.18395,70.5128526 C179.907797,71.0252564 180.813195,71.4019551 181.683226,70.9854808 C181.676153,70.7023718 181.761034,70.4028846 181.662006,70.1338141 C180.902792,69.633109 179.910155,69.6003526 179.202813,69.0224359 C178.118221,67.9204167 178.823206,65.8801603 180.252037,65.4636859 Z" id="Path"></path>
                            <path d="M195.325502,65.42625 C196.952389,65.070609 198.850424,65.6485256 199.718097,67.1249038 C200.830982,68.6761538 200.206163,70.9386859 198.767901,72.0617628 C197.294271,73.1216667 195.087363,73.0982692 193.675036,71.9447756 C192.467839,70.8497756 191.852451,68.9241667 192.694188,67.443109 C193.198759,66.4112821 194.191396,65.6438462 195.325502,65.42625 L195.325502,65.42625 Z M194.181965,69.0224359 C194.420103,69.7383974 194.693609,70.6041026 195.492906,70.8778526 C196.527983,71.3411218 197.862503,70.7795833 198.194953,69.6892628 C198.817415,68.4211218 197.475822,66.9424038 196.153092,67.0921474 C195.096794,67.1225641 194.365874,68.0584615 194.181965,69.0224359 Z" id="Shape"></path>
                            <path d="M142.708666,65.4917628 C143.298118,65.4800641 143.889928,65.4824038 144.484095,65.4964423 C144.491169,66.4112821 144.387425,67.3401603 144.604343,68.2409615 C145.47909,68.2152244 146.353837,68.2175641 147.230941,68.2105449 C147.226225,67.2933654 147.22151,66.3761859 147.256877,65.4590064 C147.874623,65.4707051 148.492368,65.4964423 149.110114,65.5479167 C149.098325,67.8502244 149.074747,70.1548718 149.124261,72.4571795 C148.511231,72.5811859 147.886412,72.6045833 147.266308,72.5975641 C147.212079,71.621891 147.230941,70.6462179 147.230941,69.6705449 C146.301965,69.705641 145.342337,69.5208013 144.444012,69.8179487 C144.493526,70.7327885 144.477022,71.6476282 144.472306,72.5601282 C143.897001,72.5718269 143.324054,72.5811859 142.751107,72.5975641 C142.656794,70.2297436 142.739317,67.8595833 142.708666,65.4917628 Z" id="Path"></path>
                            <path d="M150.291375,65.508141 C151.635326,65.4543269 152.979276,65.4894231 154.323226,65.4847436 C154.320869,66.0018269 154.320869,66.52125 154.320869,67.0406731 C153.594664,67.0476923 152.868459,67.0476923 152.144612,67.0476923 C152.144612,67.4407692 152.144612,67.8338462 152.149328,68.2292628 C152.821303,68.2222436 153.493278,68.2292628 154.167611,68.2526603 C154.148749,68.7697436 154.132244,69.2891667 154.111024,69.80625 C153.453195,69.7945513 152.797725,69.7922115 152.144612,69.7922115 C152.144612,70.1993269 152.14697,70.6064423 152.151686,71.0135577 C152.873175,71.0112179 153.59938,71.0112179 154.325584,71.0205769 C154.320869,71.5376603 154.318511,72.0547436 154.318511,72.5741667 C152.98635,72.5835256 151.656546,72.5671474 150.326743,72.5882051 C150.26544,70.2274038 150.3291,67.8689423 150.291375,65.508141 Z" id="Path"></path>
                            <path d="M156.258987,65.4847436 C156.860228,65.4824038 157.463826,65.4800641 158.069783,65.4730449 C158.513051,66.603141 158.977539,67.7262179 159.347715,68.8820513 C159.430238,68.903109 159.597642,68.9475641 159.680165,68.9709615 C160.085708,67.8104487 160.623289,66.6990705 161.017042,65.5362179 C161.672513,65.4519872 162.335057,65.4590064 162.98817,65.5806731 C163.231024,67.9227564 163.683723,70.2414423 164.002027,72.5765064 C163.39607,72.5811859 162.787756,72.6045833 162.186515,72.5414103 C161.875284,71.2451923 161.887073,69.8951603 161.597063,68.5942628 C160.927446,69.8530449 160.550196,71.2498718 159.864074,72.4946154 C159.682523,72.5226923 159.321779,72.5765064 159.140228,72.6045833 C158.619152,71.2405128 158.095719,69.8764423 157.489762,68.5451282 C157.253981,69.8834615 157.070072,71.2288141 156.87909,72.5741667 C156.261344,72.5765064 155.645957,72.5765064 155.030569,72.5765064 C155.450259,70.2133654 155.851086,67.8478846 156.258987,65.4847436 Z" id="Path"></path>
                            <path d="M164.737663,65.5198397 C165.36484,65.4800641 165.994374,65.4753846 166.626267,65.4894231 C166.621551,67.8432051 166.616836,70.1946474 166.626267,72.5484295 C165.987301,72.5858654 165.338904,72.6326603 164.7188,72.4478205 C164.77303,70.1384936 164.735305,67.8291667 164.737663,65.5198397 Z" id="Path"></path>
                            <path d="M173.166825,65.4824038 C174.817291,65.5151603 176.474829,65.4028526 178.122937,65.5549359 C178.111148,66.0462821 178.104074,66.5376282 178.101717,67.0313141 C177.573568,67.0406731 177.047777,67.0476923 176.524343,67.0570513 C176.521986,68.8890705 176.521986,70.7234295 176.524343,72.5554487 C175.887735,72.5858654 175.239338,72.625641 174.621593,72.4525 C174.675822,70.6508974 174.635739,68.8469551 174.645171,67.0453526 C174.152389,67.0453526 173.659607,67.0453526 173.171541,67.0476923 C173.166825,66.5259295 173.166825,66.0041667 173.166825,65.4824038 Z" id="Path"></path>
                            <path d="M187.563599,65.5479167 C188.919338,65.5315385 190.27272,65.5408974 191.628459,65.5408974 C191.626101,66.055641 191.623744,66.5703846 191.623744,67.0874679 C190.895181,67.0851282 190.164261,67.0851282 189.438056,67.0874679 C189.438056,67.4828846 189.440414,67.8783013 189.447487,68.2737179 C190.157187,68.2713782 190.888108,68.1824679 191.571872,68.4351603 C191.505853,68.9054487 191.442192,69.3780769 191.366743,69.8483654 C190.723061,69.8343269 190.081737,69.8319872 189.440414,69.8343269 C189.438056,70.7585256 189.438056,71.6850641 189.435698,72.6116026 C188.813237,72.6162821 188.193133,72.6162821 187.575388,72.6186218 C187.558883,70.2625 187.580103,67.9040385 187.563599,65.5479167 Z" id="Path"></path>
                            <path d="M201.054974,65.5713141 C202.332906,65.5525962 203.634416,65.4332692 204.898201,65.6812821 C206.206784,65.964391 206.831603,67.6490064 206.128976,68.7486859 C205.937994,69.2985256 205.357973,69.4833654 204.884054,69.7126603 C205.511231,70.7327885 206.357684,71.5984936 207.015512,72.6022436 C206.27516,72.6162821 205.539524,72.6186218 204.801531,72.6303205 C204.138987,71.8254487 203.773526,70.7889423 202.957725,70.1127564 C202.927073,70.9480449 202.94122,71.7833333 202.931789,72.6186218 C202.351768,72.6139423 201.771748,72.6186218 201.196443,72.6396795 C200.993671,71.9190385 201.064405,71.1726603 201.062048,70.4379808 C201.05969,68.8141987 201.069121,67.1927564 201.054974,65.5713141 L201.054974,65.5713141 Z M202.938862,66.9330449 C202.936505,67.5296795 202.936505,68.1239744 202.94122,68.720609 C203.528314,68.6574359 204.478511,68.5919231 204.483226,67.808109 C204.443144,67.0430128 203.523599,66.9845192 202.938862,66.9330449 Z" id="Shape"></path>
                            <path d="M210.854023,65.5408974 C211.438759,65.5385577 212.028211,65.5385577 212.617663,65.5385577 C212.657746,67.3752564 212.530424,69.2213141 212.688397,71.0533333 C213.428749,71.0509936 214.1691,71.0486538 214.914168,71.0580128 C214.909452,71.5750962 214.909452,72.0921795 214.909452,72.6116026 C213.563144,72.625641 212.216836,72.6092628 210.872885,72.625641 C210.830445,70.2648397 210.865812,67.9016987 210.854023,65.5408974 Z" id="Path"></path>
                            <path d="M215.435243,65.6064103 C216.06242,65.5408974 216.694312,65.5221795 217.326205,65.5385577 C217.312058,67.9016987 217.352141,70.2648397 217.304984,72.6279808 C216.727322,72.6186218 216.154374,72.6162821 215.581427,72.6139423 C215.517766,71.5750962 215.381013,70.53625 215.461179,69.4950641 C215.609721,68.1988462 215.378656,66.9026282 215.435243,65.6064103 Z" id="Path"></path>
                            <path d="M218.615926,65.5362179 C219.976381,65.5432372 221.336836,65.5315385 222.697291,65.5455769 C222.694933,66.055641 222.694933,66.5657051 222.699648,67.0757692 C221.931003,67.0827885 221.164716,67.0874679 220.398428,67.0968269 C220.391355,67.4782051 220.386639,67.8572436 220.384281,68.2409615 C221.051541,68.2666987 221.721158,68.2433013 222.388418,68.2924359 C222.595905,68.7393269 222.435574,69.3289423 222.475657,69.8319872 C221.780103,69.8296474 221.08455,69.8343269 220.391355,69.8507051 C220.398428,70.7772436 220.405502,71.7037821 220.360703,72.6303205 C219.792472,72.6209615 219.22424,72.6209615 218.658366,72.6303205 C218.585274,70.9620833 218.644219,69.2938462 218.627715,67.625609 C218.613568,66.9283654 218.436732,66.2264423 218.615926,65.5362179 Z" id="Path"></path>
                            <path d="M223.682854,65.5572756 C225.050383,65.5525962 226.422627,65.4824038 227.787797,65.5853526 C227.851458,66.0673397 227.839669,66.5540064 227.846743,67.0406731 C227.082813,67.0874679 226.321241,67.0991667 225.562027,67.0898077 C225.562027,67.4828846 225.5691,67.8759615 225.576174,68.2713782 C226.274085,68.2666987 226.971996,68.2666987 227.672265,68.2713782 C227.669907,68.7908013 227.667549,69.3102244 227.669907,69.8319872 C226.96728,69.8319872 226.267011,69.8343269 225.5691,69.8413462 C225.562027,70.2367628 225.557311,70.6345192 225.552596,71.0322756 C226.316525,71.0369551 227.082813,71.0556731 227.8491,71.0977885 C227.844385,71.6195513 227.851458,72.1483333 227.672265,72.6466987 C226.342461,72.5882051 225.012658,72.6326603 223.685212,72.6116026 C223.68757,70.2601603 223.692285,67.9087179 223.682854,65.5572756 Z" id="Path"></path>
                        </g>
                        <g id="#645d95ff" transform="translate(55.000000, 1.000000)" fill="#645D95">
                            <path d="M1.78333333,0.15 C3.55714286,-0.366 5.47380952,1.348 4.61666667,2.776 C3.99285714,4.144 1.46904762,4.392 0.533333333,3.144 C-0.445238095,2.136 0.30952381,0.458 1.78333333,0.15 L1.78333333,0.15 Z M1.34047619,0.73 C1.25,0.766 1.06904762,0.838 0.978571429,0.874 L1.02619048,0.954 C0.395238095,1.582 0.473809524,2.486 1.03095238,3.126 C1.17619048,3.232 1.32619048,3.338 1.47619048,3.444 C2.73571429,3.924 4.36190476,3.206 4.36190476,2 C4.33571429,0.768 2.53571429,0.052 1.34047619,0.73 Z" id="Shape"></path>
                            <path d="M1.57619048,0.98 C1.68095238,1.018 1.8952381,1.094 2.00238095,1.132 C1.9452381,1.32 1.83095238,1.7 1.77380952,1.888 C2.22619048,1.764 3.55952381,1.946 3.12619048,1.266 C2.95952381,1.242 2.62142857,1.19 2.45238095,1.164 C2.63095238,1.11 2.98571429,0.998 3.16428571,0.944 C3.2547619,0.978 3.44047619,1.048 3.53333333,1.082 C3.58095238,1.496 3.42380952,1.866 3.00952381,2.11 C3.17857143,2.38 3.59761905,2.616 3.51666667,2.954 C2.90952381,2.728 2.66904762,1.978 1.85238095,2.028 C1.84285714,2.28 1.82142857,2.784 1.81190476,3.036 C1.46428571,2.388 1.56904762,1.67 1.57619048,0.98 Z" id="Path"></path>
                        </g>
                        <g id="#c2bfd5ff" transform="translate(56.000000, 1.000000)" fill="#C2BFD5">
                            <path d="M0.033,0.274 C0.147,0.238 0.375,0.166 0.489,0.13 C1.26,0.132 2.058,0.144 2.787,0.344 C2.562,0.398 2.115,0.51 1.89,0.564 C1.749,0.556 1.464,0.54 1.323,0.532 C1.188,0.494 0.918,0.418 0.786,0.38 C0.777,1.07 0.645,1.788 1.083,2.436 C0.939,2.572 0.798,2.708 0.66,2.844 C0.471,2.738 0.282,2.632 0.099,2.526 C0.624,1.856 0.747,1.008 0.093,0.354 L0.033,0.274 Z" id="Path"></path>
                        </g>
                        <g id="#009274ff" transform="translate(26.000000, 2.000000)" fill="#009274">
                            <path d="M66.2163455,0.169791045 C115.031794,0.127343284 163.847243,0.160358209 212.662691,0.153283582 C212.662691,19.6297313 212.669767,39.1085373 212.660332,58.5849851 C163.847243,58.5802687 115.034153,58.6038507 66.2210631,58.5755522 C66.2163455,39.1061791 66.2234219,19.636806 66.2163455,0.169791045 L66.2163455,0.169791045 Z M170.772691,5.19041791 C164.24588,13.8261791 157.704917,22.4501493 151.175748,31.0835522 C150.553023,31.9537313 149.800565,32.7272239 149.274551,33.665791 C149.189635,34.1822388 149.182558,34.7057612 149.227375,35.2292836 C149.526944,35.278806 149.824153,35.335403 150.133156,35.3495522 C150.140233,35.8046866 150.468106,36.2551045 150.97289,36.1584179 C155.605581,36.1112537 160.240631,36.1489851 164.875681,36.1348358 C165.227143,36.1159701 165.580963,36.0593731 165.937143,36.0051343 C165.974884,38.6274627 165.953654,41.2545075 165.946578,43.879194 C165.991395,44.6974925 165.500764,45.5275821 164.703488,45.7846269 C163.653821,46.2657015 162.457907,45.8954627 161.391728,46.2586269 C160.908173,46.3718209 161.023754,46.914209 160.957708,47.2844478 C161.276146,47.3740597 161.596944,47.4966866 161.93897,47.5037612 C161.969635,47.8409851 162.089934,48.3079104 162.528671,48.2583881 C165.118638,48.3432836 167.710963,48.0131343 170.305648,48.1003881 C172.119568,48.1286866 173.945282,48.4163881 175.754485,48.178209 C175.851196,48.0343582 176.044618,47.7466567 176.141329,47.602806 C175.877143,47.2207761 175.52804,46.824597 175.009103,46.9542985 C174.999668,46.6359403 174.884086,46.3081493 174.546777,46.2208955 C173.664585,45.9921493 172.735216,46.0982687 171.841229,45.9520597 C171.546379,45.6407761 171.34588,45.2563881 171.383621,44.8177612 C171.324651,42.2213731 171.374186,39.6226269 171.348239,37.0262388 C171.395415,36.7621194 171.270399,36.3447164 171.593555,36.2197313 C173.393322,35.8612836 175.299236,36.4767761 177.063621,35.9060896 C177.040033,35.4863284 177.037674,35.0665672 176.981063,34.6515224 C176.881993,34.1940299 176.363056,34.2694925 176.023389,34.1798806 C175.957342,33.925194 175.867708,33.6822985 175.787508,33.4346866 C174.303821,33.3969552 172.817774,33.4252537 171.336445,33.4252537 C171.388339,29.4375224 171.336445,25.449791 171.362392,21.4620597 C171.352957,20.7215821 171.414286,19.9315821 171.034518,19.264209 C170.841096,19.2995821 170.451894,19.3679701 170.258472,19.4033433 C170.220731,19.1085672 170.187708,18.813791 170.154684,18.5190149 C169.869269,18.5048657 169.574419,18.4600597 169.305515,18.5779701 C168.192159,18.9765075 167.088239,19.4033433 165.970166,19.794806 C165.894684,24.2989851 166.033854,28.8055224 165.90412,33.3049851 C165.234219,33.6822985 164.448738,33.5903284 163.71515,33.6021194 C160.051927,33.6068358 156.386346,33.5808955 152.723123,33.6186269 C159.018771,25.2988657 165.408771,17.0498507 171.742159,8.75838806 C172.445083,7.80331343 173.256512,6.91898507 173.810831,5.86014925 C173.45701,5.54650746 172.997043,5.52764179 172.553588,5.50877612 C172.584252,5.28002985 172.607841,5.05128358 172.624352,4.8201791 C172.006346,4.69755224 171.185482,4.60322388 170.772691,5.19041791 L170.772691,5.19041791 Z M90.6795017,10.6921194 C87.8607309,12.2744776 85.9076412,15.0972537 84.8768439,18.113403 C84.7164452,18.7477612 84.5584053,19.3844776 84.393289,20.0188358 C84.3012957,20.8866567 84.2965781,21.7639104 84.1904319,22.6317313 C84.2800664,26.4355224 86.1104983,30.3548657 89.4765116,32.3074627 C92.8755482,35.2740896 98.4446844,35.403791 101.985249,32.5998806 C102.421628,32.3664179 102.25887,31.8428955 102.268306,31.4467164 C101.921561,31.4726567 101.53,31.3830448 101.239867,31.6165075 C101.270532,31.4231343 101.336578,31.0387463 101.369601,30.8453731 C101.206844,30.7722687 100.883688,30.6260597 100.723289,30.550597 C99.8080731,31.0481791 98.9353156,31.6896119 97.8880066,31.871194 C96.1943854,32.2272836 94.3262126,31.9089254 92.9486711,30.8288657 C89.6722924,26.6996418 88.8396346,20.7711045 90.903588,15.9155522 C91.6418937,14.3261194 92.6986379,12.7885672 94.3049834,11.9844179 C96.3689369,10.7958806 98.9565449,10.946806 101.046445,11.9867761 C102.423987,13.2036119 103.624618,14.6704179 104.322824,16.387194 C105.065847,18.1652836 105.709801,20.0235522 105.872558,21.9549254 L105.98814,22.1270746 C106.240532,25.324806 106.035316,28.5744179 105.023389,31.6377313 L104.931395,31.7910149 C103.223621,36.8446567 99.9731894,41.2804478 96.1401329,44.9427463 C93.2152159,47.8315522 89.7548505,50.1638209 85.9784053,51.7862687 C85.4547508,51.9890746 84.9546844,52.3687463 84.9688372,52.986597 C85.3179402,53.1139403 85.6859136,53.2931642 86.0609635,53.1304478 C86.0468106,53.3073134 86.018505,53.6586866 86.0043522,53.8355522 C86.3204319,53.9110149 86.6506645,54.024209 86.9832558,53.9322388 C88.400897,53.618597 89.67701,52.8969851 90.9861462,52.2932836 C96.331196,49.6143582 101.334219,46.1053433 105.207375,41.5139104 C108.287973,37.9789552 110.564219,33.6563582 111.31196,28.9988955 C111.996013,24.2329552 111.125615,19.0897015 108.174751,15.1892239 C107.438804,14.0077612 106.26412,13.2389851 105.252193,12.3405075 L105.219169,12.2367463 C103.282591,10.732209 101.09598,9.4281194 98.6263123,9.0838209 C95.9066113,8.72301493 93.0123588,9.19465672 90.6795017,10.6921194 L90.6795017,10.6921194 Z M118.397807,11.0906567 C115.98711,12.7178209 114.137807,15.2387463 113.6401,18.1393433 C113.578771,19.1840299 113.555183,20.2522985 113.871262,21.2663284 C114.380764,23.5797313 116.076744,25.4710149 118.060498,26.6807761 C119.058272,27.638209 120.376844,28.1475821 121.610498,28.7253433 C118.959203,29.7959701 116.208837,30.9467761 114.163754,33.0078507 C112.505515,34.7128358 111.842691,37.3139403 112.413522,39.6155522 C113.019734,42.5444478 115.161528,44.9120896 117.635914,46.4685075 C117.836412,46.6642388 118.041628,46.8576119 118.27515,47.0226866 C121.733156,49.1969552 126.066279,49.5719104 129.998405,48.7182388 C132.826611,48.1168955 135.529801,46.6783881 137.376744,44.4239403 C139.664784,41.7190746 140.73804,37.7761493 139.447774,34.387403 C138.759003,32.4583881 137.284751,30.9373433 135.664252,29.7417313 C134.201794,28.5060299 132.486944,27.5580299 130.668306,26.9661194 C132.390233,26.171403 134.159336,25.4427164 135.735017,24.376806 C137.126711,23.497194 138.27309,22.1482985 138.652857,20.5211343 C139.183588,18.497791 138.700033,16.3895522 137.789535,14.5548657 C137.32485,14.0808657 137.072458,13.418209 136.487475,13.0644776 C135.900133,12.7720597 135.534518,12.1942985 134.975482,11.8688657 L134.9401,11.7674627 C133.435183,10.5176119 131.588239,9.77949254 129.701196,9.33379104 C125.889369,8.48719403 121.749668,9.05552239 118.397807,11.0906567 L118.397807,11.0906567 Z M174.740199,11.5198507 C172.822492,14.6020299 173.504186,19.2665672 176.639037,21.2899104 C177.365548,21.9384179 178.226512,22.5208955 179.233721,22.582209 C180.682027,22.7755821 182.120897,22.0681194 183.052625,20.9833433 C184.486777,19.1887463 185.128372,16.7314925 184.543389,14.4864776 C184.140033,12.9583582 183.352193,11.4160896 181.951063,10.586 C181.191528,9.78185075 180.189037,9.13098507 179.059169,9.06495522 C177.278272,8.85979104 175.570498,9.99173134 174.740199,11.5198507 L174.740199,11.5198507 Z M186.036512,12.1730746 C186.045947,12.8828955 185.890266,13.7082687 186.470532,14.2530149 C187.022492,15.1279104 188.161794,15.1868657 189.072292,14.9510448 C190.046478,14.5690149 190.558339,13.4582985 190.449834,12.4513433 C190.053555,11.4915522 189.15485,10.6237313 188.043854,10.7534328 C187.121561,10.7369254 186.564884,11.545791 186.036512,12.1730746 L186.036512,12.1730746 Z M141.757043,25.7186269 C140.077575,26.9684776 140.346478,29.9846269 142.259468,30.8807463 C143.205349,32.029194 145.191462,32.1824776 146.236412,31.1000597 C147.293156,29.6426866 147.182292,27.0038507 145.382525,26.1784776 C144.578173,25.0418209 142.853887,25.0135224 141.757043,25.7186269 Z" id="Shape"></path>
                            <path d="M124.521262,11.0788657 C126.936678,10.6378806 129.533721,10.9703881 131.656645,12.2438209 C134.845748,14.9251045 135.062757,20.3914328 132.017542,23.2566567 C131.01505,24.332 129.656379,24.9805075 128.295349,25.4757313 C127.139535,25.9049254 125.90588,25.5087463 124.787807,25.1573731 C123.108339,24.6456418 121.461894,23.9122388 120.096146,22.7991642 C119.353123,21.4266866 118.419037,20.0400597 118.482724,18.4105373 C118.308173,16.4579403 119.289435,14.6421194 120.544319,13.2224776 C121.546811,12.0433731 123.037575,11.3995821 124.521262,11.0788657 Z" id="Path"></path>
                            <path d="M186.208704,12.1494925 C186.696977,11.6141791 187.194684,10.9444478 188.001395,10.9397313 C189.395449,10.755791 190.577209,12.1329851 190.287076,13.486597 C189.900233,14.1728358 189.362425,14.9062388 188.487309,14.896806 C187.515482,15.1090448 186.751229,14.4699701 186.21814,13.7483582 C186.211063,13.215403 186.206346,12.6800896 186.208704,12.1494925 L186.208704,12.1494925 Z M187.213555,11.5858806 C187.218272,12.4796418 187.187608,13.4040597 187.546146,14.2459403 C187.586246,13.8096716 187.619269,13.373403 187.640498,12.9347761 C187.918837,12.9866567 188.206611,13.0361791 188.492027,13.0974925 C188.713754,13.5172537 188.921329,13.9912537 189.397807,14.1775522 C189.319967,13.6776119 188.996811,13.2814328 188.676013,12.9135522 C188.836412,12.8168657 189.159568,12.6211343 189.322326,12.5220896 C189.29402,12.3499403 189.242126,12.0032836 189.216179,11.8287761 C188.647708,11.4042985 187.869302,11.578806 187.213555,11.5858806 Z" id="Shape"></path>
                            <path d="M177.929302,12.1023284 C178.731296,11.477403 179.783322,11.5174925 180.740997,11.5953134 C180.781096,11.5976716 180.858937,11.6023881 180.899037,11.6047463 C181.946346,12.8852537 182.635116,14.5690149 182.319037,16.2409851 C182.073721,17.8398507 181.111329,19.5401194 179.464884,20.0046866 C178.672326,20.2664478 177.849103,20.0306269 177.115515,19.7217015 C176.655548,18.7784179 176.084718,17.8327761 176.063488,16.7527164 C175.88186,15.0359403 176.511661,13.1470149 177.929302,12.1023284 Z" id="Path"></path>
                            <path d="M15.0939867,27.3646567 C15.2190033,27.3976716 15.4713953,27.4613433 15.596412,27.492 C15.7190698,29.5153433 16.8324252,31.6353731 18.8374086,32.3239701 C20.6300997,33.0054925 22.5383721,32.378209 24.1824585,31.5976418 C23.9536545,33.3780896 23.4205648,35.132597 22.4628904,36.6607164 C21.3424585,38.1746866 19.7880066,39.443403 17.9127575,39.8537313 C15.0255814,40.5376119 11.5982392,40.1697313 9.42342193,37.9742388 C7.65431894,36.4107463 6.89714286,34.0454627 6.5079402,31.7886567 C7.40900332,32.029194 8.26524917,32.5008358 9.22292359,32.4678209 C11.2727243,32.4678209 13.008804,31.0906269 14.2919934,29.6143881 C14.8722591,29.0036119 15.0609635,28.1829552 15.0939867,27.3646567 Z" id="Path"></path>
                            <path d="M123.127209,30.6496418 C123.948073,30.178 124.905748,29.7912537 125.863422,30.0742388 C127.896711,30.5576716 129.859236,31.3382388 131.715615,32.2956716 C133.218173,33.3427164 134.197076,35.0335522 134.680631,36.7762687 C135.6501,41.0941493 132.692159,45.9449851 128.328372,46.8906269 C125.504884,47.5108358 122.351163,47.298597 119.883854,45.6808657 C117.390598,43.1057015 116.569734,39.0212836 118.067575,35.7386567 C118.994585,33.439403 121.046744,31.8546866 123.127209,30.6496418 Z" id="Path"></path>
                            <path d="M17.4409967,55.6466567 C19.6464784,54.2859701 22.0878405,52.9936716 24.7674419,53.2035522 C26.3407641,53.2318507 27.7418937,54.3944478 28.2089369,55.8683284 C28.4542525,56.6371045 28.7113621,57.4223881 28.7066445,58.2383284 C28.7113621,63.5065672 28.7019269,68.7724478 28.7113621,74.0406866 C28.8175083,76.4319104 26.7488372,78.7830448 24.3074751,78.7806866 C18.0118272,78.8160597 11.7161794,78.7783284 5.42053156,78.7995522 C4.69401993,78.797194 3.95335548,78.7948358 3.2551495,78.5778806 C1.3020598,77.9317313 -0.0330232558,75.8470746 0.0967109635,73.8119403 C0.110863787,67.9093433 0.0919933555,62.0067463 0.106146179,56.1041493 C2.02385382,56.9837612 4.00760797,57.8091343 6.12109635,58.042597 C10.0178405,58.4293433 14.0867774,57.7289552 17.4409967,55.6466567 Z" id="Path"></path>
                            <path d="M85.7731894,64.5418209 C87.1837542,63.4405373 89.3137542,63.4004478 90.7903654,64.4003284 C91.5263123,64.9002687 91.9650498,65.6973433 92.3212292,66.4897015 C92.4297342,67.5343881 92.3471761,68.6356716 91.7079402,69.5152836 C90.2478405,71.934806 86.030299,71.7791642 84.8532558,69.1639104 C83.9569103,67.6452239 84.4263123,65.6313134 85.7731894,64.5418209 L85.7731894,64.5418209 Z M87.5540864,65.6218806 C85.9760465,66.2161493 86.0491694,68.6474627 87.5611628,69.2700299 C88.9221927,69.9421194 90.5639203,68.6616119 90.4271096,67.2136716 C90.2926578,65.9048657 88.7358472,65.0653433 87.5540864,65.6218806 Z" id="Shape"></path>
                            <path d="M77.2060133,63.8815224 C77.9631894,63.9192537 78.7604651,63.7541791 79.4940532,63.978209 C79.9728904,64.5158806 80.3196346,65.1549552 80.711196,65.7586567 C81.2961794,65.2610746 81.6051827,64.5394627 82.0910963,63.9593433 C82.829402,63.7683284 83.6101661,63.9074627 84.3649834,63.9051045 C83.4592027,65.1030746 82.6218272,66.3505672 81.7372757,67.5603284 C81.7301993,68.7158507 81.7372757,69.8690149 81.7278405,71.0221791 C81.1121927,71.0245373 80.4989037,71.0292537 79.8856146,71.0363284 C79.8384385,69.9987164 79.880897,68.9587463 79.8620266,67.9211343 C79.9092027,67.5556119 79.6332226,67.2844179 79.4586711,67.003791 C78.6967774,65.9708955 77.9844186,64.9026269 77.2060133,63.8815224 Z" id="Path"></path>
                            <path d="M93.2152159,63.8720896 C93.8072757,63.8720896 94.4016944,63.876806 94.9937542,63.8862388 C94.9984718,65.2280597 94.9701661,66.5698806 94.9984718,67.9117015 C95.0621595,68.4517313 95.1022591,69.1615522 95.6707309,69.4303881 C96.222691,69.6567761 97.029402,69.5954627 97.3336877,69.0059104 C97.5436213,68.685194 97.534186,68.2913731 97.5506977,67.9258507 C97.5648505,66.5698806 97.5271096,65.2139104 97.5695681,63.8602985 C98.1875748,63.8673731 98.8079402,63.876806 99.4283056,63.9145373 C99.3929236,65.4921791 99.4566113,67.0698209 99.3976412,68.6451045 C99.3599003,69.621403 98.7937874,70.6212836 97.8196013,70.9207761 C96.2910963,71.4442985 94.0832558,71.2768657 93.3543854,69.5931045 C93.0666113,67.7041791 93.2789037,65.7775224 93.2152159,63.8720896 Z" id="Path"></path>
                            <path d="M100.62186,71.043403 C100.577043,68.6521791 100.586478,66.258597 100.617143,63.8673731 C101.980532,63.9522687 103.417043,63.6716418 104.728538,64.1621493 C106.002292,64.7399104 106.198073,66.5557313 105.330033,67.5579701 C105.028106,67.8150149 104.64598,67.9470746 104.299236,68.1286567 C105.068206,69.0790149 105.782924,70.0718209 106.554252,71.0245373 C105.792359,71.0127463 105.025748,71.0811343 104.268571,70.9938806 C103.549136,70.2746269 103.299103,69.1827761 102.478239,68.5578507 C102.447575,69.3431343 102.461728,70.1307761 102.490033,70.9184179 C101.874385,71.0363284 101.246944,71.0504776 100.62186,71.043403 L100.62186,71.043403 Z M102.471163,65.2516418 C102.461728,65.874209 102.464086,66.4991343 102.47588,67.1217015 C102.999535,67.0179403 103.914751,67.003791 103.921827,66.2751045 C104.056279,65.4450149 103.034917,65.3577612 102.471163,65.2516418 Z" id="Shape"></path>
                            <path d="M66.4286379,76.5050149 C115.241728,76.5238806 164.054817,76.5238806 212.867907,76.5592537 C212.863189,77.3374627 212.863189,78.1180299 212.867907,78.898597 C164.057176,78.9151045 115.244086,78.8750149 66.4333555,78.8655821 C66.4286379,78.0779403 66.4286379,77.2926567 66.4286379,76.5050149 Z" id="Path"></path>
                        </g>
                        <g id="#fffffeff" transform="translate(111.000000, 7.000000)" fill="#FFFFFE">
                            <path d="M86.2961947,0.468349515 C86.7065929,-0.11184466 87.5226991,-0.0186407767 88.1371239,0.102524272 C88.120708,0.330873786 88.0972566,0.556893204 88.0667699,0.782912621 C81.2823009,9.73281553 74.3547788,18.5825243 67.5187168,27.4951456 C67.2912389,27.7864078 67.2091593,28.1452427 67.1599115,28.5017476 C67.5515487,28.5250485 67.9525664,28.5530097 68.3512389,28.5576699 C71.9932301,28.5203883 75.6375664,28.5460194 79.2795575,28.5413592 C80.0088938,28.5297087 80.789823,28.6205825 81.4558407,28.247767 C81.584823,23.8019417 81.4464602,19.3491262 81.5215044,14.8986408 C82.6330973,14.5118447 83.7306195,14.0900971 84.8375221,13.6963107 C85.1048673,13.5798058 85.3980088,13.6240777 85.6817699,13.6380583 C85.7146018,13.9293204 85.7474336,14.2205825 85.7849558,14.5118447 C85.9678761,15.8027184 85.8693805,17.1099029 85.8904867,18.4100971 C85.9045575,21.5067961 85.8670354,24.6034951 85.9069027,27.7001942 C85.7849558,28.2687379 86.4369027,28.3596117 86.8566814,28.3666019 C88.3294248,28.3666019 89.8068584,28.3386408 91.2819469,28.3759223 C91.3616814,28.6205825 91.4507965,28.8605825 91.5164602,29.112233 C91.5258407,29.4454369 91.5258407,29.7809709 91.5211504,30.1165049 C89.6638053,30.4613592 87.7572124,30 85.9069027,30.384466 C85.8881416,33.2248544 85.8529646,36.0675728 85.9326991,38.9079612 C85.8857965,39.791068 86.5260177,40.5180583 87.3585398,40.7440777 C88.2473451,40.8885437 89.1713274,40.7836893 90.0484071,41.0097087 C90.3837611,41.0959223 90.4986726,41.4198058 90.5080531,41.7343689 C90.4634956,41.8135922 90.3743805,41.9743689 90.3321681,42.0559223 C89.1947788,42.4869903 87.9588938,42.1561165 86.779292,42.1654369 C83.6907522,41.9254369 80.6022124,42.2097087 77.5136726,42.2772816 C77.1736283,42.2702913 76.8546903,42.1491262 76.5380973,42.0605825 C76.6037611,41.6947573 76.4888496,41.158835 76.9696018,41.0469903 C78.0296018,40.6881553 79.2185841,41.0539806 80.2621681,40.5786408 C81.054823,40.3246602 81.5426106,39.504466 81.4980531,38.6959223 C81.5050885,36.1025243 81.5261947,33.5067961 81.4886726,30.9157282 C81.4816372,30.8481553 81.4699115,30.7153398 81.4652212,30.6500971 C80.9328761,30.144466 80.1613274,30.2586408 79.4906195,30.2376699 C74.9199558,30.2656311 70.3469469,30.2143689 65.7762832,30.2679612 C65.4690708,30.2539806 65.1735841,30.1980583 64.8757522,30.1491262 C64.8311947,29.6318447 64.8382301,29.1145631 64.9226549,28.6042718 C65.4456195,27.6768932 66.1937168,26.9126214 66.8128319,26.0528155 C73.3041593,17.5223301 79.8072124,9.00116505 86.2961947,0.468349515 Z" id="Path"></path>
                            <path d="M6.66721239,5.90446602 C8.98654867,4.42485437 11.8640265,3.95883495 14.5679646,4.31533981 C17.0233186,4.65553398 19.1972566,5.94407767 21.1226106,7.43067961 L21.1554425,7.53320388 C21.2867699,8.20893204 22.0559735,8.36504854 22.4734071,8.81242718 C24.4245575,11.1332039 25.669823,13.9945631 26.1411947,16.9794175 C26.8658407,21.1223301 26.0825664,25.4353398 24.2861947,29.2170874 C22.4945133,33.0990291 19.6404867,36.3891262 16.4909735,39.2504854 C13.5759735,41.8765049 10.229469,43.9782524 6.77274336,45.8190291 C5.23902655,46.56 3.72641593,47.3778641 2.07544248,47.8368932 C1.70256637,47.9976699 1.33672566,47.8205825 0.989646018,47.6947573 C0.975575221,47.0842718 1.47274336,46.7091262 1.99336283,46.5087379 C5.74792035,44.9056311 9.18823009,42.601165 12.0961947,39.7467961 C15.9070354,36.1281553 19.1386283,31.7452427 20.8365044,26.7518447 L20.9279646,26.6003883 C21.9340265,23.5735922 22.1380531,20.3627184 21.8871239,17.2031068 L21.7722124,17.0330097 C21.6103982,15.1246602 20.970177,13.2885437 20.2314602,11.5316505 C19.5373009,9.83533981 18.3436283,8.38601942 16.9740708,7.18368932 C15.8577876,6.32854369 14.5374779,5.68543689 13.1210177,5.56194175 C11.1042035,5.37553398 9.06628319,6.19106796 7.62637168,7.58213592 C5.5509292,9.87728155 4.73013274,13.0532039 4.78641593,16.0846602 C4.74420354,18.5638835 5.51106195,20.9941748 6.65548673,23.1751456 C7.19252212,24.2143689 8.03207965,25.055534 8.92323009,25.801165 C10.2927876,26.8683495 12.1501327,27.1829126 13.8339381,26.831068 C14.875177,26.6516505 15.7428761,26.0178641 16.6527876,25.5262136 C16.8122566,25.6007767 17.1335398,25.7452427 17.295354,25.8174757 C17.2625221,26.0085437 17.1968584,26.3883495 17.1663717,26.5794175 C13.9300885,29.2473786 9.01,29.4617476 5.47119469,27.2621359 C2.12469027,25.3328155 0.304867257,21.4601942 0.215752212,17.7017476 C0.321283186,16.8442718 0.325973451,15.9774757 0.417433628,15.12 C0.58159292,14.4932039 0.738716814,13.8640777 0.898185841,13.2372816 C1.92300885,10.2570874 3.86477876,7.46796117 6.66721239,5.90446602 Z" id="Path"></path>
                            <path d="M34.2248673,6.29825243 C37.5573009,4.28737864 41.6730088,3.72582524 45.4627434,4.5623301 C47.3388496,5.00271845 49.1750885,5.73203883 50.6712832,6.96699029 L50.7064602,7.06718447 C50.8870354,7.79883495 51.6867257,8.04815534 52.1604425,8.54446602 C53.7715487,10.8582524 54.1326991,14.1436893 52.594292,16.5809709 C50.7580531,19.1673786 47.5475664,20.1064078 44.8436283,21.5067961 C45.3712832,21.6605825 45.8989381,21.8143689 46.4242478,21.984466 C48.2323451,22.5693204 49.9372566,23.5060194 51.3912389,24.7269903 C53.035177,26.1460194 54.3437611,28.0939806 54.5688938,30.2866019 C54.6204867,31.7196117 54.7002212,33.1992233 54.2218142,34.5763107 C53.1923009,37.8990291 50.5141593,40.608932 47.2919469,41.9021359 C44.4824779,43.0648544 41.3470354,43.2768932 38.3476106,42.9250485 C36.6286283,42.696699 34.9940708,42.0535922 33.4673894,41.2543689 C31.0073451,39.7165049 28.8779646,37.3770874 28.2752655,34.4831068 C27.7077434,32.208932 28.3667257,29.638835 30.015354,27.9541748 C32.0485841,25.9176699 34.7830088,24.7805825 37.4189381,23.7227184 C37.5455752,23.6737864 37.8011947,23.5805825 37.9278319,23.5339806 C36.5442035,23.0097087 35.1723009,22.441165 33.8895133,21.7025243 C31.9172566,20.5071845 30.2311062,18.6384466 29.7245575,16.3526214 C29.4103097,15.3506796 29.4337611,14.2951456 29.4947345,13.2629126 C29.9895575,10.3968932 31.8281416,7.90601942 34.2248673,6.29825243 L34.2248673,6.29825243 Z M36.1549115,6.84116505 C35.0128319,7.82213592 34.1099558,9.09203883 33.5705752,10.4947573 C33.4486283,10.9491262 33.3829646,11.4174757 33.2328761,11.8648544 C33.2399115,12.2702913 33.2352212,12.6780583 33.2610177,13.0834951 C33.354823,13.4702913 33.4228319,13.8617476 33.4908407,14.255534 C33.9997345,15.6186408 34.7337611,16.9654369 35.9133628,17.8671845 C37.2711947,18.9669903 38.9080973,19.6916505 40.5778319,20.1972816 C41.6894248,20.544466 42.9159292,20.9359223 44.0650442,20.5118447 C45.4181858,20.0225243 46.7689823,19.3817476 47.7656637,18.3192233 C50.7932301,15.4881553 50.5774779,10.0869903 47.4068584,7.4376699 C44.3558407,4.82097087 39.4685841,4.55067961 36.1549115,6.84116505 L36.1549115,6.84116505 Z M39.2035841,24.2702913 C38.1177876,24.6361165 37.1445575,25.2605825 36.2252655,25.9246602 C34.8299115,26.9499029 33.549469,28.2198058 32.8857965,29.8415534 C32.6794248,30.3658252 32.4965044,30.8970874 32.3135841,31.4306796 C32.1259735,33.001165 32.0814159,34.6275728 32.5574779,36.1561165 C32.7169469,36.5405825 32.8693805,36.9250485 33.0171239,37.3141748 C33.6831416,38.5304854 34.5531858,39.672233 35.7023009,40.4761165 C38.1553097,42.0745631 41.2907522,42.2842718 44.0978761,41.6714563 C48.4363717,40.7370874 51.3771681,35.9440777 50.4133186,31.6776699 C49.9325664,29.9557282 48.9593363,28.2850485 47.4654867,27.2504854 C45.7253982,25.8920388 43.6147788,25.1417476 41.5323009,24.4846602 C40.774823,24.3099029 39.9704425,23.9697087 39.2035841,24.2702913 Z" id="Shape"></path>
                            <path d="M90.240708,6.7223301 C91.0661947,5.21242718 92.7640708,4.09398058 94.534646,4.29669903 C95.6579646,4.36194175 96.654646,5.00504854 97.4097788,5.79961165 C99.8627876,8.56776699 99.7384956,13.2372816 96.9993805,15.7631068 C95.7259735,16.9933981 93.6716372,17.2403883 92.1285398,16.3759223 C89.0118584,14.376699 88.334115,9.76776699 90.240708,6.7223301 L90.240708,6.7223301 Z M91.0403982,8.17398058 C90.6346903,9.04776699 90.4588053,10.0147573 90.4681858,10.9724272 C90.5737168,11.3638835 90.6417257,11.7646602 90.7026991,12.1654369 C91.0919912,13.2023301 91.6712389,14.1786408 92.6022566,14.8264078 C93.3315929,15.1316505 94.1500442,15.3646602 94.9380088,15.1060194 C96.5749115,14.6469903 97.5317257,12.9669903 97.7756195,11.3871845 C98.0898673,9.73514563 97.4050885,8.07145631 96.3638496,6.80621359 C96.3239823,6.8038835 96.2465929,6.7992233 96.2067257,6.7968932 C95.4140708,6.01864078 94.1688053,5.73436893 93.1275664,6.13514563 C92.1730973,6.48 91.4859735,7.29553398 91.0403982,8.17398058 Z" id="Shape"></path>
                            <path d="M101.471549,7.36776699 C101.996858,6.74796117 102.55031,5.94873786 103.467257,5.96504854 C104.571814,5.8368932 105.46531,6.69436893 105.859292,7.64271845 C105.967168,8.6376699 105.458274,9.73514563 104.489735,10.1126214 C103.584513,10.3456311 102.451814,10.2873786 101.903053,9.42291262 C101.32615,8.88466019 101.480929,8.06912621 101.471549,7.36776699 L101.471549,7.36776699 Z M101.642743,7.34446602 C101.640398,7.86873786 101.645088,8.3976699 101.652124,8.92427184 C102.182124,9.63728155 102.941947,10.2687379 103.908142,10.0590291 C104.778186,10.0683495 105.312876,9.34368932 105.697478,8.66563107 C105.985929,7.32815534 104.811018,5.96737864 103.425044,6.14912621 C102.623009,6.15378641 102.128186,6.81553398 101.642743,7.34446602 Z" id="Shape"></path>
                            <path d="M102.64177,6.78757282 C103.293717,6.78058252 104.067611,6.60815534 104.632788,7.02757282 C104.658584,7.2 104.710177,7.54252427 104.738319,7.71262136 C104.576504,7.81048544 104.255221,8.0038835 104.095752,8.09941748 C104.41469,8.46291262 104.735973,8.85436893 104.813363,9.34834951 C104.339646,9.16427184 104.133274,8.69592233 103.912832,8.28116505 C103.629071,8.22058252 103.342965,8.17165049 103.066239,8.12038835 C103.045133,8.55378641 103.012301,8.98485437 102.972434,9.41592233 C102.615973,8.58407767 102.64646,7.67067961 102.64177,6.78757282 L102.64177,6.78757282 Z M103.040442,7.01825243 C103.042788,7.30019417 103.047478,7.58446602 103.056858,7.86640777 C103.455531,7.84543689 103.858894,7.82213592 104.264602,7.79650485 C104.266947,7.56116505 104.271637,7.32582524 104.278673,7.09048544 C103.863584,7.06252427 103.450841,7.0392233 103.040442,7.01825243 Z" id="Shape"></path>
                            <path d="M57.4487168,20.7518447 C58.5392035,20.0551456 60.2534956,20.0831068 61.0531858,21.2062136 C61.7473451,22.4598058 61.7731416,24.1304854 60.8726106,25.2885437 C60.1620354,26.1203883 58.9238053,26.0900971 57.9482301,25.8524272 C56.0463274,24.9669903 55.7789823,21.9867961 57.4487168,20.7518447 Z" id="Path"></path>
                        </g>
                        <g id="#191818ff" transform="translate(112.000000, 8.000000)" fill="#191818">
                            <path d="M65.9787857,26.7961165 C72.8498571,17.8834951 79.8128571,9.03378641 86.6320714,0.0838834951 C87.0752143,0.102524272 87.5348571,0.121165049 87.8884286,0.431067961 C87.3345,1.47728155 86.5236429,2.35106796 85.8212143,3.29475728 C79.4922857,11.4873786 73.1067857,19.6380583 66.8155714,27.8586408 C66.4148571,27.8539806 66.0117857,27.8260194 65.6181429,27.8027184 C65.6676429,27.4462136 65.7501429,27.0873786 65.9787857,26.7961165 Z" id="Path"></path>
                            <path d="M34.4543571,6.14213592 C37.785,3.85165049 42.6972857,4.12194175 45.7639286,6.73864078 C43.6425,5.48038835 41.0472857,5.15184466 38.6335714,5.58757282 C37.1509286,5.90446602 35.6612143,6.54058252 34.6594286,7.70563107 C33.4054286,9.10834951 32.4248571,10.9025243 32.5992857,12.8318447 C32.5356429,14.4419417 33.4690714,15.8120388 34.2115714,17.1681553 C33.0259286,16.2664078 32.2881429,14.9196117 31.7766429,13.5565049 C31.7082857,13.1627184 31.6399286,12.7712621 31.5456429,12.384466 C31.5197143,11.9790291 31.5244286,11.5712621 31.5173571,11.1658252 C31.6682143,10.7184466 31.7342143,10.2500971 31.8567857,9.79572816 C32.3989286,8.39300971 33.3064286,7.1231068 34.4543571,6.14213592 Z" id="Path"></path>
                            <path d="M5.77971429,6.8831068 C7.227,5.49203883 9.27535714,4.67650485 11.3025,4.86291262 C12.7262143,4.98640777 14.0532857,5.62951456 15.1752857,6.48466019 C13.0868571,5.45708738 10.5010714,5.30796117 8.43857143,6.4823301 C6.83335714,7.2768932 5.77735714,8.7961165 5.03957143,10.3666019 C2.97707143,15.1642718 3.80914286,21.0221359 7.08321429,25.1021359 C6.1875,24.3565049 5.34364286,23.5153398 4.80385714,22.4761165 C3.65357143,20.2951456 2.88278571,17.8648544 2.92521429,15.3856311 C2.86864286,12.3541748 3.69364286,9.17825243 5.77971429,6.8831068 Z" id="Path"></path>
                            <path d="M96.0229286,5.10058252 C97.4230714,5.9207767 98.2103571,7.44466019 98.6134286,8.95456311 C99.198,11.1728155 98.5568571,13.6007767 97.1237143,15.3739806 C96.1926429,16.4458252 94.7547857,17.1448544 93.3075,16.9537864 C92.301,16.8932039 91.4406429,16.3176699 90.7146429,15.6768932 C92.2656429,16.5413592 94.3305,16.2943689 95.6104286,15.0640777 C98.3635714,12.5382524 98.4885,7.86873786 96.0229286,5.10058252 Z" id="Path"></path>
                            <path d="M89.6209286,7.47495146 C90.0687857,6.59650485 90.7594286,5.78097087 91.7187857,5.4361165 C92.7653571,5.03533981 94.017,5.31961165 94.8137143,6.09786408 C93.8567143,6.02097087 92.8054286,5.98135922 92.004,6.59883495 C90.5873571,7.63106796 89.958,9.49747573 90.1395,11.1937864 C90.1607143,12.2609709 90.7311429,13.1953398 91.1907857,14.1273786 C90.255,13.4796117 89.6727857,12.503301 89.2815,11.4664078 C89.2202143,11.0656311 89.1518571,10.6648544 89.0457857,10.2733981 C89.0363571,9.31572816 89.2131429,8.34873786 89.6209286,7.47495146 Z" id="Path"></path>
                            <path d="M49.0804286,6.36815534 C49.6390714,6.68970874 50.0044286,7.26058252 50.5913571,7.54951456 C51.1759286,7.89902913 51.4281429,8.55378641 51.8925,9.02213592 C52.8023571,10.8349515 53.2855714,12.9180583 52.7552143,14.9172816 C52.3757143,16.5250485 51.2301429,17.8578641 49.8394286,18.7269903 C48.2648571,19.7801942 46.497,20.5001942 44.7762857,21.2854369 C44.2482857,21.1153398 43.7179286,20.9615534 43.1875714,20.807767 C45.9053571,19.4073786 49.1322857,18.4683495 50.9779286,15.8819417 C52.5242143,13.4446602 52.1612143,10.1592233 50.5418571,7.84543689 C50.0657143,7.34912621 49.2619286,7.09980583 49.0804286,6.36815534 Z" id="Path"></path>
                            <path d="M19.3780714,6.83417476 C20.3892857,7.72194175 21.5631429,8.4815534 22.2985714,9.64893204 C25.2473571,13.5029126 26.1171429,18.5848544 25.4335714,23.2939806 C24.6863571,27.8959223 22.4117143,32.1669903 19.3332857,35.6598058 C15.4628571,40.1965049 10.4633571,43.6636893 5.12207143,46.3106796 C3.81385714,46.9071845 2.53864286,47.6201942 1.122,47.9300971 C0.789642857,48.0209709 0.459642857,47.9091262 0.143785714,47.8345631 C0.157928571,47.6598058 0.186214286,47.3126214 0.200357143,47.1378641 C1.85978571,46.678835 3.38014286,45.8609709 4.92171429,45.12 C8.39614286,43.2792233 11.7597857,41.1774757 14.6897143,38.5514563 C17.8553571,35.6900971 20.724,32.4 22.5248571,28.5180583 C24.3304286,24.7363107 25.1177143,20.423301 24.3893571,16.2803883 C23.9155714,13.295534 22.6639286,10.4341748 20.7027857,8.11339806 C20.2832143,7.66601942 19.5100714,7.50990291 19.3780714,6.83417476 Z" id="Path"></path>
                            <path d="M84.3385714,13.8128155 C84.5318571,13.7778641 84.9207857,13.7102913 85.1140714,13.6753398 C85.4935714,14.3347573 85.4322857,15.1153398 85.4417143,15.8469903 C85.4157857,19.7871845 85.4676429,23.7273786 85.4157857,27.6675728 C84.9938571,27.6605825 84.3385714,27.5697087 84.4611429,27.001165 C84.4210714,23.904466 84.4587857,20.807767 84.4446429,17.711068 C84.4234286,16.4108738 84.5224286,15.1036893 84.3385714,13.8128155 Z" id="Path"></path>
                            <path d="M59.4801429,20.5071845 C61.2786429,21.3227184 61.3894286,23.9300971 60.3334286,25.3700971 C59.2892143,26.4396117 57.3045,26.2881553 56.3592857,25.1533981 C57.3398571,25.391068 58.5844286,25.4213592 59.2986429,24.5895146 C60.2037857,23.4314563 60.1778571,21.7607767 59.4801429,20.5071845 Z" id="Path"></path>
                            <path d="M32.1773571,21.0034951 C33.4667143,21.7421359 34.8456429,22.3106796 36.2363571,22.8349515 C36.1090714,22.8815534 35.8521429,22.9747573 35.7248571,23.0236893 C34.4920714,22.4528155 33.1744286,21.9495146 32.1773571,21.0034951 Z" id="Path"></path>
                            <path d="M37.5186429,23.5712621 C38.2894286,23.2706796 39.0979286,23.6108738 39.8592857,23.7856311 C41.9524286,24.4427184 44.0738571,25.1930097 45.8228571,26.5514563 C43.9677857,25.6054369 42.0066429,24.8341748 39.9747857,24.3565049 C39.0177857,24.0768932 38.0607857,24.4590291 37.2405,24.9250485 C35.1615,26.1157282 33.1107857,27.6815534 32.1844286,29.9533981 C30.6876429,33.1968932 31.5079286,37.2326214 33.9994286,39.7770874 C32.8444286,38.9732039 31.9699286,37.8314563 31.3005,36.6151456 C31.152,36.2260194 30.9987857,35.8415534 30.8385,35.4570874 C30.36,33.9285437 30.4047857,32.3021359 30.5933571,30.7316505 C30.7772143,30.1980583 30.9610714,29.6667961 31.1685,29.1425243 C31.8355714,27.5207767 33.1225714,26.2508738 34.5250714,25.2256311 C35.4490714,24.5615534 36.4272857,23.9370874 37.5186429,23.5712621 Z" id="Path"></path>
                            <path d="M49.7687143,24.0279612 C51.3880714,25.2093204 52.8612857,26.712233 53.5495714,28.6182524 C54.8389286,31.9666019 53.7664286,35.8625243 51.48,38.5351456 C49.6343571,40.7627184 46.9330714,42.1840777 44.1068571,42.7782524 C40.1775,43.6217476 35.8474286,43.2512621 32.3918571,41.1029126 C32.1585,40.9398058 31.9534286,40.7487379 31.7530714,40.5553398 C33.2875714,41.3545631 34.9305,41.9976699 36.6582857,42.2260194 C39.6730714,42.5778641 42.8245714,42.3658252 45.6484286,41.2031068 C48.8871429,39.9099029 51.579,37.2 52.6137857,33.8772816 C53.0946429,32.5001942 53.0145,31.0205825 52.9626429,29.5875728 C52.7363571,27.3949515 51.4210714,25.4469903 49.7687143,24.0279612 Z" id="Path"></path>
                            <path d="M15.3685714,25.8803883 C15.6585,25.6497087 16.0497857,25.7382524 16.3962857,25.7126214 C16.3868571,26.1040777 16.5495,26.6213592 16.1134286,26.8520388 C12.5753571,29.6225243 7.01014286,29.4943689 3.6135,26.5631068 C7.17042857,28.7627184 12.1157143,28.5483495 15.3685714,25.8803883 Z" id="Path"></path>
                            <path d="M90.0994286,28.4132039 C90.4388571,28.5017476 90.9574286,28.4271845 91.0564286,28.8792233 C91.113,29.2893204 91.1153571,29.7040777 91.1389286,30.118835 C89.3757857,30.6827184 87.4712143,30.0745631 85.6727143,30.4287379 C85.3497857,30.552233 85.4747143,30.9646602 85.4275714,31.2256311 C85.4535,33.791068 85.404,36.358835 85.4629286,38.9242718 C85.4252143,39.3576699 85.6255714,39.7374757 85.9202143,40.0450485 C85.0834286,39.8190291 84.4399286,39.0920388 84.4870714,38.208932 C84.4069286,35.3685437 84.4422857,32.5258252 84.4611429,29.6854369 C86.3209286,29.3009709 88.2372857,29.7623301 90.1041429,29.4174757 C90.1088571,29.0819417 90.1088571,28.7464078 90.0994286,28.4132039 Z" id="Path"></path>
                            <path d="M64.2274286,29.568932 C68.8215,29.5153398 73.4179286,29.5666019 78.012,29.5386408 C78.6861429,29.5596117 79.4616429,29.4454369 79.9967143,29.951068 C80.0014286,30.0163107 80.0132143,30.1491262 80.0202857,30.216699 C79.6643571,30.2702913 79.3107857,30.3262136 78.9595714,30.3448544 C74.3277857,30.358835 69.696,30.3215534 65.0665714,30.3681553 C64.5621429,30.4636893 64.2345,30.0186408 64.2274286,29.568932 Z" id="Path"></path>
                            <path d="M89.0858571,41.0353398 C89.6044286,40.9071845 89.9532857,41.2986408 90.2172857,41.6761165 C90.1206429,41.8182524 89.9273571,42.1025243 89.8307143,42.2446602 C88.0227857,42.48 86.1983571,42.1957282 84.3857143,42.167767 C81.7928571,42.0815534 79.2023571,42.407767 76.6142143,42.3238835 C76.1757857,42.3728155 76.0555714,41.9114563 76.0249286,41.5782524 C79.1292857,41.5106796 82.2336429,41.2264078 85.338,41.4664078 C86.5236429,41.4570874 87.7658571,41.7879612 88.9090714,41.3568932 C88.9515,41.2753398 89.0410714,41.1145631 89.0858571,41.0353398 Z" id="Path"></path>
                        </g>
                        <g id="#059477ff" transform="translate(213.000000, 14.000000)" fill="#059477">
                            <path d="M0.126666667,0.03 C0.71,0.0525 1.29666667,0.0775 1.88666667,0.1075 C1.87666667,0.36 1.87,0.6125 1.86666667,0.865 C1.29,0.8925 0.716666667,0.9175 0.15,0.94 C0.136666667,0.6375 0.13,0.3325 0.126666667,0.03 Z" id="Path"></path>
                        </g>
                    </g>
                </g>
            </g>
        </g>
    </g>
</svg>