<?xml version="1.0" encoding="UTF-8"?>
<svg width="286px" height="277px" viewBox="0 0 286 277" version="1.1" xmlns="http://www.w3.org/2000/svg" xmlns:xlink="http://www.w3.org/1999/xlink">
    <!-- Generator: Sketch 55 (78076) - https://sketchapp.com -->
    <title>Apollo</title>
    <desc>Created with Sketch.</desc>
    <defs>
        <rect id="path-1" x="0" y="0" width="278" height="269" rx="19"></rect>
        <filter x="-2.5%" y="-1.9%" width="105.0%" height="105.2%" filterUnits="objectBoundingBox" id="filter-2">
            <feOffset dx="0" dy="2" in="SourceAlpha" result="shadowOffsetOuter1"></feOffset>
            <feGaussianBlur stdDeviation="2" in="shadowOffsetOuter1" result="shadowBlurOuter1"></feGaussianBlur>
            <feComposite in="shadowBlurOuter1" in2="SourceAlpha" operator="out" result="shadowBlurOuter1"></feComposite>
            <feColorMatrix values="0 0 0 0 0   0 0 0 0 0   0 0 0 0 0  0 0 0 0.5 0" type="matrix" in="shadowBlurOuter1"></feColorMatrix>
        </filter>
    </defs>
    <g id="Page-1" stroke="none" stroke-width="1" fill="none" fill-rule="evenodd">
        <g id="Custom-Preset-4" transform="translate(-2884.000000, -1752.000000)">
            <g id="Group" transform="translate(2224.000000, 1754.000000)">
                <g id="Apollo" transform="translate(664.000000, 0.000000)">
                    <g id="Rectangle">
                        <use fill="black" fill-opacity="1" filter="url(#filter-2)" xlink:href="#path-1"></use>
                        <use fill-opacity="0.3" fill="#5AC7D8" fill-rule="evenodd" xlink:href="#path-1"></use>
                    </g>
                    <g id="logo_1" transform="translate(26.000000, 34.000000)" fill-rule="nonzero">
                        <g id="#febe10ff" transform="translate(67.000000, 0.000000)" fill="#FEBE10">
                            <path d="M0.869047619,0 L0.869047619,0 C1.08928571,3.21176471 1.85119048,6.48235294 3.89285714,9.06470588 C8.01785714,14.4705882 14.5238095,17.4176471 20.8630952,19.5176471 C25.1011905,21.0117647 29.6369048,21.4882353 33.8154762,23.1705882 C38.7261905,25.0529412 43.2857143,28.1941176 46.202381,32.5882353 C51.9345238,40.8235294 50.5535714,53.2411765 42.5595238,59.5823529 C42.0119048,57.1764706 41.0833333,54.7470588 39.1547619,53.0764706 C35.1428571,49.4 29.5059524,48.4529412 24.2857143,47.7294118 C14.3392857,46.2294118 6.47619048,37.0882353 5.94047619,27.2764706 C14.0833333,31.8941176 23.6845238,32.5176471 32.6488095,34.6235294 C37.4404762,35.8647059 42.327381,38.6235294 44.2142857,43.3882353 C46.3392857,48.6235294 44.6904762,54.3941176 42.6666667,59.3823529 C46.7619048,54.3647059 48.2738095,47.2647059 45.8511905,41.1882353 C43.3630952,34.5352941 36.9702381,30.1352941 30.3214286,28.1235294 C24.7619048,26.2705882 18.7797619,26.3470588 13.2261905,24.4823529 C9.08928571,23.0647059 4.68452381,21.6352941 1.45833333,18.5941176 C-0.494047619,12.6 -0.148809524,6.14117647 0.869047619,0 Z" id="Path"></path>
                        </g>
                        <g id="#3b958fff" transform="translate(0.000000, 37.000000)" fill="#3B958F">
                            <path d="M22.9178125,0.334697509 C35.3066146,0.328825623 47.7013021,0.334697509 60.0901042,0.328825623 C61.0023437,0.140925267 61.4908333,1.05106762 62.0911458,1.53843416 C68.7063542,8.12081851 75.3686458,14.6562278 82.0073958,21.2151246 C68.3238021,36.2119217 54.5636979,51.1441281 40.9095312,66.1644128 C34.9122917,66.258363 28.9150521,66.1820285 22.9236979,66.205516 C22.9119271,44.2505338 22.9178125,22.2896797 22.9178125,0.334697509 L22.9178125,0.334697509 Z M36.1953125,12.1900356 C36.1953125,14.1512456 36.1894271,16.1183274 36.1953125,18.0912811 C34.2354687,18.0912811 32.275625,18.097153 30.3157812,18.097153 C30.3098958,19.8058719 30.3040104,21.5145907 30.3098958,23.2291815 C32.2697396,23.2291815 34.2295833,23.2350534 36.1894271,23.2291815 C36.1953125,25.1727758 36.1953125,27.1163701 36.1953125,29.0658363 C37.925625,29.0658363 39.6500521,29.0658363 41.3803646,29.0658363 C41.3803646,27.1163701 41.3803646,25.1727758 41.38625,23.2291815 C43.3343229,23.2350534 45.2823958,23.2291815 47.2245833,23.2291815 C47.2304687,21.5145907 47.2304687,19.8058719 47.2245833,18.097153 C45.2765104,18.097153 43.3284375,18.0912811 41.3803646,18.0912811 C41.38625,16.1241993 41.3803646,14.1571174 41.3803646,12.1900356 C39.6500521,12.1841637 37.925625,12.1841637 36.1953125,12.1900356 Z" id="Shape"></path>
                            <path d="M94.6433854,22.8357651 C104.330781,22.8240214 114.018177,22.8240214 123.705573,22.8298932 C121.339635,26.605516 118.785365,30.2578292 116.519479,34.0862989 C116.366458,38.5606762 116.507708,43.0467972 116.45474,47.5270463 C111.881771,47.5270463 107.314687,47.5270463 102.741719,47.5270463 C102.629896,42.9880783 102.947708,38.4021352 102.594583,33.8925267 C100.022656,30.1580071 97.2682812,26.5350534 94.6433854,22.8357651 Z" id="Path"></path>
                            <path d="M43.1342187,68.7891459 C56.4705729,54.1564057 69.8363542,39.5530249 83.2021354,24.9496441 C83.2080208,34.3446619 83.2021354,43.7396797 83.2021354,53.1346975 C81.9132292,53.1405694 80.6302083,53.1405694 79.3413021,53.1405694 C78.2819271,56.7048043 77.3696875,60.3042705 76.2573438,63.8450178 C75.7158854,65.4245552 73.9973438,66.2935943 72.3965104,66.2407473 C69.6127083,66.205516 66.8289063,66.1937722 64.0451042,66.1996441 C63.1799479,65.9354093 62.6973438,66.7516014 62.1853125,67.238968 C55.8584896,74.2382562 49.5022396,81.2023132 43.1459896,88.172242 C43.1401042,81.7131673 43.1636458,75.2482206 43.1342187,68.7891459 L43.1342187,68.7891459 Z M72.8261458,39.4179715 C73.7795833,40.375089 74.7330208,41.3322064 75.6864583,42.2951957 C76.6575521,41.3439502 77.6227604,40.3809609 78.5761979,39.4179715 C76.6575521,39.4120996 74.7447917,39.4120996 72.8261458,39.4179715 Z" id="Shape"></path>
                            <path d="M63.2976563,87.4852313 C75.7865104,73.4338078 88.2753646,59.3765125 100.781875,45.3368327 C100.78776,46.6403915 100.78776,47.9439502 100.78776,49.2475089 C106.243542,49.2592527 111.699323,49.2475089 117.155104,49.2533808 C117.155104,54.5145907 117.155104,59.7699288 117.155104,65.0311388 C112.299635,65.0604982 107.450052,64.9782918 102.600469,65.072242 C96.5208333,72.2007117 90.3117187,79.2293594 84.2203125,86.3460854 C83.7318229,86.8393238 83.3198437,87.6613879 82.4782292,87.4852313 C76.0866667,87.502847 69.6892187,87.4852313 63.2976563,87.4852313 Z" id="Path"></path>
                            <path d="M102.741719,66.722242 C107.314687,66.7163701 111.881771,66.7163701 116.45474,66.722242 C116.460625,72.0656584 116.448854,77.4149466 116.460625,82.7642349 C114.200625,84.5727758 111.911198,86.3402135 109.651198,88.1487544 C107.326458,86.3754448 105.037031,84.5551601 102.735833,82.7524911 C102.741719,77.4090747 102.735833,72.0656584 102.741719,66.722242 Z" id="Path"></path>
                            <path d="M22.1997917,76.4519573 C26.343125,76.4343416 30.4864583,76.4519573 34.6356771,76.4402135 C42.2808333,95.5062278 49.8965625,114.583986 57.5240625,133.655872 C53.3101042,133.661744 49.0961458,133.655872 44.8763021,133.661744 C43.1989583,129.345907 41.5392708,125.024199 39.8678125,120.708363 C32.2638542,120.696619 24.6598958,120.702491 17.0559375,120.708363 C15.4433333,125.018327 13.8719271,129.351779 12.2593229,133.661744 C8.17484375,133.655872 4.08447917,133.655872 0,133.661744 L0,133.567794 C7.40385417,114.531139 14.8077083,95.494484 22.1997917,76.4519573 L22.1997917,76.4519573 Z M20.551875,111.008007 C25.778125,111.013879 31.004375,111.013879 36.2247396,111.008007 C33.5880729,103.938256 30.9514062,96.8685053 28.2911979,89.8046263 C25.6957292,96.8685053 23.1238021,103.938256 20.551875,111.008007 Z" id="Shape"></path>
                            <path d="M149.201198,76.4460854 C152.861927,76.4460854 156.528542,76.4402135 160.189271,76.4460854 C160.201042,95.5120996 160.189271,114.578114 160.195156,133.65 C156.528542,133.667616 152.861927,133.661744 149.195312,133.655872 C149.201198,114.583986 149.189427,95.5120996 149.201198,76.4460854 Z" id="Path"></path>
                            <path d="M167.481302,76.4460854 C171.153802,76.4460854 174.832188,76.4402135 178.510573,76.4460854 C178.516458,95.5120996 178.504687,114.583986 178.510573,133.655872 C174.832188,133.661744 171.153802,133.661744 167.475417,133.655872 C167.481302,114.583986 167.469531,95.5120996 167.481302,76.4460854 Z" id="Path"></path>
                            <path d="M69.495,98.1427046 C73.2793229,92.4117438 80.9068229,89.7870107 87.4278646,91.9772242 C92.7600521,93.7035587 96.8563021,98.3364769 98.4983333,103.615302 C100.005,108.46548 100.093281,113.679715 99.3046354,118.670819 C98.5395313,123.397687 96.2854167,128.007117 92.4775521,131.025267 C88.3283333,134.472064 82.3840625,135.399822 77.2990625,133.732206 C74.5034896,132.780961 72.3611979,130.643594 70.2895313,128.635409 C70.3013021,140.754982 70.2895313,152.880427 70.2954167,165 L59.2602604,165 C59.2602604,140.719751 59.254375,116.439502 59.2602604,92.1592527 C62.6796875,92.1475089 66.0991146,92.1533808 69.5185417,92.1533808 C69.5244271,94.1498221 69.5303125,96.1462633 69.495,98.1427046 L69.495,98.1427046 Z M77.3520313,100.186121 C73.238125,101.096263 70.6838542,105.171352 70.3483854,109.164235 C69.9364063,113.838256 70.0364583,119.228648 73.3146354,122.951423 C76.0984375,126.233808 81.5483333,126.856228 84.8088542,123.9379 C87.7515625,121.512811 88.3636458,117.46121 88.4754687,113.873488 C88.5460937,110.121352 88.2753646,105.964057 85.7799479,102.940036 C83.7789062,100.52669 80.4065625,99.3816726 77.3520313,100.186121 Z" id="Shape"></path>
                            <path d="M117.361094,91.9243772 C121.527969,90.9144128 125.971458,91.0024911 130.097135,92.1886121 C136.571094,94.1145907 141.885625,99.4932384 143.763073,105.964057 C144.957813,110.23879 144.99901,114.836477 143.892552,119.134698 C142.121042,125.881495 136.777083,131.729893 129.985313,133.632384 C121.133646,136.13968 110.09849,133.479715 105.09,125.317794 C100.452292,117.185231 100.723021,106.163701 106.590781,98.6946619 C109.25099,95.2713523 113.188333,92.9813167 117.361094,91.9243772 L117.361094,91.9243772 Z M120.244948,100.696975 C116.53125,101.883096 114.088802,105.47669 113.523802,109.21121 C112.817552,113.450712 113.100052,118.189324 115.654323,121.806406 C118.555833,125.875623 124.865,126.850356 128.831771,123.791103 C131.815677,121.688968 133.128125,117.995552 133.281146,114.478292 C133.540104,110.432562 132.99276,105.858363 129.897031,102.928292 C127.442813,100.415125 123.546667,99.5989324 120.244948,100.696975 Z" id="Shape"></path>
                            <path d="M189.522187,96.9213523 C197.785312,89.0706406 212.593021,89.2467972 220.367656,97.7258007 C223.840052,101.331139 225.741042,106.240036 226,111.201779 L226,114.666192 C225.593906,123.245018 219.596667,131.477402 211.151094,133.696975 C202.169948,136.13968 190.97,133.303559 186.143958,124.865658 C181.412083,116.110676 182.241927,104.079181 189.522187,96.9213523 L189.522187,96.9213523 Z M201.504896,100.738078 C197.667604,102.047509 195.242812,105.887722 194.777865,109.780783 C194.201094,114.079004 194.56599,118.958541 197.53224,122.370107 C200.239531,125.611388 205.212708,126.515658 208.944062,124.577936 C212.128073,123.010142 214.034948,119.633808 214.470469,116.198754 C215.006042,111.988612 214.829479,107.214769 212.051562,103.756228 C209.620885,100.667616 205.212708,99.4169039 201.504896,100.738078 Z" id="Shape"></path>
                            <path d="M80.4065625,147.061388 C83.4669792,147.16121 86.5744792,146.779537 89.5995833,147.331495 C93.8782812,148.476512 93.8076562,155.734164 89.5878125,156.920285 C87.3219271,157.525089 84.9383333,157.225623 82.6194792,157.296085 C82.6135937,159.61548 82.6135937,161.940747 82.6194792,164.260142 C81.8779167,164.260142 81.1422396,164.260142 80.4065625,164.260142 C80.4124479,158.52331 80.4065625,152.792349 80.4065625,147.061388 L80.4065625,147.061388 Z M82.6194792,149.075445 C82.6135937,151.130605 82.6135937,153.179893 82.6194792,155.235053 C84.6734896,155.152847 86.798125,155.493416 88.7991667,154.906228 C91.2004167,154.095907 91.1651042,150.091281 88.7697396,149.298577 C86.7510417,148.887544 84.6676042,149.128292 82.6194792,149.075445 Z" id="Shape"></path>
                            <path d="M98.0628125,147.061388 C98.8102604,147.055516 99.5577083,147.049644 100.305156,147.055516 C100.311042,149.40427 100.305156,151.747153 100.311042,154.095907 C103.088958,154.101779 105.87276,154.095907 108.650677,154.101779 C108.662448,151.753025 108.656562,149.40427 108.662448,147.055516 C109.203906,147.055516 110.286823,147.055516 110.828281,147.055516 C110.828281,152.792349 110.828281,158.529181 110.828281,164.266014 C110.286823,164.266014 109.203906,164.266014 108.662448,164.266014 C108.656562,161.57669 108.656562,158.887367 108.662448,156.198043 C105.878646,156.186299 103.088958,156.186299 100.305156,156.198043 C100.311042,158.887367 100.311042,161.57669 100.311042,164.266014 C99.7460417,164.266014 98.6278125,164.266014 98.0686979,164.266014 C98.0628125,158.529181 98.0686979,152.792349 98.0628125,147.061388 Z" id="Path"></path>
                            <path d="M121.327865,147.043772 C122.110625,147.043772 122.893385,147.055516 123.676146,147.061388 C125.877292,152.798221 128.084323,158.529181 130.285469,164.266014 C129.46151,164.266014 128.649323,164.266014 127.83125,164.266014 C127.195625,162.527936 126.554115,160.789858 125.91849,159.057651 C123.687917,159.051779 121.457344,159.069395 119.226771,159.034164 C118.561719,160.754626 117.996719,162.51032 117.414062,164.260142 C116.666615,164.260142 115.919167,164.266014 115.177604,164.266014 C117.219844,158.52331 119.262083,152.780605 121.327865,147.043772 L121.327865,147.043772 Z M119.827083,157.178648 C121.61625,157.18452 123.411302,157.18452 125.21224,157.178648 C124.270573,154.442349 123.240625,151.741281 122.446094,148.958007 C121.82224,151.776512 120.76875,154.465836 119.827083,157.178648 Z" id="Shape"></path>
                            <path d="M134.552396,147.061388 C137.671667,147.120107 140.808594,146.879359 143.916094,147.202313 C147.582708,147.583986 148.665625,152.874555 146.111354,155.164591 C145.299167,155.933808 144.163281,156.15694 143.127448,156.479893 C145.870052,158.347153 147.023594,161.623665 148.842187,164.266014 C147.924062,164.266014 147.005937,164.266014 146.093698,164.271886 C144.728281,162.111032 143.58651,159.797509 141.985677,157.801068 C140.726198,156.15694 138.466198,156.773488 136.694687,156.673665 C136.682917,159.198577 136.688802,161.729359 136.688802,164.266014 C136.153229,164.266014 135.087969,164.266014 134.558281,164.266014 C134.552396,158.529181 134.558281,152.792349 134.552396,147.061388 L134.552396,147.061388 Z M136.694687,149.004982 C136.682917,150.89573 136.682917,152.786477 136.694687,154.683096 C138.966458,154.612633 141.302969,154.929715 143.533542,154.342527 C145.799427,153.614413 145.852396,149.944484 143.515885,149.257473 C141.285312,148.740747 138.960573,149.104804 136.694687,149.004982 Z" id="Shape"></path>
                            <path d="M165.851042,147.061388 C166.81625,147.055516 167.787344,147.049644 168.764323,147.049644 C168.770208,152.786477 168.764323,158.529181 168.764323,164.266014 C168.063958,164.266014 167.363594,164.266014 166.669115,164.266014 C166.651458,159.568505 166.692656,154.865125 166.651458,150.167616 C165.080052,154.847509 163.585156,159.556762 162.049063,164.25427 C161.389896,164.260142 160.724844,164.266014 160.071563,164.271886 C158.541354,159.468683 156.964063,154.688968 155.498594,149.868149 C155.386771,154.66548 155.475052,159.462811 155.445625,164.266014 C154.915938,164.266014 153.850677,164.266014 153.32099,164.271886 C153.309219,158.529181 153.315104,152.792349 153.315104,147.055516 C154.398021,147.049644 155.486823,147.055516 156.575625,147.055516 C158.117604,151.92331 159.577188,156.820463 161.178021,161.670641 C162.708229,156.791103 164.291406,151.929181 165.851042,147.061388 Z" id="Path"></path>
                            <path d="M193.488958,149.62153 C195.442917,146.896975 199.403802,146.045552 202.428906,147.354982 C204.2475,148.147687 205.218594,149.997331 205.913073,151.747153 C205.189167,151.946797 204.471146,152.152313 203.75901,152.351957 C203.241094,151.248043 202.811458,149.950356 201.669688,149.327936 C199.309635,148.00089 195.919635,148.975623 194.836719,151.518149 C193.795,154.090036 193.812656,157.108185 194.789635,159.691815 C195.843125,162.457473 199.703958,163.449822 202.022813,161.676512 C203.141042,160.842705 203.547135,159.462811 204.035625,158.229715 C204.577083,158.376512 205.648229,158.664235 206.183802,158.80516 C205.542292,160.98363 204.353438,163.267794 202.087552,164.09573 C199.115417,165.117438 195.14276,164.59484 193.441875,161.664769 C191.287812,158.082918 191.134792,153.144662 193.488958,149.62153 Z" id="Path"></path>
                            <path d="M209.591458,147.055516 C210.480156,147.049644 211.37474,147.049644 212.275208,147.049644 C213.893698,149.71548 215.535729,152.363701 217.095365,155.070641 C218.572604,152.304982 220.27349,149.680249 221.96849,147.043772 C222.804219,147.049644 223.639948,147.049644 224.481563,147.061388 C222.398125,150.408363 220.091042,153.626157 218.113542,157.037722 C217.942865,159.439324 218.113542,161.852669 218.054688,164.266014 C217.501458,164.266014 216.400885,164.266014 215.847656,164.266014 C215.782917,161.846797 215.965365,159.421708 215.782917,157.014235 C213.840729,153.620285 211.621927,150.396619 209.591458,147.055516 Z" id="Path"></path>
                            <path d="M172.984167,164.266014 C175.049948,158.52331 177.115729,152.780605 179.199167,147.049644 C179.781823,147.049644 180.947135,147.049644 181.529792,147.055516 C183.748594,152.786477 185.94974,158.529181 188.156771,164.266014 C187.326927,164.260142 186.502969,164.260142 185.67901,164.260142 C185.049271,162.522064 184.413646,160.783986 183.772135,159.057651 C181.553333,159.051779 179.334531,159.051779 177.115729,159.057651 C176.515417,160.789858 175.915104,162.527936 175.320677,164.271886 C174.543802,164.266014 173.761042,164.266014 172.984167,164.266014 L172.984167,164.266014 Z M180.364479,148.993238 C179.740625,151.8 178.628281,154.465836 177.6925,157.18452 C179.499323,157.18452 181.312031,157.18452 183.118854,157.178648 C182.171302,154.459964 181.135469,151.770641 180.364479,148.993238 Z" id="Shape"></path>
                        </g>
                    </g>
                </g>
            </g>
        </g>
    </g>
</svg>