<?xml version="1.0" encoding="UTF-8"?>
<svg width="485px" height="338px" viewBox="0 0 485 338" version="1.1" xmlns="http://www.w3.org/2000/svg" xmlns:xlink="http://www.w3.org/1999/xlink">
    <!-- Generator: Sketch 55 (78076) - https://sketchapp.com -->
    <title>1-2</title>
    <desc>Created with Sketch.</desc>
    <g id="Page-1" stroke="none" stroke-width="1" fill="none" fill-rule="evenodd">
        <g id="Custom-Preset-4" transform="translate(-3389.000000, -2778.000000)" fill="#4A4A4A" fill-rule="nonzero">
            <g id="1-2" transform="translate(3389.000000, 2778.000000)">
                <path d="M108.240109,0 C48.5061106,0 0,48.6274514 0,109.032983 C0,165.860559 43.4002042,211.92867 98.5490991,217.04735 C87.3201897,237.522066 66.8965642,259.536481 32.1723161,280.508733 C22.4792634,286.14747 16.3358369,296.384828 16.3358369,307.121769 C16.3358369,329.136184 38.7936555,344.492222 59.217281,335.274504 C118.456007,308.661468 217,243.660386 217,109.034007 C217,48.6284751 168.493889,0.00102373582 108.239088,0.00102373582 L108.240109,0 Z" id="Path"></path>
                <path d="M377.017921,0 C316.620734,0 268,48.6274514 268,109.032983 C268,165.860559 311.502762,211.92867 366.781977,217.04735 C355.526533,237.522066 335.054645,259.536481 300.248342,280.508733 C290.532383,286.14747 284.37444,296.384828 284.37444,307.121769 C284.37444,329.136184 306.885328,344.492222 327.357216,335.274504 C386.213893,308.661468 484.995871,244.156898 484.995871,109.034007 C485.515652,48.6284751 436.895123,0.00102373582 377.016898,0.00102373582 L377.017921,0 Z" id="Path"></path>
            </g>
        </g>
    </g>
</svg>