<?xml version="1.0" encoding="UTF-8"?>
<svg width="32px" height="22px" viewBox="0 0 32 22" version="1.1" xmlns="http://www.w3.org/2000/svg" xmlns:xlink="http://www.w3.org/1999/xlink">
    <!-- Generator: Sketch 55 (78076) - https://sketchapp.com -->
    <title>np_email_2549927_000000</title>
    <desc>Created with Sketch.</desc>
    <g id="Page-1" stroke="none" stroke-width="1" fill="none" fill-rule="evenodd">
        <g id="Custom-Preset-4" transform="translate(-152.000000, -228.000000)" fill="#EC4D62" fill-rule="nonzero">
            <g id="np_email_2549927_000000" transform="translate(152.000000, 228.000000)">
                <path d="M29.9259217,22 L2.07407829,22 C0.930392199,22 0,21.0537141 0,19.8904046 L0,2.10959538 C0,0.946324494 0.930354273,0 2.07407829,0 L29.9259217,0 C31.0696078,0 32,0.946285919 32,2.10959538 L32,19.8904046 C32,21.0536755 31.0696457,22 29.9259217,22 Z M2.07407829,0.904046178 C1.42073301,0.904046178 0.888901531,1.44498489 0.888901531,2.10951823 L0.888901531,19.8903275 C0.888901531,20.5548608 1.42073301,21.0957995 2.07407829,21.0957995 L29.9259217,21.0957995 C30.579267,21.0957995 31.1110985,20.5548608 31.1110985,19.8903275 L31.1110985,2.10951823 C31.1110985,1.44498489 30.579267,0.904046178 29.9259217,0.904046178 L2.07407829,0.904046178 Z" id="Shape"></path>
                <path d="M15.9992997,14 C15.8988157,14 15.7983317,13.9657155 15.7167792,13.8985764 L1.1540031,1.75619097 C0.970508843,1.60333873 0.947208103,1.33190414 1.10448996,1.15194245 C1.26031413,0.971947853 1.53702626,0.949091512 1.72048696,1.10337364 L15.9995532,13.0087845 L30.2801107,1.10191084 C30.463605,0.949058599 30.7403096,0.970485048 30.8961077,1.15047965 C31.0519319,1.33047425 31.0300888,1.60190152 30.8465946,1.75472816 L16.2838185,13.8971136 C16.2008082,13.9656826 16.1003242,13.9999671 15.9998403,13.9999671 L15.9992997,14 Z" id="Path"></path>
                <path d="M1.42200091,21 C1.31917193,21 1.21634656,20.9623676 1.13464519,20.884205 C0.964203527,20.7206432 0.954344696,20.4456293 1.11210763,20.2705102 L10.2681274,10.1383578 C10.4273003,9.96321651 10.6949348,9.95308583 10.8653548,10.1151988 C11.0357965,10.2787606 11.0456553,10.5537746 10.8878924,10.7288936 L1.73187256,20.861046 C1.64876485,20.953682 1.53466709,21 1.42197928,21 L1.42200091,21 Z" id="Path"></path>
                <path d="M30.5770562,21 C30.4643922,21 30.3503184,20.9536866 30.2672282,20.8610597 L21.1131374,10.7299044 C20.9539981,10.5547804 20.9638584,10.279812 21.1356702,10.11627 C21.306076,9.95272434 21.573636,9.96285772 21.7327718,10.1394267 L30.8868626,20.270582 C31.0460019,20.4457061 31.0361416,20.7206744 30.8643298,20.8842164 C30.7826492,20.9623713 30.6798419,21 30.5770346,21 L30.5770562,21 Z" id="Path"></path>
            </g>
        </g>
    </g>
</svg>