<?xml version="1.0" encoding="UTF-8"?>
<svg width="286px" height="277px" viewBox="0 0 286 277" version="1.1" xmlns="http://www.w3.org/2000/svg" xmlns:xlink="http://www.w3.org/1999/xlink">
    <!-- Generator: Sketch 55 (78076) - https://sketchapp.com -->
    <title>BTVi</title>
    <desc>Created with Sketch.</desc>
    <defs>
        <rect id="path-1" x="0" y="0" width="278" height="269" rx="19"></rect>
        <filter x="-2.5%" y="-1.9%" width="105.0%" height="105.2%" filterUnits="objectBoundingBox" id="filter-2">
            <feOffset dx="0" dy="2" in="SourceAlpha" result="shadowOffsetOuter1"></feOffset>
            <feGaussianBlur stdDeviation="2" in="shadowOffsetOuter1" result="shadowBlurOuter1"></feGaussianBlur>
            <feComposite in="shadowBlurOuter1" in2="SourceAlpha" operator="out" result="shadowBlurOuter1"></feComposite>
            <feColorMatrix values="0 0 0 0 0   0 0 0 0 0   0 0 0 0 0  0 0 0 0.5 0" type="matrix" in="shadowBlurOuter1"></feColorMatrix>
        </filter>
    </defs>
    <g id="Page-1" stroke="none" stroke-width="1" fill="none" fill-rule="evenodd">
        <g id="Custom-Preset-4" transform="translate(-286.000000, -4109.000000)">
            <g id="BTVi" transform="translate(290.000000, 4111.000000)">
                <g id="Rectangle">
                    <use fill="black" fill-opacity="1" filter="url(#filter-2)" xlink:href="#path-1"></use>
                    <use fill-opacity="0.3" fill="#EC4D62" fill-rule="evenodd" xlink:href="#path-1"></use>
                </g>
                <g id="btvi-logo" transform="translate(29.000000, 89.000000)" fill-rule="nonzero">
                    <g id="#010220ff" fill="#010220">
                        <path d="M0.262748815,0.187807487 C12.3538863,0.20746114 24.4450237,0.165025907 36.5314692,0.20746114 C45.1411848,0.278186528 54.1637915,1.02787565 61.8351185,5.3138342 C66.7194313,7.97782383 70.369763,12.8201554 71.3316114,18.3508808 C72.2230806,23.9146114 71.8383412,30.1054404 68.394455,34.7874611 C65.1429384,39.3280311 59.9208057,41.7892746 54.7455924,43.3923834 C57.8047393,43.9204663 60.9154976,44.4815544 63.7165877,45.9054922 C69.543981,48.602487 74.2265403,53.9398964 75.6857346,60.2768912 C77.2481517,67.1844041 75.8546445,75.0207772 70.9844076,80.3251813 C66.8367299,84.8280311 61.0937915,87.5250259 55.27109,89.0762694 C49.9504265,90.5049223 44.4092417,90.9575648 38.9149763,90.8821244 C26.0309005,90.8915544 13.1515166,90.8585492 0.267440758,90.9009845 C0.276824645,60.6635233 0.286208531,30.4260622 0.262748815,0.187807487 L0.262748815,0.187807487 Z M21.6627014,17.1296891 C21.6720853,18.8035233 21.6673934,20.4820725 21.6345498,22.1606218 C21.8128436,24.6973057 21.3436493,27.2292746 21.5454028,29.7659585 C21.7471564,31.9961658 21.6486256,34.2358031 21.6627014,36.4707254 C27.0959716,36.4282902 32.5339336,36.4754404 37.9672038,36.4471503 C41.087346,36.3151295 44.38109,35.862487 47.0085782,34.033057 C50.6917536,31.4492228 51.3580095,25.9232124 49.3498578,22.0946114 C47.2619431,18.5206218 42.8280569,17.5493264 39.0181991,17.2192746 C33.2377251,17.0401036 27.4478673,17.2004145 21.6627014,17.1296891 L21.6627014,17.1296891 Z M21.4890995,53.4306736 C21.6673934,59.3527461 21.7330806,65.2748187 21.6439336,71.2016062 C21.6533175,72.1163212 21.6673934,73.0263212 21.6814692,73.9410363 C28.381564,73.884456 35.0816588,73.9457513 41.7817536,73.9127461 C45.37109,73.9033161 49.1011848,72.8943005 51.8694313,70.5179275 C55.9701896,67.0995337 56.1437915,59.6262176 51.5926066,56.5001554 C47.7921327,53.869171 42.9688152,53.4919689 38.4833175,53.3929534 C32.8201422,53.4023834 27.1522749,53.3363731 21.4890995,53.4306736 Z" id="Shape"></path>
                        <path d="M56.8569668,0.297046632 C57.9267299,0.259326425 58.9918009,0.160310881 60.0662559,0.150880829 C83.9294787,0.160310881 107.797393,0.146165803 131.665308,0.155595855 C136.146114,11.8630052 140.584692,23.5845596 145.02327,35.310829 C148.13872,43.4065285 151.216635,51.5210881 154.308626,59.6309326 C161.933033,39.865544 169.562133,20.1048705 177.228768,0.358341969 C184.022701,0.353626943 190.821327,0.330051813 197.619953,0.339481865 C185.458436,30.4873575 173.189005,60.5927979 160.985261,90.7265285 L160.806967,90.8585492 C155.932038,90.8491192 151.061801,90.8396891 146.186872,90.8632642 C136.286872,66.3639896 126.607393,41.7656995 116.693318,17.2711399 C113.108673,17.2994301 109.52872,17.2758549 105.948768,17.2805699 C105.95346,41.8081347 105.845545,66.3309845 105.850237,90.8585492 C99.2252133,90.8396891 92.6001896,90.8491192 85.9751659,90.8538342 C86.0173934,66.3309845 86.0033175,41.8081347 86.0690047,17.285285 C82.1981517,17.29 78.3272986,17.2569948 74.4611374,17.3088601 C73.1473934,11.5046632 69.8958768,5.94093264 64.683128,2.89031088 C62.3043128,1.46165803 59.6299052,0.509222798 56.8569668,0.297046632 Z" id="Path"></path>
                    </g>
                    <g id="#ff9e01ff" transform="translate(197.000000, 13.000000)" fill="#FF9E01">
                        <path d="M10,0.563855422 C15.5435294,-0.620240964 21.5529412,2.96024096 23.2564706,8.33096386 C24.8188235,12.6585542 23.5011765,17.8742169 19.9905882,20.876747 C15.6376471,25.0398795 8.04705882,24.8378313 3.83529412,20.5619277 C0.908235294,17.6674699 -0.494117647,13.2271084 0.635294118,9.21433735 C1.71294118,4.82096386 5.51529412,1.28277108 10,0.563855422 Z" id="Path"></path>
                        <path d="M2.20235294,27.6148193 C8.88941176,27.6242169 15.5811765,27.6336145 22.2682353,27.6148193 C22.3294118,44.253253 22.3388235,60.8916867 22.2682353,77.5301205 C15.5764706,77.5301205 8.88,77.5724096 2.18823529,77.450241 C2.24,60.84 2.22117647,44.229759 2.20235294,27.6148193 Z" id="Path"></path>
                    </g>
                </g>
            </g>
        </g>
    </g>
</svg>