<?xml version="1.0" encoding="UTF-8"?>
<svg width="286px" height="277px" viewBox="0 0 286 277" version="1.1" xmlns="http://www.w3.org/2000/svg" xmlns:xlink="http://www.w3.org/1999/xlink">
    <!-- Generator: Sketch 55 (78076) - https://sketchapp.com -->
    <title>LiveMint</title>
    <desc>Created with Sketch.</desc>
    <defs>
        <rect id="path-1" x="0" y="0" width="278" height="269" rx="19"></rect>
        <filter x="-2.5%" y="-1.9%" width="105.0%" height="105.2%" filterUnits="objectBoundingBox" id="filter-2">
            <feOffset dx="0" dy="2" in="SourceAlpha" result="shadowOffsetOuter1"></feOffset>
            <feGaussianBlur stdDeviation="2" in="shadowOffsetOuter1" result="shadowBlurOuter1"></feGaussianBlur>
            <feComposite in="shadowBlurOuter1" in2="SourceAlpha" operator="out" result="shadowBlurOuter1"></feComposite>
            <feColorMatrix values="0 0 0 0 0   0 0 0 0 0   0 0 0 0 0  0 0 0 0.5 0" type="matrix" in="shadowBlurOuter1"></feColorMatrix>
        </filter>
    </defs>
    <g id="Page-1" stroke="none" stroke-width="1" fill="none" fill-rule="evenodd">
        <g id="Custom-Preset-4" transform="translate(-621.000000, -3734.000000)">
            <g id="LiveMint" transform="translate(625.000000, 3736.000000)">
                <g id="Rectangle">
                    <use fill="black" fill-opacity="1" filter="url(#filter-2)" xlink:href="#path-1"></use>
                    <use fill-opacity="0.3" fill="#5AC7D8" fill-rule="evenodd" xlink:href="#path-1"></use>
                </g>
                <g id="livemint-logo-v1" transform="translate(27.000000, 84.000000)" fill-rule="nonzero">
                    <g id="#010101ff" fill="#010101">
                        <path d="M0.593975494,0.527625244 C4.1033807,0.343682498 7.6276353,0.493741054 11.1419903,0.455016265 C11.1221911,12.4112947 11.1370405,24.3675732 11.1320907,36.3238517 C11.1914883,37.4565517 11.0677434,38.7780351 12.0577025,39.5864151 C12.918967,40.2398959 13.9584241,40.5981002 14.8889857,41.130566 C10.0134369,41.1886532 5.12798843,41.251581 0.247489789,41.1160442 C1.4106918,40.4286792 2.94017869,40.1769681 3.72224643,38.9958621 C4.17762764,37.6646975 4.11823009,36.2367209 4.16277825,34.8523097 C4.15782845,25.3356929 4.16772805,15.8239167 4.15782845,6.30729993 C4.08853131,5.04874431 4.21227621,3.73694209 3.79649336,2.53163305 C3.30646358,1.21983084 1.68293057,1.12785947 0.593975494,0.527625244 Z" id="Path"></path>
                        <path d="M22.4027757,2.55099545 C24.3282463,1.91687703 26.7437466,2.74461939 27.411969,4.7195836 C28.4464763,6.95594014 26.8575919,9.95711126 24.2985475,10.1458946 C22.4572235,10.5186207 20.4971043,9.34719584 19.922928,7.61910215 C19.2052076,5.66350033 20.2001166,3.0495771 22.4027757,2.55099545 Z" id="Path"></path>
                        <path d="M50.3493227,14.5024333 C53.2400034,14.1151854 56.2395796,14.2362004 59.1451098,14.4879115 C57.9868576,15.1365517 56.4078727,15.4173064 55.7841984,16.7097463 C54.2151132,19.5124528 53.3785977,22.6152765 52.2252953,25.587404 C50.2800255,30.7765257 48.5178982,36.0382563 46.5330301,41.2128562 C45.4737738,41.4936109 44.3353208,41.299987 43.2463657,41.372596 C40.8259156,34.8474691 38.5440597,28.2787768 36.138459,21.75365 C35.4454876,19.9384255 34.8911104,18.0505921 33.8566031,16.3854262 C33.2428285,15.2624073 31.7974881,15.0929863 30.7679306,14.5072739 C31.6935424,14.1829538 32.6835015,14.3039688 33.6487117,14.2942876 C37.6085483,14.3184906 41.5733348,14.2942876 45.5381212,14.289447 L45.5480208,14.807391 C44.6422081,15.0300586 43.4641567,14.904203 42.8602817,15.7561483 C42.1574107,16.8549642 42.65734,18.2054912 42.9642274,19.3527131 C44.6174592,24.357892 46.1469461,29.4017957 47.8348264,34.402134 C49.5128072,29.6680286 51.2155369,24.9436044 52.9182667,20.2191802 C53.4082965,18.8880156 53.4973928,17.4697202 53.5023426,16.0707872 C52.571781,15.3301757 51.4432275,14.9380872 50.3493227,14.5024333 Z" id="Path"></path>
                        <path d="M64.7284794,15.8384385 C70.0247609,12.4500195 78.4790121,13.0792973 81.9884173,18.6508263 C83.5278038,20.9017046 83.6960968,23.7092518 83.4684062,26.3280156 C77.5929986,26.3280156 71.7225408,26.2844502 65.8471333,26.3376968 C65.92633,29.9100586 65.9065308,33.7196096 67.7132063,36.9386077 C69.8564678,40.3415485 74.9399081,40.6561874 78.1968737,38.695745 C80.5133781,37.3355368 81.7953753,34.8910345 82.5873426,32.4562134 C82.9833262,32.5530254 83.3793099,32.6546779 83.7802434,32.7563305 C82.5625936,36.5223162 79.9936496,40.2205335 75.8853191,41.275784 C71.7324404,42.2051789 66.9707369,41.7646845 63.5405284,39.1071958 C56.2742282,33.4291737 56.9325511,20.7952115 64.7284794,15.8384385 L64.7284794,15.8384385 Z M68.1240393,16.8307612 C66.5401047,19.3139883 66.3322132,22.3248406 65.9213802,25.1517502 C69.4802834,25.0549382 73.0540359,25.3889395 76.5980897,24.9823292 C77.365308,22.5087833 76.9990231,19.8125699 76.2070558,17.3874301 C75.1181007,14.1006636 69.8911164,14.144229 68.1240393,16.8307612 Z" id="Shape"></path>
                        <path d="M16.6461632,14.6282889 C20.1605182,14.0280547 23.7887185,14.5217957 27.3525715,14.3668966 C27.1199311,20.7177619 27.2931739,27.0734678 27.2337764,33.4243331 C27.3129731,35.2976448 27.0704331,37.2629278 27.8129025,39.0442681 C28.4811249,40.2495771 30.005662,40.3560703 31.1490648,40.9127391 C29.5502808,41.3580742 27.8772498,41.1596096 26.2388674,41.1838126 C22.9819018,41.1499284 19.7199864,41.2370592 16.4630208,41.1354066 C17.9677587,40.3560703 20.2347651,39.8429668 20.2644639,37.7808718 C20.625799,33.1048536 20.3337611,28.4046324 20.4278072,23.7237736 C20.3783092,21.4390111 20.5664015,19.1348861 20.214966,16.8743266 C19.9526268,15.2043201 17.9479595,15.0784645 16.6461632,14.6282889 Z" id="Path"></path>
                    </g>
                    <g id="#f7941dff" transform="translate(1.000000, 24.000000)" fill="#F7941D">
                        <path d="M101.852433,4.32717241 C103.709247,2.28736116 106.110726,0.401030853 108.962792,0.183186933 C111.928743,-0.123774955 115.157123,0.297059891 117.464524,2.34182214 C121.049413,4.74800726 122.247677,9.50096552 121.559418,13.575637 C121.143492,15.9471652 119.603574,17.8483485 118.286474,19.7841887 C115.746352,21.2694882 112.97351,22.7597387 109.913481,22.4082178 C104.288573,22.1854229 99.5648381,16.9571688 99.6341591,11.3872958 C99.5450321,8.86228675 100.555139,6.44124864 101.852433,4.32717241 Z" id="Path"></path>
                        <path d="M193.831567,13.550882 C200.639885,13.531078 207.448203,13.610294 214.25652,13.550882 C214.603125,17.5166316 214.276326,21.4972341 214.528853,25.4728857 C217.271986,25.3342577 220.020071,25.3441597 222.768155,25.3837677 C222.763204,28.8940254 222.807767,32.4042831 222.778058,35.9145408 C220.025022,35.8650309 217.271986,35.8897858 214.523901,35.8996878 C214.162442,41.2467659 214.405065,46.6185989 214.330793,51.9805299 C214.335744,55.8027005 214.063412,59.7189401 215.271578,63.4173358 C216.227219,64.1253285 217.113538,65.0363122 218.311802,65.3185191 C219.777447,65.6799419 221.30251,65.536363 222.802816,65.575971 C222.822622,69.0317677 222.847379,72.4925154 222.787961,75.9483122 C216.786739,76.6216479 210.681534,76.9038548 204.67536,76.2255681 C200.674545,75.8839492 196.678682,73.9332559 194.470311,70.4972632 C193.113599,68.2 192.504564,65.511608 192.356019,62.867775 C192.311455,53.9015172 192.365922,44.9303085 192.321358,35.9640508 C190.791344,35.9442468 189.266281,35.9442468 187.741217,35.9690018 C187.661993,32.661735 187.845199,29.3445662 187.538206,26.0422505 C187.657042,25.8293575 187.894714,25.4085227 188.01355,25.1956298 C188.904821,25.2698947 189.786189,25.3194047 190.682411,25.3590127 C190.925034,24.1905771 191.806402,24.472784 192.509516,25.0074918 C192.663012,23.6063593 192.771945,22.2002759 192.88583,20.7941924 C192.955151,22.3488058 193.024472,23.9034192 193.029423,25.4629837 C193.435447,21.5071361 193.574089,17.5215826 193.831567,13.550882 Z" id="Path"></path>
                        <path d="M31.6747697,27.6612269 C37.1659874,23.7647913 44.553631,23.6261633 50.8222348,25.4679347 C54.6299412,26.6858802 56.7838454,30.2803049 57.8286127,33.9192886 C59.4081424,28.5722105 64.8746026,25.1609728 70.2024206,24.517343 C74.4409079,24.1707731 78.9566793,24.2004791 82.8584643,26.0967114 C86.5968497,27.8840218 88.2209429,32.1765372 88.4685181,36.0779238 C89.0577471,45.8660472 88.3150215,55.6937786 88.9191049,65.476951 C90.3996046,65.600726 91.8801042,65.7591579 93.3507008,65.9918548 C93.2516708,69.3040726 93.3061373,72.6212414 93.2962343,75.9334592 C83.2595361,75.9879201 73.222838,75.9829691 63.1861398,75.9334592 C63.2158488,72.5469764 63.1663338,69.1604936 63.2257518,65.7789619 C64.171489,65.566069 65.3846075,65.8532269 66.0728665,65.0016552 C66.3105387,63.8134156 66.2313146,62.5905191 66.2511206,61.3923775 C66.1966541,54.2926461 66.2956842,47.1879637 66.2065571,40.0931833 C66.2857811,38.6573938 65.4044135,37.4840073 64.5973184,36.3947877 C63.0326432,36.4442976 61.1807807,35.9640508 59.9032928,37.1324864 C58.2395875,38.5930309 58.0860909,40.989314 58.0019153,43.0588312 C58.0068668,49.5000799 58.0167698,55.9413285 57.9870608,62.3875281 C57.9325943,63.5361597 58.254442,64.6501343 58.6604653,65.7145989 C59.53193,65.6749909 60.4083462,65.6403339 61.2798108,65.600726 C61.6214646,69.0367187 61.487774,72.5024174 61.2699078,75.9384102 C51.7778751,76.0027731 42.2907938,75.9433612 32.7987611,75.9681162 C32.3976893,72.5816334 32.4224468,69.1357387 32.7888581,65.7443049 C33.6454682,65.546265 34.7942171,65.8383739 35.3586885,64.9769002 C35.9875295,58.5207985 35.7300513,52.0151869 35.7597603,45.5343303 C35.4824761,42.6726534 35.8092754,39.7070054 34.8090716,36.9542505 C33.0710938,36.4145917 31.0162197,35.8501779 29.387175,37.0037604 C27.7135667,38.5336189 27.3867674,40.934853 27.3768644,43.0885372 C27.2877374,49.3465989 27.3768644,55.6096116 27.3372524,61.8676733 C27.3471554,62.9222359 27.3124949,63.9966025 27.5254095,65.0363122 C28.3523107,66.0265118 29.9219374,65.2591071 30.8231111,66.0809728 C30.9518502,69.3634846 30.7983535,72.6509474 30.8676746,75.9334592 C20.6824313,75.9978221 10.5021395,75.9681162 0.321847746,75.9483122 C0.32679925,72.6459964 0.346605265,69.3387296 0.272332708,66.0364138 C1.67855978,65.7938149 3.08973836,65.6205299 4.51081995,65.486853 C4.66926807,65.2095971 4.98616431,64.6600363 5.14461243,64.3827804 C5.11490341,55.7927985 5.12480642,47.2028167 5.11490341,38.6177858 C5.04558236,37.8949401 5.22383649,37.0780254 4.85247371,36.4244936 C3.3967316,35.9491978 1.84691091,36.0482178 0.336702257,36.0234628 C0.341653761,32.5082541 0.292138723,28.9880944 0.287187219,25.4728857 C9.30882711,25.3837677 18.3255155,25.4085227 27.3471554,25.4382287 C27.2728828,27.8493648 27.3422039,30.2654519 27.4263795,32.676588 C28.6791099,30.8843267 29.7931983,28.8791724 31.6747697,27.6612269 Z" id="Path"></path>
                        <path d="M159.710755,27.4631869 C164.627598,24.0717532 170.935814,24.0073902 176.649849,24.680726 C178.937444,25.2797967 181.180475,26.3640653 182.923404,27.9830417 C186.56276,32.2854592 186.344893,38.271216 186.285475,43.568784 C186.429069,50.8863593 185.988385,58.2286897 186.513245,65.531412 C187.954132,65.6106279 189.39502,65.6353829 190.840859,65.6898439 C190.875519,69.1010817 190.875519,72.5123194 190.855713,75.9235572 C180.759597,75.9978221 170.658529,75.9730672 160.562413,75.9433612 C160.567365,72.5321234 160.502995,69.1258367 160.587171,65.7195499 C161.602229,65.6650889 162.622239,65.600726 163.642249,65.531412 C164.10769,57.23849 163.969048,48.9208131 163.8106,40.6179891 C163.988854,38.9049437 163.226322,37.0384174 161.518053,36.4294446 C160.052408,36.2759637 158.255012,36.1323848 157.175585,37.3552813 C155.452461,39.1079347 155.239547,41.7418657 155.199935,44.0688348 C155.209838,50.3516515 155.204886,56.6344682 155.214789,62.9123339 C155.180129,63.8431216 155.44751,64.7343013 155.724794,65.6106279 C156.675483,65.6304319 157.626171,65.6601379 158.586763,65.6848929 C158.680842,69.1060327 158.631327,72.5271724 158.646181,75.9532632 C148.480744,75.9532632 138.320258,76.0126751 128.154821,75.9235572 C128.159772,72.5816334 128.229093,69.2397096 128.070645,65.9027368 C129.546193,65.6799419 131.036596,65.595775 132.526999,65.590824 C132.928071,64.3976334 133.041955,63.1400799 132.997392,61.8874773 C132.89341,53.3767114 133.081567,44.8659456 132.908265,36.3601307 C131.338638,36.1323848 129.759108,36.0135608 128.179578,36.0135608 C128.238996,32.4934011 128.016179,28.9633394 128.323172,25.4481307 C137.295297,25.4035717 146.272373,25.3887187 155.24945,25.4530817 C155.194983,27.8592668 155.194983,30.2654519 155.289062,32.666686 C156.695289,30.8843267 157.675686,28.6514265 159.710755,27.4631869 Z" id="Path"></path>
                        <path d="M94.865861,25.4728857 C103.912258,25.4085227 112.958656,25.3441597 122.005053,25.4679347 C121.940684,37.7761162 122.005053,50.0892486 121.965441,62.4023811 C121.940684,63.5015027 122.173404,64.5907223 122.505155,65.6353829 C123.861867,65.6601379 125.213628,65.6848929 126.57034,65.7096479 C126.605,69.1208857 126.614903,72.5271724 126.585194,75.9384102 C116.003831,75.9829691 105.427419,75.9829691 94.846055,75.9384102 C94.9401335,72.5519274 94.6975099,69.1505917 94.9500366,65.7740109 C96.3711181,65.6353829 97.8021027,65.6601379 99.2330873,65.605677 C99.50542,64.3778294 99.7579467,63.1301779 99.7133832,61.8627223 C99.6638682,53.3816624 99.7430922,44.8956515 99.6638682,36.4145917 C98.0793869,36.1076298 96.4701482,35.9838548 94.8609095,35.9987078 C94.8411035,32.4884501 94.885667,28.9831434 94.865861,25.4728857 Z" id="Path"></path>
                    </g>
                </g>
            </g>
        </g>
    </g>
</svg>