<?xml version="1.0" encoding="UTF-8"?>
<svg width="286px" height="277px" viewBox="0 0 286 277" version="1.1" xmlns="http://www.w3.org/2000/svg" xmlns:xlink="http://www.w3.org/1999/xlink">
    <!-- Generator: Sketch 55 (78076) - https://sketchapp.com -->
    <title>TheWeek</title>
    <desc>Created with Sketch.</desc>
    <defs>
        <rect id="path-1" x="0" y="0" width="278" height="269" rx="19"></rect>
        <filter x="-2.5%" y="-1.9%" width="105.0%" height="105.2%" filterUnits="objectBoundingBox" id="filter-2">
            <feOffset dx="0" dy="2" in="SourceAlpha" result="shadowOffsetOuter1"></feOffset>
            <feGaussianBlur stdDeviation="2" in="shadowOffsetOuter1" result="shadowBlurOuter1"></feGaussianBlur>
            <feComposite in="shadowBlurOuter1" in2="SourceAlpha" operator="out" result="shadowBlurOuter1"></feComposite>
            <feColorMatrix values="0 0 0 0 0   0 0 0 0 0   0 0 0 0 0  0 0 0 0.5 0" type="matrix" in="shadowBlurOuter1"></feColorMatrix>
        </filter>
    </defs>
    <g id="Page-1" stroke="none" stroke-width="1" fill="none" fill-rule="evenodd">
        <g id="Custom-Preset-4" transform="translate(-621.000000, -4107.000000)">
            <g id="TheWeek" transform="translate(625.000000, 4109.000000)">
                <g id="Rectangle">
                    <use fill="black" fill-opacity="1" filter="url(#filter-2)" xlink:href="#path-1"></use>
                    <use fill-opacity="0.3" fill="#5AC7D8" fill-rule="evenodd" xlink:href="#path-1"></use>
                </g>
                <g id="s2BgkstR_400x400" transform="translate(37.000000, 32.000000)" fill-rule="nonzero">
                    <g id="#dd0102ff" fill="#DD0102">
                        <path d="M0,0 L205,0 L205,205 L0,205 L0,0 L0,0 Z M54.4548333,38.5126667 C54.4685,40.3098333 54.4685,42.107 54.4685,43.9041667 C58.138,43.8905 61.8075,43.911 65.4701667,43.8836667 C66.092,51.5643333 65.1558333,59.2518333 65.6,66.9393333 C65.2856667,78.2963333 65.8665,89.6738333 65.4291667,101.010333 C67.4655,101.153833 69.5018333,101.263167 71.5381667,101.188 C71.5518333,82.0956667 71.5381667,62.9965 71.545,43.8973333 C75.3238333,43.747 79.1505,44.2253333 82.8951667,43.624 C82.82,41.943 82.8063333,40.2551667 82.8063333,38.5741667 C73.3558333,38.4443333 63.9053333,38.5605 54.4548333,38.5126667 L54.4548333,38.5126667 Z M87.1796667,38.4443333 C87.2001667,59.3543333 87.1933333,80.2711667 87.1865,101.188 C89.38,101.242667 91.5803333,101.174333 93.767,101.051333 C93.7055,91.4436667 93.7601667,81.836 93.7396667,72.2283333 C99.9306667,72.2351667 106.121667,72.2283333 112.312667,72.2283333 C112.305833,81.8838333 112.305833,91.5393333 112.312667,101.194833 C114.2465,101.188 116.180333,101.188 118.114167,101.194833 C118.162,80.2711667 118.127833,59.3543333 118.134667,38.4375 C116.194,38.4443333 114.2465,38.4443333 112.305833,38.4238333 C112.3195,47.8948333 112.292167,57.359 112.3195,66.83 C106.121667,66.8573333 99.9238333,66.8231667 93.726,66.8505 C93.767,57.3863333 93.726,47.929 93.7533333,38.4716667 C91.5598333,38.4375 89.3731667,38.4443333 87.1796667,38.4443333 L87.1796667,38.4443333 Z M124.107,38.5058333 C124.134333,59.4021667 124.120667,80.2985 124.113833,101.194833 C132.272833,101.160667 140.431833,101.2495 148.584,101.147 C148.577167,99.3635 148.577167,97.5868333 148.590833,95.8033333 C142.427167,95.7828333 136.2635,95.7965 130.099833,95.7965 C130.011,87.945 130.0725,80.0866667 130.0725,72.2351667 C135.5665,72.2556667 141.0605,72.2078333 146.5545,72.2625 C146.5545,70.4516667 146.547667,68.6408333 146.540833,66.83 C141.046833,66.8436667 135.559667,66.8368333 130.065667,66.8368333 C130.052,59.1903333 130.0725,51.5438333 130.052,43.8973333 C136.044833,43.911 142.037667,43.8768333 148.037333,43.9178333 C148.051,42.1138333 148.051,40.3098333 148.064667,38.5058333 C140.083333,38.5331667 132.095167,38.5263333 124.107,38.5058333 L124.107,38.5058333 Z M21.8803333,104.392833 C25.4746667,125.4395 28.7615,146.540833 32.3968333,167.580667 C36.5241667,167.539667 40.6446667,167.5465 44.7651667,167.580667 C46.9108333,155.191833 48.3936667,142.68 50.6418333,130.3185 C52.8285,142.693667 54.4411667,155.171333 56.5048333,167.567 C60.6116667,167.567 64.7185,167.512333 68.8253333,167.614833 C72.6246667,146.575 75.6723333,125.3985 79.54,104.372333 C75.5083333,104.420167 71.4835,104.386 67.4518333,104.399667 C66.0578333,116.036833 64.3153333,127.626167 62.9145,139.263333 C62.7505,140.425 62.4908333,141.566167 62.2448333,142.721 C60.1743333,129.963167 58.3088333,117.171167 56.3681667,104.392833 C52.6713333,104.399667 48.9813333,104.413333 45.2845,104.379167 C43.5283333,115.169 41.902,125.986167 40.1936667,136.782833 C39.9476667,138.812333 39.6196667,140.835 39.0183333,142.789333 C37.4466667,129.963167 35.793,117.143833 34.0505,104.338167 C29.9983333,104.454333 25.9393333,104.379167 21.8803333,104.392833 L21.8803333,104.392833 Z M83.6331667,167.293667 C92.5233333,167.239 101.420333,167.266333 110.317333,167.28 C110.296833,163.829167 110.303667,160.385167 110.3105,156.941167 C105.376833,156.941167 100.443167,156.9685 95.5095,156.9275 C95.5095,151.583833 95.5231667,146.240167 95.5026667,140.8965 C99.7735,140.862333 104.044333,140.876 108.315167,140.889667 C108.349333,137.384167 108.349333,133.878667 108.322,130.373167 C104.051167,130.386833 99.7803333,130.393667 95.5163333,130.373167 C95.5163333,125.091 95.5163333,119.808833 95.5095,114.5335 C100.320167,114.513 105.124,114.519833 109.934667,114.526667 C109.893667,111.151 109.88,107.775333 109.9415,104.399667 C101.1675,104.392833 92.4003333,104.413333 83.6263333,104.386 C83.6468333,125.3575 83.6468333,146.322167 83.6331667,167.293667 L83.6331667,167.293667 Z M115.756667,167.293667 C124.646833,167.232167 133.530167,167.28 142.420333,167.273167 C142.393,163.829167 142.406667,160.385167 142.4135,156.941167 C137.466167,156.948 132.512,156.954833 127.564667,156.934333 C127.578333,151.583833 127.592,146.233333 127.557833,140.882833 C131.8355,140.876 136.106333,140.869167 140.377167,140.889667 C140.418167,137.384167 140.411333,133.8855 140.384,130.38 C136.113167,130.386833 131.8355,130.386833 127.564667,130.38 C127.585167,125.097833 127.578333,119.808833 127.5715,114.526667 C132.389,114.519833 137.2065,114.519833 142.030833,114.5335 C141.983,111.151 141.983,107.775333 142.030833,104.392833 C133.2705,104.392833 124.510167,104.413333 115.749833,104.386 C115.777167,125.350667 115.7635,146.322167 115.756667,167.293667 L115.756667,167.293667 Z M147.7845,104.399667 C147.832333,125.364333 147.811833,146.329 147.791333,167.286833 C151.768333,167.252667 155.7385,167.266333 159.7155,167.273167 C159.708667,161.833833 159.647167,156.3945 159.722333,150.955167 C160.2075,148.3175 161.403333,145.850667 162.510333,143.424833 C165.079667,151.3515 167.512333,159.319167 169.999667,167.273167 C174.448167,167.266333 178.896667,167.2595 183.338333,167.273167 C179.463833,155.970833 175.985667,144.538667 172.186333,133.209 C171.858333,132.095167 171.2775,130.858333 171.947167,129.751333 C175.6645,121.305333 179.265667,112.8115 183.0445,104.392833 C178.527667,104.413333 174.010833,104.372333 169.494,104.420167 C166.323333,113.166833 163.234667,121.961333 159.722333,130.585 C159.6745,121.858833 159.6745,113.132667 159.729167,104.399667 C155.745333,104.392833 151.7615,104.392833 147.7845,104.399667 Z" id="Shape"></path>
                    </g>
                    <g id="#ffffffff" transform="translate(22.000000, 39.000000)" fill="#FFFFFF">
                        <path d="M32.6932664,0.0895542623 C42.1742451,0.13768178 51.6552238,0.0208006651 61.1362025,0.1514325 C61.1362025,1.84277099 61.1499133,3.54098484 61.2253224,5.23232334 C57.4685788,5.83735499 53.6295708,5.35607981 49.8385504,5.50733772 C49.831695,24.7239682 49.8454058,43.9405986 49.831695,63.1503536 C47.7887943,63.2259826 45.7458936,63.1159768 43.702993,62.9715943 C44.1417367,51.5653725 43.5590302,40.1178986 43.8743772,28.6910507 C43.4287781,20.956271 44.367964,13.2214913 43.7441252,5.49358701 C40.0696461,5.52108844 36.3883116,5.50046236 32.7069772,5.51421308 C32.7069772,3.70599348 32.7069772,1.89777387 32.6932664,0.0895542623 Z" id="Path"></path>
                        <path d="M65.5236403,0.0208006651 C67.7242145,0.0208006651 69.9179334,0.0139253054 72.1185076,0.048302104 C72.0910861,9.56379996 72.1322183,19.0792978 72.0910861,28.601671 C78.308908,28.5741696 84.5267299,28.6085464 90.7445518,28.581045 C90.7171303,19.0517964 90.7445518,9.52942316 90.7308411,0.000174585918 C92.6777665,0.0208006651 94.6315474,0.0208006651 96.5784729,0.0139253054 C96.5716175,21.0594014 96.6058944,42.1048775 96.5579068,63.157229 C94.6178367,63.1503536 92.6777665,63.1503536 90.7376964,63.157229 C90.7308411,53.4423457 90.7308411,43.7274624 90.7376964,34.0125791 C84.5267299,34.0125791 78.3157634,34.0194545 72.1047968,34.0125791 C72.125363,43.6793349 72.07052,53.3460907 72.1322183,63.0128465 C69.9384995,63.1366029 67.7310699,63.2053565 65.5304956,63.1503536 C65.537351,42.1048775 65.5442064,21.0594014 65.5236403,0.0208006651 Z" id="Path"></path>
                        <path d="M102.570068,0.0826789026 C110.583997,0.103304982 118.597926,0.110180341 126.605,0.0826789026 C126.591289,1.89777387 126.591289,3.71286884 126.577578,5.5279638 C120.558562,5.48671165 114.546401,5.52108844 108.534241,5.50733772 C108.554807,13.2008653 108.534241,20.8943928 108.547951,28.5879203 C114.05967,28.5879203 119.564533,28.5947957 125.076252,28.581045 C125.083107,30.4030153 125.089963,32.2249856 125.089963,34.0469559 C119.578244,33.9919531 114.066525,34.0400806 108.554807,34.0194545 C108.554807,41.9192428 108.493108,49.8259065 108.582228,57.7256948 C114.765773,57.7256948 120.949318,57.7119441 127.132863,57.7325702 C127.119153,59.5270391 127.119153,61.3146326 127.126008,63.1091015 C118.94755,63.2122319 110.762236,63.1228522 102.576923,63.157229 C102.583778,42.132379 102.597489,21.1075289 102.570068,0.0826789026 Z" id="Path"></path>
                        <path d="M0.0137107429,66.3748974 C4.08580138,66.3611466 8.15789202,66.4367756 12.2231273,66.3198945 C13.971247,79.2043186 15.6302469,92.1024934 17.2069823,105.007544 C17.810255,103.041191 18.1393128,101.006084 18.3861062,98.9641024 C20.0999491,88.1010341 21.7315275,77.2173396 23.4933579,66.3611466 C27.2021139,66.3955234 30.9040145,66.3817727 34.6127704,66.3748974 C36.5596959,79.23182 38.4312123,92.1024934 40.5083899,104.93879 C40.7551832,103.776854 41.0156873,102.628669 41.1802163,101.459858 C42.5855674,89.7511204 44.3336871,78.0905103 45.7321829,66.3817727 C49.7768521,66.368022 53.8146658,66.4023988 57.859335,66.3542713 C53.9791947,87.5097531 50.9216991,108.816493 47.1101126,129.985726 C42.9900343,129.882595 38.8699561,129.937598 34.7498778,129.937598 C32.6795557,117.465695 31.061688,104.911289 28.8679691,92.4600122 C26.6125519,104.897538 25.1249363,117.486322 22.9723497,129.951349 C18.8385607,129.916972 14.7047717,129.910097 10.5641274,129.951349 C6.91706979,108.782116 3.61963612,87.5510053 0.0137107429,66.3748974 Z" id="Path"></path>
                        <path d="M61.9657025,129.662584 C61.9794132,108.562105 61.9794132,87.468501 61.9588471,66.368022 C70.761144,66.3955234 79.5565856,66.3748974 88.3588825,66.3817727 C88.2971842,69.7782004 88.3108949,73.1746281 88.3520272,76.5710558 C83.5258457,76.5641805 78.7065195,76.5573051 73.880338,76.5779312 C73.8871934,81.8857089 73.8871934,87.200362 73.8871934,92.515015 C78.1649452,92.5356411 82.4495523,92.5287657 86.7341595,92.515015 C86.761581,96.0420746 86.761581,99.5691341 86.7273041,103.096194 C82.442697,103.082443 78.1580898,103.068692 73.8734827,103.103069 C73.8940488,108.4796 73.880338,113.856132 73.880338,119.232663 C78.8299162,119.273915 83.7794944,119.246414 88.7290726,119.246414 C88.7222172,122.711595 88.7153618,126.176776 88.735928,129.648833 C79.8102343,129.635082 70.8845407,129.607581 61.9657025,129.662584 Z" id="Path"></path>
                        <path d="M94.1928036,129.662584 C94.199659,108.562105 94.2133697,87.4616256 94.1859483,66.368022 C102.974534,66.3955234 111.763121,66.3748974 120.551707,66.3748974 C120.503719,69.7782004 120.503719,73.1746281 120.551707,76.5779312 C115.711815,76.5641805 110.878778,76.5641805 106.045741,76.5710558 C106.052596,81.8857089 106.059452,87.2072373 106.038885,92.5218904 C110.323493,92.5287657 114.614955,92.5287657 118.899562,92.5218904 C118.926984,96.0489499 118.933839,99.5691341 118.892707,103.096194 C114.6081,103.075568 110.323493,103.082443 106.03203,103.089318 C106.066307,108.472725 106.052596,113.856132 106.038885,119.239538 C111.002174,119.260164 115.972319,119.253289 120.935608,119.246414 C120.928752,122.711595 120.915042,126.176776 120.942463,129.641958 C112.023625,129.648833 103.111642,129.600705 94.1928036,129.662584 Z" id="Path"></path>
                        <path d="M126.32393,66.3817727 C130.313756,66.3748974 134.310437,66.3748974 138.307119,66.3817727 C138.252276,75.1684824 138.252276,83.9483168 138.300263,92.7281512 C141.823924,84.0514472 144.922552,75.2028592 148.103445,66.4023988 C152.634845,66.3542713 157.166246,66.3955234 161.697646,66.3748974 C157.906626,74.8453405 154.293845,83.3914127 150.564523,91.8893573 C149.892697,93.0031656 150.475403,94.2476057 150.804461,95.3682893 C154.616048,106.767636 158.105432,118.270113 161.992427,129.641958 C157.536436,129.628207 153.073589,129.635082 148.610742,129.641958 C146.115387,121.639039 143.674875,113.622369 141.097255,105.646952 C139.986685,108.087705 138.786995,110.56971 138.300263,113.223599 C138.224854,118.696385 138.286553,124.169171 138.293408,129.641958 C134.303582,129.635082 130.320611,129.621331 126.330785,129.655708 C126.351351,108.56898 126.371917,87.4753764 126.32393,66.3817727 Z" id="Path"></path>
                    </g>
                </g>
            </g>
        </g>
    </g>
</svg>