<?xml version="1.0" encoding="UTF-8"?>
<svg width="286px" height="277px" viewBox="0 0 286 277" version="1.1" xmlns="http://www.w3.org/2000/svg" xmlns:xlink="http://www.w3.org/1999/xlink">
    <!-- Generator: Sketch 55 (78076) - https://sketchapp.com -->
    <title>Yashoda</title>
    <desc>Created with Sketch.</desc>
    <defs>
        <rect id="path-1" x="0" y="0" width="278" height="269" rx="19"></rect>
        <filter x="-2.5%" y="-1.9%" width="105.0%" height="105.2%" filterUnits="objectBoundingBox" id="filter-2">
            <feOffset dx="0" dy="2" in="SourceAlpha" result="shadowOffsetOuter1"></feOffset>
            <feGaussianBlur stdDeviation="2" in="shadowOffsetOuter1" result="shadowBlurOuter1"></feGaussianBlur>
            <feComposite in="shadowBlurOuter1" in2="SourceAlpha" operator="out" result="shadowBlurOuter1"></feComposite>
            <feColorMatrix values="0 0 0 0 0   0 0 0 0 0   0 0 0 0 0  0 0 0 0.5 0" type="matrix" in="shadowBlurOuter1"></feColorMatrix>
        </filter>
    </defs>
    <g id="Page-1" stroke="none" stroke-width="1" fill="none" fill-rule="evenodd">
        <g id="Custom-Preset-4" transform="translate(-3526.000000, -1752.000000)">
            <g id="Group" transform="translate(2224.000000, 1754.000000)">
                <g id="Yashoda" transform="translate(1306.000000, 0.000000)">
                    <g id="Rectangle">
                        <use fill="black" fill-opacity="1" filter="url(#filter-2)" xlink:href="#path-1"></use>
                        <use fill-opacity="0.3" fill="#5AC7D8" fill-rule="evenodd" xlink:href="#path-1"></use>
                    </g>
                    <g id="Unknown-1" transform="translate(34.000000, 62.000000)" fill-rule="nonzero">
                        <g id="#e67817ff" transform="translate(63.000000, 0.000000)" fill="#E67817">
                            <path d="M21.8637037,0.0811111111 C32.162963,2.70911111 40.0177778,11.3231111 42.1688889,21.6242222 C39.9851852,19.9208889 37.8014815,18.2175556 35.6014815,16.5628889 C34.0044444,21.7702222 34.8681481,27.1073333 37.7362963,31.682 C32.1955556,28.6484444 26.6385185,24.9335556 23.8518519,19.0286667 C20.397037,13.3184444 20.9511111,6.40777778 21.8637037,0.0811111111 Z" id="Path"></path>
                            <path d="M48.4103704,11.9557778 C51.8977778,5.88866667 58.237037,2.14133333 64.7718519,0.0648888889 C67.2977778,10.2362222 64.0222222,21.2673333 55.6296296,27.7724444 C56.1185185,25.2093333 56.5911111,22.6462222 57.0148148,20.0668889 C51.4414815,20.8293333 47.3837037,24.5442222 44.5807407,29.1675556 C44.8251852,23.2788889 44.9718519,17.0171111 48.4103704,11.9557778 Z" id="Path"></path>
                            <path d="M0.597037037,36.4026667 C8.12592593,28.8106667 19.3051852,27.3182222 29.4414815,29.3784444 C27.3881481,30.4328889 25.3022222,31.4711111 23.3140741,32.6877778 C24.1614815,37.5544444 30.4844444,37.7491111 34.1348148,39.2415556 L35.4385185,36.4026667 C36.9377778,39.9391111 31.9511111,40.9611111 29.6859259,42.2751111 C19.8755556,46.7524444 8.19111111,43.6215556 0.597037037,36.4026667 Z" id="Path"></path>
                            <path d="M50.4474074,34.0504444 C61.1214815,26.0042222 76.8962963,26.9126667 86.2666667,36.5324444 C78.4281481,43.362 67.4444444,46.3793333 57.4222222,42.7942222 C59.8177778,41.6586667 62.2296296,40.5393333 64.6251852,39.3875556 C60.6814815,35.8835556 55.8577778,33.6124444 50.4474074,34.0504444 Z" id="Path"></path>
                            <path d="M48.8177778,40.8637778 C53.7718519,43.9784444 59.1496296,47.0444444 62.0666667,52.3328889 C66.0918519,58.3513333 65.9614815,65.9108889 64.7555556,72.7728889 C54.5703704,69.9826667 46.682963,61.7093333 44.6459259,51.3757778 C46.8133333,52.9331111 49.0622222,54.4093333 51.3925926,55.7557778 C52.7125926,50.5646667 51.6696296,45.3411111 48.8177778,40.8637778 Z" id="Path"></path>
                            <path d="M29.8977778,52.8357778 C35.0311111,51.4082222 39.4962963,48.472 41.957037,43.6377778 C43.7822222,56.8751111 34.7051852,69.7717778 21.6681481,72.6755556 C19.4844444,62.4231111 22.8740741,51.7326667 30.8103704,44.7895556 C30.5822222,46.8011111 30.1259259,50.8242222 29.8977778,52.8357778 Z" id="Path"></path>
                        </g>
                        <g id="#1c114cff" transform="translate(0.000000, 79.000000)" fill="#1C114C">
                            <path d="M86.5586923,1.24195122 C88.7985385,1.25829268 91.0221538,1.27463415 93.262,1.27463415 C93.262,5.40902439 93.262,9.52707317 93.262,13.6614634 C97.5306923,13.6614634 101.799385,13.6614634 106.084308,13.6614634 C106.084308,9.51073171 106.084308,5.37634146 106.051846,1.24195122 C107.723615,1.25829268 111.067154,1.27463415 112.738923,1.29097561 C112.738923,11.0141463 112.706462,20.7373171 112.771385,30.4768293 C110.515308,30.4768293 108.259231,30.4604878 106.003154,30.4768293 C106.051846,25.9665854 106.084308,21.44 106.149231,16.9297561 C101.864308,16.9134146 97.5631538,16.8970732 93.2782308,16.8643902 C93.2457692,21.4236585 93.262,25.9665854 93.3106923,30.5095122 C91.0383846,30.4768293 88.7660769,30.4604878 86.4937692,30.4441463 C86.6236154,20.7046341 86.5424615,10.9814634 86.5586923,1.24195122 Z" id="Path"></path>
                            <path d="M1.16861538,1.22560976 C3.86292308,1.25829268 6.55723077,1.27463415 9.26776923,1.30731707 C11.6861538,4.91878049 14.1856923,8.46487805 16.7014615,12.0109756 C19.412,8.46487805 22.0413846,4.85341463 24.6545385,1.22560976 C26.3100769,1.24195122 29.6211538,1.27463415 31.2766923,1.29097561 C27.43,6.81439024 22.4146923,11.602439 19.3795385,17.6487805 C18.9737692,21.897561 19.2172308,26.1790244 19.2334615,30.4441463 C16.9936154,30.4604878 14.7537692,30.4768293 12.5301538,30.4931707 C12.027,24.6592683 14.3642308,17.7304878 9.81961538,13.0404878 C6.94676923,9.10219512 4.009,5.19658537 1.16861538,1.22560976 Z" id="Path"></path>
                            <path d="M24.3136923,30.4604878 C28.4687692,20.7209756 32.6563077,10.9978049 36.7951538,1.24195122 C39.1161538,1.25829268 41.4533846,1.27463415 43.7743846,1.27463415 C47.9456923,11.0304878 52.1007692,20.7863415 56.4019231,30.4768293 C53.9997692,30.4768293 51.5976154,30.4604878 49.1954615,30.4604878 C48.0755385,27.6987805 47.0205385,24.9207317 45.9330769,22.1590244 C41.8104615,22.1590244 37.7040769,22.1590244 33.5814615,22.1590244 C32.5102308,24.9043902 31.439,27.6660976 30.384,30.4278049 C28.3551538,30.4441463 26.3263077,30.4604878 24.3136923,30.4604878 L24.3136923,30.4604878 Z M34.815,19.2339024 C38.191,19.217561 41.5832308,19.184878 44.9754615,19.1521951 C43.2387692,14.8053659 41.5345385,10.4258537 39.7329231,6.11170732 C38.0286923,10.4585366 36.4056154,14.8380488 34.815,19.2339024 Z" id="Shape"></path>
                            <path d="M58.3658462,6.63463415 C61.8716923,-1.09487805 72.3243077,0.751707317 79.125,1.56878049 C79.3197692,2.64731707 79.7093077,4.80439024 79.9040769,5.88292683 C74.8400769,4.88609756 69.6462308,3.31731707 64.5497692,5.08219512 C64.1926923,12.0436585 72.8112308,12.305122 77.226,15.41 C82.3386923,17.3219512 84.0753846,24.4631707 79.7255385,28.0909756 C73.7363846,32.4214634 65.7346154,30.7709756 58.9176923,29.7904878 C58.869,28.4995122 58.7391538,25.9339024 58.6904615,24.6429268 C62.7643846,26.342439 67.0493077,28.2707317 71.5939231,27.5353659 C74.3531538,27.47 77.0474615,24.0873171 74.5316923,21.7341463 C69.5001538,16.4885366 57.1160769,16.3087805 58.3658462,6.63463415 Z" id="Path"></path>
                            <path d="M123.970615,2.87609756 C130.82,-0.686341463 141.175231,-0.0980487805 145.768538,6.84707317 C149.469154,14.07 148.803692,25.035122 141.045385,29.3002439 C133.871385,32.2743902 122.964308,31.914878 119.263692,23.8585366 C116.439538,16.962439 116.926462,7.0104878 123.970615,2.87609756 L123.970615,2.87609756 Z M129.196923,4.44487805 C123.613538,8.84073171 123.743385,17.9756098 126.372769,24.1526829 C128.125692,28.81 134.780308,29.8395122 137.961538,26.1136585 C141.597231,21.4236585 141.191462,14.8707317 139.974154,9.38 C139.000308,4.69 133.384462,1.91195122 129.196923,4.44487805 Z" id="Shape"></path>
                            <path d="M152.277077,1.27463415 C159.889308,1.55243902 168.751308,-0.277804878 175.065077,5.16390244 C180.194,12.06 179.707077,24.4631707 171.656615,28.9570732 C165.488923,31.244878 158.736923,30.2317073 152.293308,30.4441463 C152.277077,20.7209756 152.293308,10.9978049 152.277077,1.27463415 L152.277077,1.27463415 Z M159.321231,4.49390244 C159.353692,12.0763415 159.321231,19.642439 159.353692,27.2085366 C162.956923,26.8490244 167.550231,27.4536585 169.741385,23.7931707 C171.461846,18.547561 171.721538,12.5012195 169.611538,7.35365854 C167.323,4.03634146 162.729692,5.09853659 159.321231,4.49390244 Z" id="Shape"></path>
                            <path d="M178.717,30.574878 C182.839615,20.8026829 186.994692,11.0304878 191.166,1.27463415 C193.470769,1.27463415 195.775538,1.27463415 198.096538,1.27463415 C202.381462,10.9814634 206.536538,20.7536585 210.707846,30.5095122 C208.257,30.4768293 205.806154,30.4278049 203.371538,30.395122 C202.397692,27.6334146 201.407615,24.8717073 200.368846,22.1263415 C196.246231,22.1590244 192.123615,22.1590244 188.017231,22.1590244 C186.913538,24.9043902 185.826077,27.6497561 184.754846,30.4114634 C182.742231,30.4604878 180.729615,30.5095122 178.717,30.574878 L178.717,30.574878 Z M194.282308,6.07902439 C192.513154,10.4421951 190.776462,14.8053659 189.120923,19.2012195 C192.529385,19.2012195 195.937846,19.184878 199.346308,19.2012195 C197.625846,14.8380488 195.970308,10.4421951 194.282308,6.07902439 Z" id="Shape"></path>
                            <path d="M94.4793077,35.51 C100.841769,35.722439 107.642462,34.415122 113.599154,37.2421951 C118.387231,39.2685366 118.533308,46.9817073 114.264615,49.6126829 C110.499077,52.2273171 105.678538,51.7043902 101.361154,52.047561 C101.28,56.28 101.28,60.5287805 101.296231,64.777561 C99.0239231,64.7612195 96.7516154,64.744878 94.4955385,64.7285366 C94.5604615,54.9890244 94.5766923,45.2495122 94.4793077,35.51 L94.4793077,35.51 Z M101.344923,38.2226829 C101.296231,41.8668293 101.28,45.5109756 101.28,49.155122 C104.931923,48.8936585 110.255615,48.9753659 110.628923,44.0892683 C111.132077,38.7292683 105.110462,38.614878 101.344923,38.2226829 Z" id="Shape"></path>
                            <path d="M121.925538,35.4446341 C124.197846,35.4446341 126.502615,35.4609756 128.791154,35.4609756 C128.791154,45.2495122 128.774923,55.0380488 128.807385,64.8429268 C126.502615,64.7939024 124.214077,64.744878 121.925538,64.7121951 C122.006692,54.9563415 122.022923,45.2004878 121.925538,35.4446341 Z" id="Path"></path>
                            <path d="M134.471923,35.3792683 C142.425,35.51 150.378077,35.4446341 158.331154,35.4446341 C158.314923,36.3107317 158.282462,38.0265854 158.266231,38.8926829 C155.393385,38.8763415 152.536769,38.86 149.680154,38.8436585 C149.680154,47.4719512 149.663923,56.1165854 149.680154,64.744878 C147.927231,64.7285366 144.421385,64.6795122 142.668462,64.6631707 C142.538615,56.7865854 142.684692,48.9263415 142.944385,41.0660976 C143.106692,35.7714634 131.907462,42.1282927 134.471923,35.3792683 Z" id="Path"></path>
                            <path d="M0.973846154,64.7939024 C0.957615385,54.9890244 0.973846154,45.1841463 0.973846154,35.3792683 C2.66184615,35.4119512 6.05407692,35.4446341 7.75830769,35.4609756 C7.72584615,39.6117073 7.74207692,43.762439 7.72584615,47.9131707 C11.9133846,47.8804878 16.1009231,47.8804878 20.3046923,47.8804878 C20.3046923,43.7134146 20.3209231,39.5463415 20.3371538,35.3956098 C21.9926923,35.4119512 25.2875385,35.4609756 26.9268462,35.4773171 C26.8619231,45.2331707 26.8132308,55.0053659 26.9593077,64.7612195 C24.7356923,64.7612195 22.5120769,64.7612195 20.2722308,64.777561 C20.3046923,60.2019512 20.3209231,55.6263415 20.3533846,51.0343902 C16.1333846,51.0180488 11.9296154,51.0017073 7.70961538,50.9690244 C7.72584615,55.5282927 7.75830769,60.1039024 7.807,64.6795122 C5.53469231,64.7121951 3.26238462,64.7612195 0.973846154,64.7939024 Z" id="Path"></path>
                            <path d="M37.9962308,36.7192683 C45.2838462,33.3529268 56.337,34.5131707 59.9077692,42.7329268 C62.0177692,49.7434146 61.7743077,59.384878 54.6976923,63.4865854 C49.3415385,65.8234146 42.9466154,65.8234146 37.5904615,63.4702439 C28.8258462,57.832439 28.696,41.8504878 37.9962308,36.7192683 L37.9962308,36.7192683 Z M43.044,38.4187805 C39.7816154,40.0202439 38.5967692,43.9585366 38.3695385,47.3412195 C38.0449231,52.0802439 38.1423077,57.5056098 41.6968462,61.1007317 C44.9592308,63.6336585 50.2017692,62.8329268 52.2143846,59.0743902 C54.9411538,53.7143902 54.7463846,47.0143902 52.4253846,41.54 C50.8347692,37.977561 46.42,36.9480488 43.044,38.4187805 Z" id="Shape"></path>
                            <path d="M64.9393077,44.007561 C63.7869231,39.8568293 67.5686923,36.604878 71.1719231,35.6407317 C75.8301538,34.7582927 80.6506923,34.9707317 85.3089231,35.755122 C85.666,36.8173171 86.3639231,38.9743902 86.721,40.0365854 C81.6407692,39.1704878 76.4144615,37.3565854 71.3829231,39.3992683 C71.4640769,40.4614634 71.6263846,42.5695122 71.7075385,43.6153659 C76.5118462,46.5895122 82.2413077,47.994878 86.5586923,51.7207317 C90.4378462,55.0543902 88.7498462,61.7380488 84.2701538,63.6173171 C78.2485385,66.1829268 71.529,65.0390244 65.2963846,63.9931707 C65.3126154,62.7185366 65.3288462,60.1529268 65.3288462,58.8619512 C70.2792308,60.9373171 76.382,63.6826829 81.4297692,60.4307317 C83.9455385,56.2473171 78.7516923,54.1392683 75.8139231,52.5704878 C71.8049231,50.4134146 66.3351538,48.9753659 64.9393077,44.007561 Z" id="Path"></path>
                            <path d="M167.274308,35.4936585 C169.595308,35.4609756 171.916308,35.4446341 174.237308,35.4282927 C178.392385,45.2004878 182.579923,54.9563415 186.670077,64.744878 C184.284154,64.7285366 181.914462,64.7121951 179.544769,64.6958537 C178.489769,61.9178049 177.402308,59.1560976 176.282385,56.4107317 C172.257154,56.4597561 168.215692,56.4760976 164.190462,56.5087805 C163.135462,59.0907317 162.291462,61.7707317 160.911846,64.1892683 C159.402385,64.5978049 156.383462,65.3985366 154.874,65.8070732 C158.331154,55.4956098 163.427615,45.6907317 167.274308,35.4936585 L167.274308,35.4936585 Z M165.391538,53.4202439 C168.702615,53.4202439 172.013692,53.4202439 175.324769,53.4039024 C173.734154,48.9590244 172.094846,44.5304878 170.325692,40.1673171 C168.653923,44.5631707 167.014615,48.9917073 165.391538,53.4202439 Z" id="Shape"></path>
                            <path d="M190.549231,64.7939024 C190.565462,54.9890244 190.549231,45.2168293 190.549231,35.4282927 C192.253462,35.4282927 195.645692,35.4609756 197.349923,35.4773171 C197.349923,44.1056098 197.382385,52.717561 197.317462,61.3458537 C201.813385,61.3458537 206.293077,61.3458537 210.789,61.3458537 C210.756538,62.1792683 210.707846,63.8787805 210.675385,64.7121951 C203.972077,64.7285366 197.252538,64.6958537 190.549231,64.7939024 Z" id="Path"></path>
                        </g>
                    </g>
                </g>
            </g>
        </g>
    </g>
</svg>