<?xml version="1.0" encoding="UTF-8"?>
<svg width="21px" height="38px" viewBox="0 0 21 38" version="1.1" xmlns="http://www.w3.org/2000/svg" xmlns:xlink="http://www.w3.org/1999/xlink">
    <!-- Generator: Sketch 55 (78076) - https://sketchapp.com -->
    <title>np_mobile_2028408_000000</title>
    <desc>Created with Sketch.</desc>
    <g id="Page-1" stroke="none" stroke-width="1" fill="none" fill-rule="evenodd">
        <g id="Custom-Preset-4" transform="translate(-158.000000, -164.000000)" fill="#EC4D62" fill-rule="nonzero">
            <g id="np_mobile_2028408_000000" transform="translate(158.000000, 164.000000)">
                <path d="M21,3.78455381 C21,1.69144875 19.3575198,0 17.3250115,0 L3.67498848,0 C1.6424802,0 0,1.69144875 0,3.78455381 L0,34.2154462 C0,36.3085512 1.6424802,38 3.67498848,38 L17.3250115,38 C19.3575198,38 21,36.3085512 21,34.2154462 L21,3.78455381 Z M1.34998793,6.48779523 L19.6498585,6.48779523 L19.6498585,29.4269296 L1.34998793,29.4269296 L1.34998793,6.48779523 Z M17.3324227,36.6098429 L3.66742369,36.6098429 C2.38494284,36.6098429 1.34991113,35.5208193 1.34991113,34.2000633 L1.34991113,30.8171262 L19.6497817,30.8171262 L19.6497817,34.2000633 C19.6497817,35.5207797 18.6147884,36.6098429 17.3322691,36.6098429 L17.3324227,36.6098429 Z M19.6499353,3.79993673 L19.6500889,5.09747996 L1.35006473,5.09747996 L1.35006473,3.79993673 C1.35006473,2.47922026 2.38505804,1.3901571 3.66757729,1.3901571 L17.3325763,1.3901571 C18.6150572,1.3901571 19.6500889,2.47918072 19.6500889,3.79993673 L19.6499353,3.79993673 Z" id="Shape"></path>
                <path d="M12.3263482,33 L8.67365178,33 C8.29939909,33 8,33.4444476 8,34 C8,34.5555581 8.29940292,35 8.67365178,35 L12.3263482,35 C12.7006009,35 13,34.5555524 13,34 C13,33.4444419 12.7005971,33 12.3263482,33 Z" id="Path"></path>
            </g>
        </g>
    </g>
</svg>