<?xml version="1.0" encoding="UTF-8"?>
<svg width="286px" height="277px" viewBox="0 0 286 277" version="1.1" xmlns="http://www.w3.org/2000/svg" xmlns:xlink="http://www.w3.org/1999/xlink">
    <!-- Generator: Sketch 55 (78076) - https://sketchapp.com -->
    <title>WHO</title>
    <desc>Created with Sketch.</desc>
    <defs>
        <rect id="path-1" x="0" y="0" width="278" height="269" rx="19"></rect>
        <filter x="-2.5%" y="-1.9%" width="105.0%" height="105.2%" filterUnits="objectBoundingBox" id="filter-2">
            <feOffset dx="0" dy="2" in="SourceAlpha" result="shadowOffsetOuter1"></feOffset>
            <feGaussianBlur stdDeviation="2" in="shadowOffsetOuter1" result="shadowBlurOuter1"></feGaussianBlur>
            <feComposite in="shadowBlurOuter1" in2="SourceAlpha" operator="out" result="shadowBlurOuter1"></feComposite>
            <feColorMatrix values="0 0 0 0 0   0 0 0 0 0   0 0 0 0 0  0 0 0 0.5 0" type="matrix" in="shadowBlurOuter1"></feColorMatrix>
        </filter>
    </defs>
    <g id="Page-1" stroke="none" stroke-width="1" fill="none" fill-rule="evenodd">
        <g id="Custom-Preset-4" transform="translate(-3846.000000, -1752.000000)">
            <g id="Group" transform="translate(2554.000000, 1754.000000)">
                <g id="WHO" transform="translate(1296.000000, 0.000000)">
                    <g id="Rectangle">
                        <use fill="black" fill-opacity="1" filter="url(#filter-2)" xlink:href="#path-1"></use>
                        <use fill-opacity="0.3" fill="#EC4D62" fill-rule="evenodd" xlink:href="#path-1"></use>
                    </g>
                    <g id="max_logo" transform="translate(22.000000, 96.000000)" fill-rule="nonzero">
                        <g id="#f47920ff" transform="translate(9.000000, 0.000000)" fill="#F47920">
                            <path d="M10.2405319,0 L10.5670213,0 C13.4738298,2.4852071 16.335,5.02366864 19.217234,7.5408284 C21.45,9.46508876 22.7735106,12.3088757 23.1,15.2343195 C23.5107447,18.1597633 23.2404255,21.2485207 21.867766,23.8970414 C19.227766,29.1514793 14.2040426,32.6378698 11.3814894,37.7715976 C9.59808511,41.112426 8.64670213,45.0994083 9.71744681,48.8307692 C10.0123404,49.7218935 10.191383,51.0568047 11.2902128,51.252071 C14.4778723,51.9656805 18.0938298,51.4650888 20.6285106,49.2674556 C22.9385106,47.3325444 23.963617,44.1656805 23.7108511,41.1940828 C23.43,38.2402367 22.517234,35.3502959 20.9585106,32.8260355 C22.5382979,33.7739645 23.7845745,35.1550296 25.1818085,36.3372781 C26.7826596,37.7928994 28.4537234,39.1704142 30.0159574,40.6686391 C31.437766,42.2982249 32.8525532,44.1976331 32.9403191,46.4591716 C33.33,50.4923077 31.5676596,54.6319527 28.4045745,57.1136095 C24.4094681,60.4260355 18.1254255,60.8094675 14.0460638,57.4544379 C10.9496809,54.8130178 7.93053191,52.0792899 4.85170213,49.4130178 C3.09287234,47.9786982 1.46393617,46.2177515 0.84606383,43.9633136 C-0.196595745,40.1147929 0.0631914894,35.8792899 1.7412766,32.2508876 C4.08638298,27.0319527 8.31319149,22.9313609 10.4792553,17.6130178 C12.2240426,13.5301775 12.3679787,8.95739645 11.918617,4.59408284 C11.7852128,2.92899408 10.9637234,1.46272189 10.2405319,0 Z" id="Path"></path>
                        </g>
                        <g id="#7acbbdff" transform="translate(166.000000, 1.000000)" fill="#7ACBBD">
                            <path d="M22.4862827,4.95937173 C22.4649215,2.37109948 24.8431414,0.149528796 27.4100524,0.252774869 C31.9208377,0.238534031 36.431623,0.231413613 40.9388482,0.256335079 C42.9717277,0.220732984 44.9191623,1.59497382 45.5528796,3.52816754 C45.9836649,4.95225131 45.7771728,6.4617801 45.8092147,7.92858639 C42.8435602,9.95434555 40.0843979,12.2684817 37.1650262,14.365445 C36.4672251,14.9493194 35.445445,15.4406283 35.3493194,16.455288 C35.1891099,17.6586387 36.5882723,18.7587435 37.6990576,18.1962304 C39.6571728,17.0783246 41.2307853,15.3836649 43.2280628,14.3262827 L43.3063874,14.8603141 C41.8110995,16.2238743 40.0915183,17.3239791 38.5072251,18.5842932 C37.5210471,19.3889005 36.3354974,20.0048168 35.5700524,21.0408377 C34.8224084,22.4079581 36.5206283,24.1026178 37.8735079,23.3158115 C40.1235602,21.9095288 42.024712,19.9905759 44.3495288,18.6946597 C44.2783246,19.2571728 43.9543455,19.7093194 43.5057592,20.0190576 C41.6971728,21.4075393 39.8672251,22.7675393 38.0550785,24.1524607 C37.4783246,24.615288 36.7591623,25.1493194 36.805445,25.9824084 C36.7556021,27.2071204 38.2580105,28.1541361 39.3153927,27.488377 C41.5583246,26.0963351 43.4167539,24.1275393 45.7842932,22.9313089 C45.627644,23.5650262 45.1897382,24.0314136 44.6770681,24.3909948 C41.6864921,26.605445 38.7243979,28.8590576 35.7409424,31.0841885 C35.0787435,31.5398953 34.4450262,32.2768586 34.7049215,33.1419895 C34.9576963,34.3845026 36.6238743,34.9149738 37.5459686,34.0284817 C42.5195812,30.3223037 47.4433508,26.5413613 52.4169634,22.831623 C52.8370681,22.3687958 53.7413613,22.3153927 53.8446073,23.0843979 C53.8268063,25.1350785 53.0649215,27.1394764 53.2393717,29.1901571 C53.6665969,30.7174869 56.1409424,30.7317277 56.507644,29.1652356 C56.9633508,26.9187435 57.1484817,24.6259686 57.511623,22.3652356 C59.5872251,22.4008377 61.6663874,22.2797906 63.7384293,22.4186387 C65.9279581,22.6002094 67.6973822,24.4835602 68,26.6196859 L68,41.3055497 C67.7365445,43.7478534 65.4971728,45.7380105 63.0299476,45.6312042 C57.2908901,45.6490052 51.5553927,45.627644 45.8163351,45.6383246 C45.8020942,51.4307853 45.8376963,57.2232461 45.8020942,63.019267 C45.8163351,65.568377 43.5057592,67.8184293 40.953089,67.7258639 C36.4423037,67.7401047 31.9279581,67.7329843 27.4136126,67.7294241 C25.6513089,67.7863874 23.9139267,66.8002094 23.0737173,65.2443979 C22.2085864,63.7419895 22.5325654,61.947644 22.457801,60.2957068 C25.1315183,59.5872251 27.0504712,57.4867016 29.2542408,55.9558115 C30.9667016,54.5744503 32.8642932,53.4102618 34.4628272,51.8971728 C35.5273298,50.6831414 34.0106806,48.6431414 32.5403141,49.2804188 C30.820733,50.2309948 29.4002094,51.6301571 27.7696335,52.7124607 C27.4064921,52.9901571 26.9970681,53.0506806 26.5449215,52.8940314 C28.9195812,50.8397906 31.5576963,49.1095288 34.0035602,47.1442932 C34.544712,46.7348691 34.8829319,46.0370681 34.7049215,45.3606283 C34.4913089,44.2890052 33.1135079,43.6161257 32.180733,44.2534031 C29.9662827,45.6596859 28.0971728,47.5608377 25.7794764,48.8104712 C25.8613613,48.6075393 26.0180105,48.194555 26.0998953,47.991623 C28.2929843,46.0548691 30.838534,44.5346597 32.9889005,42.551623 C34.0925654,41.326911 32.5296335,39.2548691 31.0450262,39.9277487 C28.7949738,41.2236649 26.9685864,43.1675393 24.7042932,44.4456545 C23.8712042,44.0718325 24.9855497,43.6802094 25.1991623,43.3491099 C28.2395812,41.038534 31.3013613,38.7528796 34.3524607,36.4529843 C34.9576963,36.0257592 35.5095288,35.3350785 35.3101571,34.544712 C35.121466,33.32 33.4908901,32.6720419 32.554555,33.5229319 C27.5453403,37.2184293 22.6322513,41.0456545 17.6337173,44.7518325 C17.2812565,45.1897382 16.3627225,45.1256545 16.3271204,44.4848168 C16.32,42.4626178 17.0071204,40.493822 16.9537173,38.4680628 C16.6582199,36.8873298 14.1660733,36.702199 13.6818848,38.2437696 C13.1300524,40.6718325 12.9840838,43.1782199 12.5710995,45.6383246 C10.0433508,45.6134031 7.50848168,45.6810471 4.98073298,45.6169634 C2.50994764,45.6169634 0.302617801,43.4381152 0.288376963,40.9637696 C0.224293194,36.805445 0.299057592,32.6471204 0.256335079,28.492356 C0.242094241,27.1465969 0.252774869,25.6975916 1.06806283,24.5547644 C1.97591623,23.1306806 3.65633508,22.3118325 5.33319372,22.3652356 C11.0437696,22.354555 16.7579058,22.3687958 22.4720419,22.3616754 C22.4862827,16.5620942 22.4506806,10.7589529 22.4862827,4.95937173 Z" id="Path"></path>
                        </g>
                        <g id="#003974ff" transform="translate(0.000000, 14.000000)" fill="#003974">
                            <path d="M110.805286,0.07 C111.890749,0.063 112.972687,0.063 114.05815,0.0665 C117.642291,9.114 121.184141,18.1825 124.86696,27.1915 C125.448458,28.4795 126.093392,29.9005 127.35859,30.6565 C128.73304,31.241 129.94185,30.03 130.713656,29.0465 C133.751542,24.892 136.778855,20.7305 139.809692,16.5725 C137.360352,12.9185 134.907489,9.268 132.472247,5.607 C131.587665,4.179 130.389427,2.856 128.729515,2.352 C127.851982,2.135 127.270485,1.4805 127.030837,0.6335 C131.72511,0.5985 136.419383,0.602 141.113656,0.63 C140.881057,1.89 139.644053,2.142 138.667841,2.6285 C137.938326,3.353 138.523348,4.417 138.956828,5.138 C140.542731,7.5425 142.185022,9.9155 143.788546,12.3095 C145.561233,9.9575 147.35859,7.623 149.124229,5.2675 C149.628194,4.6165 150.107489,3.542 149.363877,2.884 C148.496916,2.268 147.436123,1.7815 147.203524,0.63 C150.759471,0.602 154.318943,0.595 157.87489,0.6335 C157.459031,2.4255 155.464317,2.2785 154.135683,2.968 C153.053744,3.4615 152.398238,4.487 151.718062,5.4075 C149.57533,8.323 147.40793,11.2245 145.251101,14.133 C148.613216,18.893 151.968282,23.66 155.344493,28.413 C156.193833,29.575 157.053744,30.9085 158.540969,31.3005 C159.344493,31.451 159.668722,32.179 159.901322,32.8755 C155.281057,32.914 150.657269,32.9175 146.037004,32.872 C146.340088,31.7135 147.488987,31.374 148.405286,30.8315 C149.106608,29.5925 147.897797,28.3185 147.284581,27.2895 C145.226432,24.367 143.189427,21.4235 141.131278,18.4975 C138.935683,21.5145 136.711894,24.5105 134.530396,27.5345 C133.955947,28.4585 133.103084,29.61 133.635242,30.7265 C134.371806,31.346 135.281057,31.8465 135.478414,32.8825 C128.870485,32.9035 122.262555,32.928 115.65815,32.8685 C115.954185,31.941 116.73304,31.4125 117.561233,30.9925 C118.512775,30.5585 118.459912,29.3475 118.174449,28.511 C117.497797,26.5265 116.690749,24.5875 115.968282,22.6205 C111.940088,22.617 107.90837,22.6205 103.880176,22.617 C103.161233,24.885 102.022907,27.0515 101.631718,29.4 C101.515419,31.199 103.968282,31.2375 104.296035,32.8685 C96.2431718,32.9245 88.1903084,32.9105 80.1409692,32.8755 C80.4229075,31.4475 81.892511,31.241 83.0837004,30.9785 C84.1550661,30.7825 84.0563877,29.5365 84.1198238,28.707 C84.1585903,22.393 84.1480176,16.0755 84.123348,9.7615 C80.0352423,17.451 76.0563877,25.2 72,32.907 C71.7145374,32.9035 71.1506608,32.9 70.8687225,32.9 C66.939207,24.9585 63.0555066,16.9995 59.10837,9.0685 C59.0977974,15.0255 59.0731278,20.979 59.122467,26.936 C59.245815,28.224 59.0519824,29.9425 60.3348018,30.73 C61.476652,31.2795 63.0343612,31.402 63.3867841,32.8685 C59.7744493,32.921 56.1656388,32.921 52.553304,32.8685 C52.8881057,30.7965 55.739207,31.5525 56.3947137,29.7465 C56.7753304,28.5005 56.7471366,27.1775 56.8035242,25.8895 C56.8140969,19.593 56.7964758,13.2965 56.8105727,7 C56.8035242,5.593 56.6378855,4.004 55.5594714,2.9715 C54.7700441,2.226 53.6105727,2.2575 52.630837,1.939 C52.1938326,1.666 52.1797357,1.0465 51.9471366,0.63 C55.2,0.5915 58.4528634,0.623 61.7057269,0.6125 C65.6986784,8.575 69.6740088,16.548 73.6740088,24.507 C77.8502203,16.541 82.015859,8.5715 86.1991189,0.609 C89.2334802,0.6265 92.2713656,0.588 95.3092511,0.63 C95.0378855,2.646 92.4511013,1.953 91.5312775,3.4265 C90.7629956,4.445 90.738326,5.7855 90.7242291,7.0035 C90.7348018,14.1225 90.7207048,21.2415 90.7277533,28.3605 C90.6748899,29.4105 90.9568282,30.6565 92.0422907,31.1045 C93.8819383,31.857 96.2044053,31.507 97.6528634,30.1175 C98.8546256,28.9625 99.369163,27.335 100.070485,25.872 C103.781498,17.325 107.245815,8.6765 110.805286,0.07 L110.805286,0.07 Z M104.771806,20.538 C108.222026,20.5415 111.672247,20.5415 115.122467,20.538 C113.473128,16.03 111.834361,11.515 110.174449,7.0105 C108.362996,11.515 106.572687,16.03 104.771806,20.538 Z" id="Shape"></path>
                            <path d="M52.845815,43.225 C53.5189427,43.225 54.1920705,43.225 54.8687225,43.225 C54.8687225,44.7335 54.8687225,46.242 54.8687225,47.7505 C56.2713656,47.754 57.6704846,47.7505 59.0731278,47.754 C59.076652,46.2455 59.0731278,44.7335 59.076652,43.225 C59.7497797,43.225 60.4264317,43.225 61.0995595,43.225 C61.0995595,46.928 61.1030837,50.6345 61.0995595,54.3375 C60.4264317,54.334 59.7497797,54.334 59.076652,54.3375 C59.0731278,52.7765 59.076652,51.219 59.0731278,49.658 C57.6740088,49.6545 56.2713656,49.6545 54.8687225,49.658 C54.8687225,51.219 54.8687225,52.7765 54.8687225,54.3375 C54.1920705,54.3375 53.5154185,54.3375 52.8422907,54.3375 C52.8422907,50.6345 52.8387665,46.928 52.845815,43.225 Z" id="Path"></path>
                            <path d="M65.353304,43.225 C67.6651982,43.225 69.9806167,43.2215 72.292511,43.2285 C72.2889868,43.8515 72.2889868,44.478 72.2889868,45.108 C70.6537445,45.108 69.014978,45.108 67.3797357,45.108 C67.3797357,46.032 67.3797357,46.9595 67.3797357,47.8835 C68.7013216,47.8835 70.0229075,47.8835 71.3444934,47.887 C71.3409692,48.496 71.3409692,49.1085 71.3444934,49.721 C70.0229075,49.721 68.7013216,49.721 67.3797357,49.721 C67.3762115,50.6275 67.3797357,51.5305 67.3797357,52.4335 C69.014978,52.4335 70.6537445,52.4335 72.292511,52.437 C72.2889868,53.067 72.2889868,53.7005 72.292511,54.3375 C69.9770925,54.3375 67.6651982,54.3375 65.353304,54.3375 C65.3497797,50.6345 65.353304,46.928 65.353304,43.225 Z" id="Path"></path>
                            <path d="M87.5559471,43.225 C88.2290749,43.225 88.9057269,43.225 89.5823789,43.2285 C89.5823789,46.2945 89.5788546,49.364 89.5823789,52.4335 C90.9603524,52.4335 92.3418502,52.4335 93.723348,52.437 C93.7198238,53.067 93.7198238,53.7005 93.723348,54.3375 C91.6687225,54.3375 89.6140969,54.3375 87.5559471,54.3375 C87.5524229,50.6345 87.5559471,46.928 87.5559471,43.225 Z" id="Path"></path>
                            <path d="M120.472247,43.694 C122.160352,42.6055 124.281938,43.1515 126.135683,43.414 C126.107489,44.016 126.082819,44.6215 126.061674,45.2235 C124.662555,45.1885 123.073128,44.6285 121.793833,45.395 C120.789427,46.438 121.00793,48.0515 120.965639,49.3815 C121.036123,50.463 121.060793,51.9995 122.297797,52.43 C123.538326,52.703 124.814097,52.4405 126.065198,52.353 C126.075771,52.962 126.093392,53.571 126.114537,54.1835 C124.214978,54.3935 122.012335,54.9675 120.334802,53.7425 C118.875771,52.5035 118.886344,50.4 118.854626,48.6535 C118.903965,46.9315 118.967401,44.842 120.472247,43.694 Z" id="Path"></path>
                            <path d="M159.735683,43.2215 C159.732159,43.8515 159.732159,44.478 159.735683,45.108 C158.096916,45.108 156.461674,45.1045 154.822907,45.108 C154.822907,46.032 154.822907,46.9595 154.822907,47.8835 C156.144493,47.8835 157.466079,47.8835 158.791189,47.8835 C158.787665,48.496 158.784141,49.1085 158.787665,49.721 C157.466079,49.721 156.144493,49.721 154.822907,49.7245 C154.822907,50.6275 154.822907,51.5305 154.822907,52.4335 C156.461674,52.4335 158.096916,52.4335 159.735683,52.437 C159.732159,53.067 159.732159,53.7005 159.735683,54.3375 C157.423789,54.3375 155.111894,54.3375 152.8,54.3375 C152.796476,50.6345 152.796476,46.928 152.796476,43.225 C155.10837,43.2215 157.420264,43.225 159.735683,43.2215 Z" id="Path"></path>
                            <path d="M77.9171806,43.225 C79.10837,43.225 80.3030837,43.225 81.4942731,43.225 C82.3964758,46.928 83.29163,50.6345 84.1903084,54.3375 C83.5101322,54.3375 82.8299559,54.3375 82.1497797,54.3375 C81.9277533,53.5885 81.7092511,52.836 81.4907489,52.087 C80.2643172,52.0835 79.0378855,52.0835 77.814978,52.087 C77.6176211,52.836 77.430837,53.5885 77.2370044,54.3375 C76.553304,54.3375 75.8731278,54.3375 75.1929515,54.3375 C76.0986784,50.6345 77.0079295,46.928 77.9171806,43.225 L77.9171806,43.225 Z M79.615859,44.814 C79.0731278,46.585 78.7066079,48.405 78.2590308,50.204 C79.2035242,50.204 80.1480176,50.2005 81.0960352,50.2005 C80.5779736,48.412 80.4440529,46.4975 79.615859,44.814 Z" id="Shape"></path>
                            <path d="M96.123348,43.225 C98.6784141,43.225 101.23348,43.225 103.788546,43.225 C103.785022,43.8795 103.785022,44.5375 103.788546,45.192 C102.854626,45.192 101.924229,45.1955 100.993833,45.1955 C100.990308,48.244 100.993833,51.289 100.990308,54.341 C100.320705,54.3375 99.6546256,54.3375 98.9885463,54.3375 C98.985022,51.289 98.9885463,48.2405 98.985022,45.192 C98.0299559,45.1955 97.0784141,45.1885 96.123348,45.192 C96.123348,44.5375 96.123348,43.8795 96.123348,43.225 Z" id="Path"></path>
                            <path d="M106.872247,43.225 C107.545374,43.225 108.222026,43.225 108.898678,43.225 C108.898678,44.7335 108.898678,46.242 108.898678,47.754 C110.301322,47.754 111.703965,47.754 113.106608,47.754 C113.106608,46.242 113.103084,44.7335 113.106608,43.225 C113.779736,43.225 114.452863,43.225 115.129515,43.2215 C115.136564,46.928 115.13304,50.631 115.13304,54.3375 C114.456388,54.3375 113.779736,54.3375 113.106608,54.3375 C113.103084,52.7765 113.106608,51.2155 113.106608,49.658 C111.703965,49.658 110.301322,49.658 108.898678,49.658 C108.898678,51.2155 108.898678,52.7765 108.898678,54.3375 C108.222026,54.3375 107.545374,54.3375 106.872247,54.3375 C106.872247,50.631 106.872247,46.928 106.872247,43.225 Z" id="Path"></path>
                            <path d="M131.520705,43.2285 C132.715419,43.225 133.906608,43.225 135.101322,43.225 C136.003524,46.928 136.898678,50.631 137.797357,54.3375 C137.113656,54.3375 136.43348,54.3375 135.753304,54.3375 C135.531278,53.585 135.319824,52.836 135.097797,52.087 C133.867841,52.0835 132.64141,52.0835 131.418502,52.087 C131.22467,52.836 131.034361,53.5885 130.844053,54.3375 C130.160352,54.3375 129.480176,54.334 128.8,54.3375 C129.702203,50.6345 130.618502,46.9315 131.520705,43.2285 L131.520705,43.2285 Z M131.862555,50.204 C132.807048,50.204 133.755066,50.2005 134.699559,50.2005 C134.188546,48.4085 134.047577,46.4975 133.222907,44.8105 C132.680176,46.585 132.317181,48.405 131.862555,50.204 Z" id="Shape"></path>
                            <path d="M141.16652,43.225 C143.0837,43.295 145.043172,43.022 146.928634,43.47 C149.702203,44.3485 149.719824,48.6885 147.379736,50.0955 C147.954185,51.513 148.546256,52.92 149.127753,54.334 C148.380617,54.3375 147.63348,54.3375 146.889868,54.3375 C146.371806,53.0705 145.857269,51.8035 145.346256,50.533 C144.627313,50.5295 143.911894,50.5295 143.196476,50.5295 C143.192952,51.8 143.192952,53.067 143.192952,54.3375 C142.5163,54.3375 141.839648,54.334 141.170044,54.3375 C141.16652,50.6345 141.16652,46.9315 141.16652,43.225 L141.16652,43.225 Z M143.196476,45.0975 C143.192952,46.298 143.192952,47.4985 143.196476,48.699 C144.095154,48.6815 145.011454,48.762 145.903084,48.5905 C147.3163,48.1075 147.340969,45.6295 145.867841,45.2095 C144.986784,45.0415 144.084581,45.115 143.196476,45.0975 Z" id="Shape"></path>
                            <path d="M22.6643172,50.848 C25.3779736,49.875 28.0669604,48.5135 31.0237885,48.5555 C33.1629956,48.4435 35.3268722,48.825 37.2299559,49.819 C40.5955947,51.5655 43.2740088,54.3025 46.1885463,56.665 C48.0246696,58.3345 50.1251101,59.7275 51.7462555,61.6175 C49.9348018,60.7495 48.3594714,59.423 46.4,58.8735 C41.1735683,57.1025 35.4713656,57.995 30.4317181,59.9515 C27.29163,61.04 24.2748899,62.5975 20.9303965,63 L18.8581498,63 C15.1612335,62.566 12.0563877,60.3155 9.31453744,57.974 C6.22731278,55.286 3.0660793,52.6855 0,49.9765 L0,49.7735 C1.07136564,50.1445 2.08634361,50.6555 3.10132159,51.1525 C6.60440529,52.8465 10.5550661,53.627 14.445815,53.319 C17.3603524,53.2105 19.9753304,51.814 22.6643172,50.848 Z" id="Path"></path>
                        </g>
                    </g>
                </g>
            </g>
        </g>
    </g>
</svg>