<?xml version="1.0" encoding="UTF-8"?>
<svg width="140px" height="140px" viewBox="0 0 140 140" version="1.1" xmlns="http://www.w3.org/2000/svg" xmlns:xlink="http://www.w3.org/1999/xlink">
    <!-- Generator: Sketch 55 (78076) - https://sketchapp.com -->
    <title>np_congratulations_2199747_000000</title>
    <desc>Created with Sketch.</desc>
    <g id="Page-1" stroke="none" stroke-width="1" fill="none" fill-rule="evenodd">
        <g id="Custom-Preset-4" transform="translate(-99.000000, -352.000000)" fill="#5AC7D8" fill-rule="nonzero">
            <g id="np_congratulations_2199747_000000" transform="translate(99.000000, 352.000000)">
                <path d="M39.1659351,41.5127887 C38.6625263,40.1685242 39.3429573,38.6693864 40.6871936,38.1659351 C42.0314581,37.6625263 43.5305959,38.3429573 44.0340472,39.6871936 C47.5579232,49.0804196 55.6234822,60.1339727 68.2421954,72.7577841 C80.8661484,85.3762141 91.9192767,93.441065 101.312786,96.9659323 C102.657051,97.4693411 103.337496,98.9685497 102.834044,100.312786 C102.330636,101.657051 100.831427,102.337496 99.4871908,101.834044 C89.2807953,98.0059735 77.6695512,89.5309974 64.569904,76.430642 C51.4702567,63.3302867 42.9958471,51.7197507 39.1665016,41.5133552 L39.1659351,41.5127887 Z" id="Path"></path>
                <path d="M7.24444232,132.82862 L97.8029366,97.2931789 C98.0633143,91.5269737 90.6451395,80.6427437 75.2937926,65.4389511 C59.9424458,50.2351586 48.9511021,42.8895849 43.1277422,43.1480143 L7.24444232,132.82862 Z M40.5677898,38.353026 C48.6285907,36.1749159 61.0942116,44.0862252 78.9713309,61.7956589 C96.8541232,79.4994747 104.84316,91.8450947 102.643445,99.8269102 C102.427388,100.611454 101.851221,101.24785 101.092156,101.544201 L3.56435116,139.81141 C1.44802927,140.645336 -0.651699022,138.566005 0.190461504,136.470227 L38.8322697,39.8878717 C39.1314366,39.1362355 39.7740769,38.5656544 40.5663715,38.3516215 L40.5677898,38.353026 Z" id="Shape"></path>
                <path d="M128.065679,27.0236989 C129.488419,26.8273629 130.789891,27.8725812 130.977369,29.3566395 C131.16486,30.8407275 130.166726,32.2035929 128.749521,32.3999142 C120.549357,33.5375276 112.806875,36.6731531 106.057403,41.5239726 C104.877283,42.3728549 103.261475,42.0552373 102.456367,40.8194632 C101.645724,39.5836743 101.943514,37.897411 103.123634,37.0485583 C110.540713,31.7184666 119.054986,28.2710187 128.066047,27.023758 L128.065679,27.0236989 Z" id="Path"></path>
                <path d="M108.065679,69.0236959 C109.488419,68.8273844 110.789891,69.8724726 110.977369,71.3563462 C111.16486,72.8460142 110.166726,74.20871 108.749521,74.4050068 C100.549357,75.5366992 92.806875,78.6777139 86.0574029,83.5221649 C84.8772829,84.3709415 83.2614753,84.059143 82.4563668,82.8235079 C81.6457243,81.5878729 81.9435142,79.9018194 83.1236342,79.0530723 C90.5407125,73.7236441 99.054986,70.2708605 108.066047,69.0236072 L108.065679,69.0236959 Z" id="Path"></path>
                <path d="M62.6110103,54.0699196 C61.6835012,55.1712654 60.0395094,55.3151711 58.9343299,54.3909129 C57.8290935,53.4721944 57.6846794,51.8284642 58.6066434,50.7271751 C69.6368268,37.6050744 75.7793669,21.0789379 75.7793669,3.60112772 C75.7793669,2.16773761 76.9512582,1 78.3896835,1 C79.8336823,1 81,2.16776594 81,3.60112772 C81,22.3129823 74.4185445,40.0174826 62.6101999,54.0694379 L62.6110103,54.0699196 Z" id="Path"></path>
                <path d="M22.6777591,133 L17.7091203,130.785381 C19.5483327,127.014474 20.5116586,122.892123 20.5116586,118.630253 C20.5116586,112.594459 18.5673696,106.843276 15,102.023466 L19.4840612,99 C23.6995271,104.701059 26,111.506571 26,118.629967 C26,123.661556 24.8556377,128.53706 22.6777591,132.999 L22.6777591,133 Z" id="Path"></path>
                <path d="M38.4351492,126 L33.656728,123.775711 C36.3214646,118.181607 37.7155725,112.059225 37.7155725,105.730856 C37.7155725,94.7427977 33.4824466,84.4161183 26,76.5866214 L29.8396614,73 C38.2384169,81.7859767 43,93.3908571 43,105.730144 C43,112.831213 41.425854,119.715334 38.4351492,125.998576 L38.4351492,126 Z" id="Path"></path>
                <path d="M50.018372,121.999859 L46,118.954956 C52.4874888,109.632431 56.0299582,98.4235409 56.0299582,86.6517631 C56.0299582,76.2867805 53.2859386,66.3462936 48.173099,57.725048 L52.3976142,55 C57.9914998,64.4328148 61,75.3167668 61,86.6521867 C61,99.5271451 57.1138683,111.80137 50.018372,122 L50.018372,121.999859 Z" id="Path"></path>
                <path d="M72.3955197,112 L68,109.279433 C72.4504479,101.96 75.155837,93.6822695 75.8637223,85 L81,85.4211064 C80.226257,94.9235177 77.2629162,103.988482 72.3955197,111.99983 L72.3955197,112 Z" id="Path"></path>
                <path d="M46.7201888,71.4127948 C47.3760464,72.6383919 46.8389226,74.1281095 45.5271915,74.7408743 C44.2154617,75.3483918 42.6210498,74.8518129 41.9652211,73.6262131 C39.5452698,69.0882917 36.43562,64.8938756 32.7153012,61.1800964 C31.7145365,60.1763712 31.7710874,58.6074581 32.8396887,57.6722852 C33.9139537,56.7319597 35.5931269,56.7847838 36.5940219,57.788505 C40.6705522,61.8562028 44.0743189,66.4468671 46.7203582,71.412412 L46.7201888,71.4127948 Z" id="Path"></path>
                <path d="M50,82.501992 C50,85.8326693 45,85.8326693 45,82.501992 C45,79.1660027 50,79.1660027 50,82.501992" id="Path"></path>
                <path d="M52.4972203,27 C47.8030724,27 44,23.1967851 44,18.5027797 C44,13.8030724 47.8032149,10 52.4972203,10 C57.1912257,10 61,13.8032149 61,18.5027797 C61,23.1969276 57.1912257,27 52.4972203,27 Z M52.4972203,21.7712923 C54.3068835,21.7712923 55.7714348,20.3068835 55.7714348,18.5026372 C55.7714348,16.692974 54.307026,15.2284227 52.4972203,15.2284227 C50.6931165,15.2284227 49.2285652,16.6928314 49.2285652,18.5026372 C49.2285652,20.3067409 50.692974,21.7712923 52.4972203,21.7712923 Z" id="Shape"></path>
                <path d="M105.50278,17 C100.808632,17 97,13.1967851 97,8.50277971 C97,3.80307236 100.808774,0 105.50278,0 C110.196785,0 114,3.80321491 114,8.50277971 C114,13.1969276 110.196785,17 105.50278,17 Z M105.50278,11.7712923 C107.306883,11.7712923 108.771435,10.3068835 108.771435,8.50263716 C108.771435,6.692974 107.307026,5.22842265 105.50278,5.22842265 C103.693117,5.22842265 102.234125,6.69283145 102.234125,8.50263716 C102.234125,10.3067409 103.692974,11.7712923 105.50278,11.7712923 Z" id="Shape"></path>
                <path d="M123.50278,64 C118.808632,64 115,60.1967851 115,55.5027797 C115,50.8030724 118.808774,47 123.50278,47 C128.196785,47 132,50.8032149 132,55.5027797 C132,60.1969276 128.196785,64 123.50278,64 Z M123.50278,58.7712923 C125.306883,58.7712923 126.771435,57.3068835 126.771435,55.5026372 C126.771435,53.692974 125.307026,52.2284227 123.50278,52.2284227 C121.698533,52.2284227 120.234125,53.6928314 120.234125,55.5026372 C120.234125,57.3067409 121.698533,58.7712923 123.50278,58.7712923 Z" id="Shape"></path>
                <path d="M86,42.4964343 C86,41.1178084 87.1223651,40 88.5,40 C89.8776349,40 91,41.1178221 91,42.4964343 L91,52.4982512 C91,53.8821916 89.8776349,55 88.5,55 C87.1223651,55 86,53.8821779 86,52.4982512 L86,42.4964343 Z" id="Path"></path>
                <path d="M83.5017488,50 C82.1178084,50 81,48.8776349 81,47.5 C81,46.1170271 82.1178221,45 83.5017488,45 L93.5035657,45 C94.8821916,45 96,46.1170407 96,47.5 C96,48.8776622 94.8821779,50 93.5035657,50 L83.5017488,50 Z" id="Path"></path>
                <path d="M115,114.500863 C115,113.117413 116.122365,112 117.5,112 C118.877662,112 120,113.117426 120,114.500863 L120,124.499137 C120,125.877275 118.877635,127 117.5,127 C116.122338,127 115,125.877248 115,124.499137 L115,114.500863 Z" id="Path"></path>
                <path d="M111.501749,122 C110.117808,122 109,120.881772 109,119.497342 C109,118.118215 110.117822,117 111.501749,117 L121.498251,117 C122.882192,117 124,118.118228 124,119.497342 C124,120.881785 122.882178,122 121.498251,122 L111.501749,122 Z" id="Path"></path>
                <path d="M20,15.4964343 C20,14.1178084 21.1223651,13 22.5,13 C23.8776622,13 25,14.1178221 25,15.4964343 L25,25.4982512 C25,26.8821916 23.8776349,28 22.5,28 C21.1223378,28 20,26.8821779 20,25.4982512 L20,15.4964343 Z" id="Path"></path>
                <path d="M17.5017488,23 C16.1178084,23 15,21.8776349 15,20.5 C15,19.1170271 16.1178221,18 17.5017488,18 L27.4982512,18 C28.8821916,18 30,19.1170407 30,20.5 C30,21.8776622 28.8821779,23 27.4982512,23 L17.5017488,23 Z" id="Path"></path>
                <path d="M122,82.5 C122,85.8333333 117,85.8333333 117,82.5 C117,79.1666667 122,79.1666667 122,82.5" id="Path"></path>
                <path d="M131,103.5 C131,106.833333 126,106.833333 126,103.5 C126,100.166667 131,100.166667 131,103.5" id="Path"></path>
                <path d="M93,24.498008 C93,27.8339973 88,27.8339973 88,24.498008 C88,21.1673307 93,21.1673307 93,24.498008" id="Path"></path>
                <path d="M140,31.501992 C140,34.8326693 135,34.8326693 135,31.501992 C135,28.1660027 140,28.1660027 140,31.501992" id="Path"></path>
                <path d="M38,6.49800797 C38,9.83399734 33,9.83399734 33,6.49800797 C33,3.16733068 38,3.16733068 38,6.49800797" id="Path"></path>
            </g>
        </g>
    </g>
</svg>