<?xml version="1.0" encoding="UTF-8"?>
<svg width="41px" height="27px" viewBox="0 0 41 27" version="1.1" xmlns="http://www.w3.org/2000/svg" xmlns:xlink="http://www.w3.org/1999/xlink">
    <!-- Generator: Sketch 55 (78076) - https://sketchapp.com -->
    <title>np_partner_511233_000000</title>
    <desc>Created with Sketch.</desc>
    <g id="Page-1" stroke="none" stroke-width="1" fill="none" fill-rule="evenodd">
        <g id="Custom-Preset-4" transform="translate(-148.000000, -276.000000)" fill="#EC4D62" fill-rule="nonzero">
            <g id="np_partner_511233_000000" transform="translate(148.000000, 276.000000)">
                <path d="M41,6.97007483 C40.9981802,6.34818813 40.816193,5.71717727 40.4103713,5.19709955 L37.1618697,1.04378648 C36.6177118,0.352770222 35.7896879,0.00181552371 34.9616175,0 C34.4684278,0 33.9679702,0.125471309 33.5239317,0.401873156 L30.3555163,2.37125086 C30.0224805,2.58400696 29.4510402,2.72948162 28.8996144,2.72584592 C28.470121,2.7276647 28.0570082,2.64219683 27.784044,2.50763393 L24.6829961,1.00559065 C24.1825386,0.765559796 23.6256619,0.665543061 23.0632877,0.665543061 C22.2570675,0.66918016 21.4417624,0.867387401 20.7866298,1.32015574 L20.4244759,1.57473871 C20.1351171,1.43108424 19.692891,1.21105207 19.1924334,0.961929634 C18.5918564,0.667344619 17.8857556,0.549144715 17.1723869,0.547329191 C16.5281561,0.549147508 15.8839253,0.649161451 15.3179172,0.887376782 L13.2050191,1.78750413 C12.8610628,1.93661449 12.3150786,2.03299086 11.7709673,2.03117534 C11.2286264,2.03299366 10.6808811,1.93661914 10.3387325,1.78750413 L8.2240174,0.885561258 C7.8382057,0.721903434 7.42511157,0.65098163 7.01745902,0.65098163 C6.5461195,0.65098163 6.0784139,0.743722305 5.64527724,0.920107416 C5.21032827,1.09649718 4.80812196,1.35835156 4.48782353,1.7165637 L0.636974465,6.02442905 C0.211124304,6.50084109 -0.00180543555,7.09912598 1.15301087e-05,7.69010222 C-0.00180823088,8.39382715 0.300290729,9.09936759 0.88263754,9.5958435 L4.47505818,12.6580734 L2.76981261,14.4328642 C2.30029005,14.9220314 2.06552877,15.5566734 2.06552877,16.1858221 C2.06370901,16.85319 2.32941275,17.52782 2.85534977,18.0242494 L3.20112765,18.351565 C3.5268863,18.6606975 3.91817684,18.857072 4.32764636,18.9607431 C4.12199846,19.3389772 4.00916955,19.7517528 4.01098651,20.1663439 C4.00916675,20.8355273 4.27487049,21.5083418 4.80080751,22.0065867 L4.79898728,22.0065867 L5.14476516,22.3357225 C5.63795487,22.8030569 6.27855173,23.0358164 6.90824681,23.0358164 C7.24674285,23.0358164 7.58522958,22.9685349 7.90552801,22.8357876 C8.01653995,23.2885792 8.2476673,23.7195286 8.61162882,24.0650368 L8.9574067,24.3941726 C9.4505964,24.861507 10.0893763,25.0942665 10.7208883,25.0942665 C11.214078,25.0942665 11.7090847,24.9487918 12.1367705,24.6669341 C12.2623414,25.0688072 12.4752665,25.4488662 12.8010345,25.7580173 L13.1468124,26.0871531 C13.6400021,26.5544875 14.278782,26.787247 14.9084305,26.787247 C15.5799623,26.787247 16.2569451,26.5235724 16.7592662,26.0016838 L18.2643194,24.4305576 L20.3098501,26.3217281 C20.7994058,26.7763352 21.4272374,27.0018046 22.0478476,26.9999891 C22.7302813,27.0018074 23.4163954,26.7290432 23.91867,26.1925931 L24.2444286,25.843454 C24.5265102,25.5415929 24.7103173,25.1833482 24.8177046,24.8087451 L25.6093425,25.5397494 C26.1007153,25.9925411 26.7267298,26.216195 27.3473401,26.216195 C28.0297737,26.216195 28.7195219,25.9434288 29.2217964,25.4069834 L29.5457334,25.0578443 C29.9206293,24.6577866 30.1317281,24.161348 30.1972321,23.655841 C30.4065186,23.708575 30.617622,23.744946 30.832378,23.744946 C31.5148117,23.744946 32.2027429,23.4721798 32.7050174,22.9357345 L33.030776,22.5865953 C33.4857442,22.0992436 33.7132097,21.4737258 33.7113927,20.8572857 C33.7113927,20.6663485 33.6840945,20.4754159 33.6422362,20.2880957 C34.2081977,20.2135382 34.7578066,19.9607801 35.1745905,19.5134257 L35.5003492,19.1642866 C35.9553174,18.6769348 36.1809659,18.0514171 36.1809659,17.4349769 C36.1827856,16.7567159 35.9079831,16.0711462 35.3674777,15.5729013 L34.7559989,15.0092045 L40.2683932,8.91928626 C40.7706677,8.37011361 40.9999781,7.66457317 40.9999781,6.96992587 L41,6.97007483 Z M3.81789431,17.02249 C3.57767282,16.7970019 3.45937903,16.4951501 3.45937903,16.185999 C3.46119926,15.8968699 3.56493076,15.613178 3.77785584,15.3895428 L7.26656967,11.7508608 C7.49405377,11.5144657 7.79796224,11.3944503 8.10917585,11.3944503 C8.40035624,11.3944503 8.68426877,11.4999182 8.90994523,11.7108588 L9.25390149,12.0399946 C9.25390149,12.0399946 9.61059514,12.5673344 9.61241676,12.8764855 C9.610597,13.1074248 9.54144329,13.334733 9.40676886,13.5292827 C9.39584983,13.540193 5.63963999,17.4516518 5.63963999,17.4516518 C5.4394523,17.5934908 5.20469102,17.6662281 4.96447418,17.6662281 C4.67147217,17.6644098 4.38756429,17.5607601 4.16370481,17.3498196 L3.81789431,17.02249 Z M6.91167435,21.6522151 C6.61867233,21.6522151 6.33476446,21.5467471 6.11090497,21.3358065 L5.76512709,21.0066707 L5.76330733,21.0066707 C5.5249028,20.7811827 5.40661368,20.4793309 5.40661368,20.1701798 C5.40661368,19.8810507 5.5121654,19.5973588 5.72509048,19.3737235 C5.72509048,19.3737235 10.3767089,14.5346545 10.4147254,14.4894992 C10.6367493,14.2749229 10.9243144,14.1658193 11.2191287,14.1658193 C11.5121308,14.1658193 11.7960386,14.2712872 12.0198981,14.4822278 L12.365676,14.8113636 C12.6040805,15.0368517 12.7223697,15.3387034 12.7241913,15.6478545 C12.7223715,15.9369837 12.6186396,16.2206755 12.4057145,16.4443108 L7.75227907,21.2978109 C7.52479497,21.5323905 7.22270346,21.6505858 6.91148986,21.6524059 L6.91167435,21.6522151 Z M10.7243205,23.7088776 C10.4313185,23.7088776 10.1474107,23.6034096 9.92355117,23.392469 L9.57595632,23.0633332 C9.33755179,22.8378498 9.21744104,22.5359934 9.21744104,22.2268423 C9.21744104,21.9686236 9.30479516,21.7176577 9.47404318,21.5085466 L12.7134134,18.1299036 C12.9317987,17.9335104 13.2066031,17.8298627 13.4886987,17.8298627 C13.7817007,17.8298627 14.0656086,17.9353306 14.2894681,18.1462712 L14.6370629,18.475407 C14.8754674,18.7008951 14.9937566,19.0027468 14.9955782,19.3118979 C14.9937584,19.6028473 14.8882048,19.8865345 14.6771014,20.1083542 L11.5632881,23.3542779 C11.3394426,23.590673 11.0355295,23.7088729 10.7243159,23.7088729 L10.7243205,23.7088776 Z M15.7545201,25.0472444 C15.5288529,25.2836396 15.2249445,25.4018395 14.9137309,25.403655 C14.6207289,25.403655 14.336821,25.298187 14.1129615,25.0872464 L13.7671836,24.7581106 C13.5287791,24.5326226 13.41049,24.2307708 13.4086683,23.9216197 C13.4104881,23.6306704 13.5142201,23.3469832 13.7271451,23.1251634 L15.6926361,21.0758096 C15.9201202,20.8394144 16.2240287,20.7212145 16.5352423,20.719399 C16.8264227,20.719399 17.1121522,20.824867 17.3360117,21.0358075 L17.6836065,21.3649434 C17.922011,21.5904314 18.0403002,21.8922832 18.0403002,22.2014343 C18.0384804,22.4923836 17.9347484,22.7760708 17.7218233,22.9978906 L15.7545201,25.0472444 Z M34.4865042,18.2208753 L34.1607456,18.5700144 C33.9332615,18.8136856 33.6257191,18.9355213 33.3090546,18.9355213 C33.0233344,18.9355213 32.7412295,18.833689 32.5192336,18.6282043 L27.0305996,13.558238 L26.0824231,14.5729295 L31.9568128,20.0101903 C32.2006776,20.2356783 32.3244269,20.5429766 32.3262485,20.8575743 C32.3244283,21.1430677 32.2225138,21.4212711 32.0168705,21.6431375 L31.6929335,21.9922766 C31.4654494,22.2359478 31.157907,22.3577834 30.8412425,22.3577834 C30.5555223,22.3559647 30.2734174,22.2559512 30.0532385,22.0522867 L24.562741,16.9823203 L23.6145644,17.9970119 L28.4863618,22.4994641 C28.7211278,22.7249522 28.8412385,23.0231729 28.8412385,23.3305085 C28.8412385,23.6160019 28.7393254,23.8942053 28.5336775,24.1160716 L28.2079188,24.4652108 C27.9822517,24.708882 27.6728923,24.8307176 27.3562278,24.8325331 C27.068686,24.8307148 26.7884028,24.7307009 26.5664068,24.5270363 L21.7034613,20.0409704 L21.7016411,20.0409704 L21.6998213,20.039152 L20.7535083,21.0556591 L20.7553281,21.0574779 L20.7735271,21.0738437 L23.2085406,23.3196 C23.4251043,23.5414476 23.5361162,23.8251069 23.5361162,24.1197338 C23.5342965,24.4034118 23.4342031,24.6797996 23.2285552,24.9016659 L22.9027966,25.2508051 C22.6753125,25.4944763 22.3677701,25.6163119 22.0529225,25.6163119 C21.7672023,25.6144932 21.4850975,25.5144797 21.2649185,25.308995 L19.1447525,23.3469259 C19.3285596,22.9850595 19.4322943,22.5922732 19.4322943,22.1995149 C19.4341141,21.532147 19.1684103,20.8575171 18.6424733,20.3610877 L18.2948785,20.0319519 C17.8016888,19.5646174 17.1629089,19.331858 16.5332604,19.331858 C16.4841231,19.331858 16.4349858,19.3427684 16.3876702,19.3464055 C16.3876702,19.3354946 16.3913102,19.3227655 16.3913102,19.3118551 C16.3931299,18.6444872 15.6014892,17.4716123 15.6014892,17.4716123 L15.2557113,17.1424765 C14.8880972,16.7933373 14.4367723,16.5751021 13.9690667,16.4878638 C14.0655196,16.2150977 14.1201171,15.9314291 14.1201171,15.6459264 C14.1201171,14.9785585 13.8562331,14.3039285 13.3302961,13.8074991 L12.9845182,13.4783633 C12.4913285,13.0110289 11.8525486,12.7782694 11.2229001,12.7782694 C11.150105,12.7782694 11.0773099,12.7928169 11.0026932,12.8000911 C10.9826744,12.1581871 10.7242502,11.5180986 10.2201401,11.039871 L9.87436218,10.7125507 C9.38117248,10.2452163 8.74239257,10.0106413 8.11274409,10.0124568 C7.44121222,10.0124568 6.76422945,10.2761314 6.26190833,10.79802 L5.4375184,11.6563437 L1.78867865,8.54681714 C1.52661629,8.32314927 1.39558511,8.01221523 1.39376349,7.69398651 C1.39558325,7.42667625 1.4847562,7.1666467 1.67948367,6.94841144 L5.53033273,2.6405461 C5.68320011,2.46961221 5.90886724,2.31504597 6.17456353,2.20594231 C6.43844751,2.09865417 6.74052504,2.03864413 7.02080364,2.0404643 C7.26466838,2.0404643 7.4957771,2.0841067 7.67779978,2.16411543 L9.7906979,3.0660583 C10.3857774,3.31700092 11.0791595,3.42065336 11.7743585,3.42246888 C12.4695575,3.42065057 13.1611226,3.31700092 13.7580191,3.0660583 L15.8709172,2.16593096 C16.1966759,2.024092 16.6880393,1.93680721 17.1775951,1.93862739 C17.7181191,1.93499076 18.2585965,2.04773571 18.573444,2.20775318 C18.7736317,2.30776526 18.9628989,2.40050593 19.1375885,2.4896109 L16.9828536,4.00254733 C16.2912885,4.48989907 15.9182049,5.26270699 15.9182049,6.04282356 C15.9163847,6.55927023 16.0819927,7.08479452 16.4150286,7.53211163 L16.4132088,7.53029331 L16.697112,7.91216312 C17.237636,8.63045878 18.0802422,8.99956872 18.9228018,9.00138424 C19.3977752,9.00138424 19.8836971,8.88136881 20.3150168,8.62315014 L21.6034784,7.85029566 C21.8655407,7.69027354 22.2622915,7.58844128 22.673578,7.59026146 C23.1558659,7.58662482 23.6417411,7.73028023 23.9329215,7.94485651 L27.4980411,10.4979484 C28.291496,11.0653228 29.5836381,12.1200024 30.3006407,12.7818772 L34.4263175,16.5933132 C34.6701822,16.8206168 34.7939316,17.1260996 34.7939316,17.4406972 C34.7957513,17.7207348 34.6938401,17.9989475 34.4863705,18.2208138 L34.4865042,18.2208753 Z M39.2418295,7.99202847 L33.7438778,14.0656536 L31.2488112,11.7598919 C30.4662581,11.0379652 29.1777965,9.98691661 28.3133401,9.36684544 L24.7500375,6.81375359 C24.1458266,6.3864212 23.4051568,6.20094451 22.6753889,6.19912898 C22.0530082,6.2009473 21.4251301,6.33733223 20.8846061,6.659192 L19.5961446,7.43204648 C19.3977785,7.55024638 19.1648342,7.61207195 18.9246127,7.61207195 C18.4914807,7.61389026 18.0601563,7.41204313 17.8181272,7.08291661 L17.534224,6.7010468 L17.5324037,6.69922849 C17.3813533,6.49556397 17.3103799,6.2682604 17.3103799,6.03730716 C17.3121996,5.68816799 17.4741677,5.34992196 17.7853533,5.12991772 L21.5961825,2.45499957 C21.9255798,2.21678424 22.5115605,2.04949072 23.0684838,2.05312642 C23.4542955,2.0513081 23.8237359,2.12949945 24.0767134,2.25315523 L27.1777613,3.75519852 C27.7073369,4.00978149 28.302463,4.11342928 28.9029935,4.11342928 C29.6745982,4.10979264 30.4535174,3.94249539 31.0977482,3.54791692 L34.2661636,1.57853921 C34.4681683,1.4530679 34.7102114,1.38760198 34.9631796,1.38760198 C35.3908514,1.38578366 35.8203215,1.58035473 36.0623972,1.89678655 L39.3108989,6.05009962 C39.4983445,6.28831496 39.6075395,6.62292063 39.6075395,6.9720598 C39.6075395,7.3593855 39.4710481,7.74123668 39.2417424,7.99219792 L39.2418295,7.99202847 Z" id="Shape"></path>
            </g>
        </g>
    </g>
</svg>